<?xml version="1.0" encoding="utf-8"?><svg width="800px" height="800px" viewBox="-400 -400 800 800" xmlns="http://www.w3.org/2000/svg" xmlns:xlink="http://www.w3.org/1999/xlink" style="border: 1px solid #04CCFF"><g transform="scale(1, -1)"><rect x="-9.6568546295166" y="-4" width="19.313709259033" height="8" transform="translate(0 0) rotate(45 0 0)" fill="#04CCFF" /><rect x="-9.6568546295166" y="-4" width="19.313709259033" height="8" transform="translate(0 0) rotate(0 0 0)" fill="#04CCFF" /><rect x="-7.5" y="-7.5" width="15" height="15" transform="translate(0 392.5) rotate(0 0 0)" fill="#04CCFF" /><rect x="-9.6568546295166" y="-4" width="19.313709259033" height="8" transform="translate(0 0) rotate(135 0 0)" fill="#04CCFF" /><rect x="-7.5" y="-7.5" width="15" height="15" transform="translate(-392.5 0) rotate(0 0 0)" fill="#04CCFF" /><rect x="-9.6568546295166" y="-4" width="19.313709259033" height="8" transform="translate(0 0) rotate(90 0 0)" fill="#04CCFF" /><rect x="-7.5" y="-7.5" width="15" height="15" transform="translate(0 -392.5) rotate(0 0 0)" fill="#04CCFF" /><rect x="-7.5" y="-7.5" width="15" height="15" transform="translate(392.5 0) rotate(0 0 0)" fill="#04CCFF" /><rect x="-0.5" y="-150" width="1" height="300" transform="translate(-180 180) rotate(45 0 0)" fill="#04CCFF" /><rect x="-7.5" y="-400" width="15" height="800" transform="translate(0 392.5) rotate(90 0 0)" fill="#04CCFF" /><rect x="-4" y="-550" width="8" height="1100" transform="translate(0 0) rotate(45 0 0)" fill="#04CCFF" /><rect x="-0.5" y="-150" width="1" height="300" transform="translate(-180 -180) rotate(135 0 0)" fill="#04CCFF" /><rect x="-0.5" y="-150" width="1" height="300" transform="translate(180 180) rotate(135 0 0)" fill="#04CCFF" /><rect x="-7.5" y="-400" width="15" height="800" transform="translate(392.5 0) rotate(0 0 0)" fill="#04CCFF" /><rect x="-7.5" y="-400" width="15" height="800" transform="translate(-392.5 0) rotate(0 0 0)" fill="#04CCFF" /><rect x="-0.5" y="-150" width="1" height="300" transform="translate(180 -180) rotate(45 0 0)" fill="#04CCFF" /><rect x="-7.5" y="-400" width="15" height="800" transform="translate(0 -392.5) rotate(90 0 0)" fill="#04CCFF" /><rect x="-4" y="-550" width="8" height="1100" transform="translate(0 0) rotate(135 0 0)" fill="#04CCFF" /><rect x="-30" y="-30" width="60" height="60" transform="translate(400 -180) rotate(45 0 0)" fill="#04CCFF" /><rect x="-8" y="-107" width="16" height="214" transform="translate(180 180) rotate(135 0 0)" fill="#04CCFF" /><rect x="-30" y="-30" width="60" height="60" transform="translate(-280 280) rotate(0 0 0)" fill="#04CCFF" /><rect x="-30" y="-30" width="60" height="60" transform="translate(280 -280) rotate(0 0 0)" fill="#04CCFF" /><rect x="-19.313709259033" y="-8" width="38.627418518066" height="16" transform="translate(180 180) rotate(0 0 0)" fill="#04CCFF" /><rect x="-8" y="-107" width="16" height="214" transform="translate(-180 180) rotate(45 0 0)" fill="#04CCFF" /><rect x="-30" y="-30" width="60" height="60" transform="translate(400 180) rotate(45 0 0)" fill="#04CCFF" /><rect x="-19.313709259033" y="-8" width="38.627418518066" height="16" transform="translate(180 -180) rotate(90 0 0)" fill="#04CCFF" /><rect x="-30" y="-30" width="60" height="60" transform="translate(0 -200) rotate(0 0 0)" fill="#04CCFF" /><rect x="-30" y="-30" width="60" height="60" transform="translate(-180 400) rotate(45 0 0)" fill="#04CCFF" /><rect x="-19.313709259033" y="-8" width="38.627418518066" height="16" transform="translate(-180 180) rotate(90 0 0)" fill="#04CCFF" /><rect x="-19.313709259033" y="-8" width="38.627418518066" height="16" transform="translate(180 -180) rotate(135 0 0)" fill="#04CCFF" /><rect x="-30" y="-30" width="60" height="60" transform="translate(80 -80) rotate(0 0 0)" fill="#04CCFF" /><rect x="-19.313709259033" y="-8" width="38.627418518066" height="16" transform="translate(-180 -180) rotate(0 0 0)" fill="#04CCFF" /><rect x="-8" y="-107" width="16" height="214" transform="translate(-180 -180) rotate(135 0 0)" fill="#04CCFF" /><rect x="-30" y="-30" width="60" height="60" transform="translate(-80 -80) rotate(0 0 0)" fill="#04CCFF" /><rect x="-19.313709259033" y="-8" width="38.627418518066" height="16" transform="translate(180 -180) rotate(0 0 0)" fill="#04CCFF" /><rect x="-19.313709259033" y="-8" width="38.627418518066" height="16" transform="translate(180 180) rotate(90 0 0)" fill="#04CCFF" /><rect x="-19.313709259033" y="-8" width="38.627418518066" height="16" transform="translate(-180 -180) rotate(45 0 0)" fill="#04CCFF" /><rect x="-30" y="-30" width="60" height="60" transform="translate(80 80) rotate(0 0 0)" fill="#04CCFF" /><rect x="-19.313709259033" y="-8" width="38.627418518066" height="16" transform="translate(180 180) rotate(45 0 0)" fill="#04CCFF" /><rect x="-30" y="-30" width="60" height="60" transform="translate(-280 -280) rotate(0 0 0)" fill="#04CCFF" /><rect x="-8" y="-107" width="16" height="214" transform="translate(180 -180) rotate(45 0 0)" fill="#04CCFF" /><rect x="-30" y="-30" width="60" height="60" transform="translate(-80 80) rotate(0 0 0)" fill="#04CCFF" /><rect x="-30" y="-30" width="60" height="60" transform="translate(180 -400) rotate(45 0 0)" fill="#04CCFF" /><rect x="-30" y="-30" width="60" height="60" transform="translate(-200 0) rotate(0 0 0)" fill="#04CCFF" /><rect x="-30" y="-30" width="60" height="60" transform="translate(0 200) rotate(0 0 0)" fill="#04CCFF" /><rect x="-19.313709259033" y="-8" width="38.627418518066" height="16" transform="translate(-180 -180) rotate(90 0 0)" fill="#04CCFF" /><rect x="-19.313709259033" y="-8" width="38.627418518066" height="16" transform="translate(180 -180) rotate(45 0 0)" fill="#04CCFF" /><rect x="-19.313709259033" y="-8" width="38.627418518066" height="16" transform="translate(-180 180) rotate(0 0 0)" fill="#04CCFF" /><rect x="-30" y="-30" width="60" height="60" transform="translate(280 280) rotate(0 0 0)" fill="#04CCFF" /><rect x="-19.313709259033" y="-8" width="38.627418518066" height="16" transform="translate(-180 180) rotate(45 0 0)" fill="#04CCFF" /><rect x="-30" y="-30" width="60" height="60" transform="translate(-400 180) rotate(45 0 0)" fill="#04CCFF" /><rect x="-30" y="-30" width="60" height="60" transform="translate(-400 -180) rotate(45 0 0)" fill="#04CCFF" /><rect x="-30" y="-30" width="60" height="60" transform="translate(180 400) rotate(45 0 0)" fill="#04CCFF" /><rect x="-30" y="-30" width="60" height="60" transform="translate(-180 -400) rotate(45 0 0)" fill="#04CCFF" /><rect x="-30" y="-30" width="60" height="60" transform="translate(200 0) rotate(0 0 0)" fill="#04CCFF" /><rect x="-19.313709259033" y="-8" width="38.627418518066" height="16" transform="translate(180 180) rotate(135 0 0)" fill="#04CCFF" /><rect x="-19.313709259033" y="-8" width="38.627418518066" height="16" transform="translate(-180 -180) rotate(135 0 0)" fill="#04CCFF" /><rect x="-19.313709259033" y="-8" width="38.627418518066" height="16" transform="translate(-180 180) rotate(135 0 0)" fill="#04CCFF" /><rect x="-9.6568546295166" y="-4" width="19.313709259033" height="8" transform="translate(0 0) rotate(0 0 0)" fill="#04CCFF" /><rect x="-9.6568546295166" y="-4" width="19.313709259033" height="8" transform="translate(0 0) rotate(45 0 0)" fill="#04CCFF" /><rect x="-9.6568546295166" y="-4" width="19.313709259033" height="8" transform="translate(0 0) rotate(90 0 0)" fill="#04CCFF" /><rect x="-9.6568546295166" y="-4" width="19.313709259033" height="8" transform="translate(0 0) rotate(135 0 0)" fill="#04CCFF" /><rect x="-7.5" y="-7.5" width="15" height="15" transform="translate(-340 45) rotate(0 0 0)" fill="#04CCFF" /><rect x="-7.5" y="-7.5" width="15" height="15" transform="translate(-385 0) rotate(0 0 0)" fill="#04CCFF" /><rect x="-7.5" y="-7.5" width="15" height="15" transform="translate(-45 -340) rotate(0 0 0)" fill="#04CCFF" /><rect x="-7.5" y="-7.5" width="15" height="15" transform="translate(295 0) rotate(0 0 0)" fill="#04CCFF" /><rect x="-7.5" y="-7.5" width="15" height="15" transform="translate(340 45) rotate(0 0 0)" fill="#04CCFF" /><rect x="-7.5" y="-7.5" width="15" height="15" transform="translate(45 -340) rotate(0 0 0)" fill="#04CCFF" /><rect x="-7.5" y="-7.5" width="15" height="15" transform="translate(-295 0) rotate(0 0 0)" fill="#04CCFF" /><rect x="-7.5" y="-7.5" width="15" height="15" transform="translate(340 -45) rotate(0 0 0)" fill="#04CCFF" /><rect x="-7.5" y="-7.5" width="15" height="15" transform="translate(0 385) rotate(0 0 0)" fill="#04CCFF" /><rect x="-7.5" y="-7.5" width="15" height="15" transform="translate(385 0) rotate(0 0 0)" fill="#04CCFF" /><rect x="-7.5" y="-7.5" width="15" height="15" transform="translate(45 340) rotate(0 0 0)" fill="#04CCFF" /><rect x="-7.5" y="-7.5" width="15" height="15" transform="translate(-340 -45) rotate(0 0 0)" fill="#04CCFF" /><rect x="-7.5" y="-7.5" width="15" height="15" transform="translate(0 295) rotate(0 0 0)" fill="#04CCFF" /><rect x="-7.5" y="-7.5" width="15" height="15" transform="translate(-45 340) rotate(0 0 0)" fill="#04CCFF" /><rect x="-7.5" y="-7.5" width="15" height="15" transform="translate(0 -385) rotate(0 0 0)" fill="#04CCFF" /><rect x="-7.5" y="-7.5" width="15" height="15" transform="translate(0 -295) rotate(0 0 0)" fill="#04CCFF" /><rect x="-2" y="-2" width="4" height="4" transform="translate(-220 220) rotate(45 0 0)" fill="#04CCFF" /><rect x="-2" y="-2" width="4" height="4" transform="translate(140 -140) rotate(45 0 0)" fill="#04CCFF" /><rect x="-2" y="-2" width="4" height="4" transform="translate(-220 -220) rotate(45 0 0)" fill="#04CCFF" /><rect x="-2" y="-2" width="4" height="4" transform="translate(220 220) rotate(45 0 0)" fill="#04CCFF" /><rect x="-2" y="-2" width="4" height="4" transform="translate(220 -220) rotate(45 0 0)" fill="#04CCFF" /><rect x="-2" y="-2" width="4" height="4" transform="translate(140 140) rotate(45 0 0)" fill="#04CCFF" /><rect x="-2" y="-2" width="4" height="4" transform="translate(-140 -140) rotate(45 0 0)" fill="#04CCFF" /><rect x="-2" y="-2" width="4" height="4" transform="translate(-140 140) rotate(45 0 0)" fill="#04CCFF" /><rect x="-8" y="-0.5" width="16" height="1" transform="translate(-140 -140) rotate(90 0 0)" fill="#04CCFF" /><rect x="-8" y="-0.5" width="16" height="1" transform="translate(140 -140) rotate(0 0 0)" fill="#04CCFF" /><rect x="-8" y="-0.5" width="16" height="1" transform="translate(-140 140) rotate(90 0 0)" fill="#04CCFF" /><rect x="-8" y="-0.5" width="16" height="1" transform="translate(220 -220) rotate(90 0 0)" fill="#04CCFF" /><rect x="-8" y="-0.5" width="16" height="1" transform="translate(-220 220) rotate(0 0 0)" fill="#04CCFF" /><rect x="-8" y="-0.5" width="16" height="1" transform="translate(220 220) rotate(0 0 0)" fill="#04CCFF" /><rect x="-8" y="-0.5" width="16" height="1" transform="translate(140 140) rotate(0 0 0)" fill="#04CCFF" /><rect x="-8" y="-0.5" width="16" height="1" transform="translate(-140 -140) rotate(0 0 0)" fill="#04CCFF" /><rect x="-8" y="-0.5" width="16" height="1" transform="translate(220 220) rotate(90 0 0)" fill="#04CCFF" /><rect x="-8" y="-0.5" width="16" height="1" transform="translate(-140 140) rotate(0 0 0)" fill="#04CCFF" /><rect x="-8" y="-0.5" width="16" height="1" transform="translate(-220 220) rotate(90 0 0)" fill="#04CCFF" /><rect x="-8" y="-0.5" width="16" height="1" transform="translate(-220 -220) rotate(90 0 0)" fill="#04CCFF" /><rect x="-8" y="-0.5" width="16" height="1" transform="translate(220 -220) rotate(0 0 0)" fill="#04CCFF" /><rect x="-8" y="-0.5" width="16" height="1" transform="translate(140 140) rotate(90 0 0)" fill="#04CCFF" /><rect x="-8" y="-0.5" width="16" height="1" transform="translate(-220 -220) rotate(0 0 0)" fill="#04CCFF" /><rect x="-8" y="-0.5" width="16" height="1" transform="translate(140 -140) rotate(90 0 0)" fill="#04CCFF" /><rect x="-8" y="-1" width="16" height="2" transform="translate(-140 140) rotate(0 0 0)" fill="#04CCFF" /><rect x="-8" y="-1" width="16" height="2" transform="translate(-220 -220) rotate(90 0 0)" fill="#04CCFF" /><rect x="-8" y="-1" width="16" height="2" transform="translate(220 -220) rotate(90 0 0)" fill="#04CCFF" /><rect x="-8" y="-1" width="16" height="2" transform="translate(220 220) rotate(0 0 0)" fill="#04CCFF" /><rect x="-8" y="-1" width="16" height="2" transform="translate(-140 -140) rotate(90 0 0)" fill="#04CCFF" /><rect x="-8" y="-1" width="16" height="2" transform="translate(-140 -140) rotate(0 0 0)" fill="#04CCFF" /><rect x="-8" y="-1" width="16" height="2" transform="translate(140 -140) rotate(90 0 0)" fill="#04CCFF" /><rect x="-8" y="-1" width="16" height="2" transform="translate(140 -140) rotate(0 0 0)" fill="#04CCFF" /><rect x="-8" y="-1" width="16" height="2" transform="translate(220 220) rotate(90 0 0)" fill="#04CCFF" /><rect x="-8" y="-1" width="16" height="2" transform="translate(-220 -220) rotate(0 0 0)" fill="#04CCFF" /><rect x="-8" y="-1" width="16" height="2" transform="translate(-220 220) rotate(90 0 0)" fill="#04CCFF" /><rect x="-8" y="-1" width="16" height="2" transform="translate(-220 220) rotate(0 0 0)" fill="#04CCFF" /><rect x="-8" y="-1" width="16" height="2" transform="translate(-140 140) rotate(90 0 0)" fill="#04CCFF" /><rect x="-8" y="-1" width="16" height="2" transform="translate(140 140) rotate(90 0 0)" fill="#04CCFF" /><rect x="-8" y="-1" width="16" height="2" transform="translate(140 140) rotate(0 0 0)" fill="#04CCFF" /><rect x="-8" y="-1" width="16" height="2" transform="translate(220 -220) rotate(0 0 0)" fill="#04CCFF" /><rect x="-35" y="-35" width="70" height="70" transform="translate(-340 0) rotate(45 0 0)" fill-opacity="0" stroke="#FF0000" stroke-width="2" /><rect x="-35" y="-35" width="70" height="70" transform="translate(340 0) rotate(45 0 0)" fill-opacity="0" stroke="#00CA00" stroke-width="2" /><rect x="-35" y="-35" width="70" height="70" transform="translate(0 -340) rotate(45 0 0)" fill-opacity="0" stroke="#3368ff" stroke-width="2" /><rect x="-35" y="-35" width="70" height="70" transform="translate(0 340) rotate(45 0 0)" fill-opacity="0" stroke="#FF01FF" stroke-width="2" /><rect x="-0.56000000238419" y="-4.4800000190735" width="1.1200000047684" height="8.960000038147" transform="translate(390 -390) rotate(135 0 0)" fill="#FEFF00" stroke="#FEFF00" /><rect x="-0.56000000238419" y="-4.4800000190735" width="1.1200000047684" height="8.960000038147" transform="translate(390 390) rotate(45 0 0)" fill="#FEFF00" stroke="#FEFF00" /><rect x="-0.56000000238419" y="-4.4800000190735" width="1.1200000047684" height="8.960000038147" transform="translate(-390 390) rotate(135 0 0)" fill="#FEFF00" stroke="#FEFF00" /><rect x="-0.56000000238419" y="-4.4800000190735" width="1.1200000047684" height="8.960000038147" transform="translate(-390 -390) rotate(45 0 0)" fill="#FEFF00" stroke="#FEFF00" /><rect x="-0.56000000238419" y="-4.4800000190735" width="1.1200000047684" height="8.960000038147" transform="translate(390 -390) rotate(135 0 0)" fill="#FEFF00" stroke="#FEFF00" /><rect x="-0.56000000238419" y="-4.4800000190735" width="1.1200000047684" height="8.960000038147" transform="translate(-390 -390) rotate(45 0 0)" fill="#FEFF00" stroke="#FEFF00" /><rect x="-0.56000000238419" y="-4.4800000190735" width="1.1200000047684" height="8.960000038147" transform="translate(-390 390) rotate(135 0 0)" fill="#FEFF00" stroke="#FEFF00" /><rect x="-0.56000000238419" y="-4.4800000190735" width="1.1200000047684" height="8.960000038147" transform="translate(390 390) rotate(45 0 0)" fill="#FEFF00" stroke="#FEFF00" /></g></svg>