<?xml version="1.0" encoding="utf-8"?><svg width="800px" height="800px" viewBox="-400 -400 800 800" xmlns:bzw="http://schemas.allejo.dev/php/bzflag-rendering" xmlns="http://www.w3.org/2000/svg" xmlns:xlink="http://www.w3.org/1999/xlink"><rect x="-399.5" y="-399.5" width="799" height="799" fill-opacity="0" stroke="#04CCFF" stroke-width="1" /><g transform="scale(1, -1)"><rect x="-9.6568546295166" y="-4" width="19.313709259033" height="8" transform="translate(0 0) rotate(45 0 0)" bzw:type="1" bzw:position="0 0 29" bzw:size="9.6568546295166 4 16" bzw:rotation="45.000001252239" fill="#04CCFF" stroke-width="0" /><rect x="-9.6568546295166" y="-4" width="19.313709259033" height="8" transform="translate(0 0) rotate(0 0 0)" bzw:type="1" bzw:position="0 0 29" bzw:size="9.6568546295166 4 16" bzw:rotation="0" fill="#04CCFF" stroke-width="0" /><rect x="-7.5" y="-7.5" width="15" height="15" transform="translate(0 392.5) rotate(0 0 0)" bzw:type="1" bzw:position="0 392.5 29" bzw:size="7.5 7.5 16" bzw:rotation="0" fill="#04CCFF" stroke-width="0" /><rect x="-9.6568546295166" y="-4" width="19.313709259033" height="8" transform="translate(0 0) rotate(135 0 0)" bzw:type="1" bzw:position="0 0 29" bzw:size="9.6568546295166 4 16" bzw:rotation="135.00000034162" fill="#04CCFF" stroke-width="0" /><rect x="-7.5" y="-7.5" width="15" height="15" transform="translate(-392.5 0) rotate(0 0 0)" bzw:type="1" bzw:position="-392.5 0 29" bzw:size="7.5 7.5 16" bzw:rotation="0" fill="#04CCFF" stroke-width="0" /><rect x="-9.6568546295166" y="-4" width="19.313709259033" height="8" transform="translate(0 0) rotate(90 0 0)" bzw:type="1" bzw:position="0 0 29" bzw:size="9.6568546295166 4 16" bzw:rotation="90.000002504478" fill="#04CCFF" stroke-width="0" /><rect x="-7.5" y="-7.5" width="15" height="15" transform="translate(0 -392.5) rotate(0 0 0)" bzw:type="1" bzw:position="0 -392.5 29" bzw:size="7.5 7.5 16" bzw:rotation="0" fill="#04CCFF" stroke-width="0" /><rect x="-7.5" y="-7.5" width="15" height="15" transform="translate(392.5 0) rotate(0 0 0)" bzw:type="1" bzw:position="392.5 0 29" bzw:size="7.5 7.5 16" bzw:rotation="0" fill="#04CCFF" stroke-width="0" /><rect x="-0.5" y="-150" width="1" height="300" transform="translate(-180 180) rotate(45 0 0)" bzw:type="1" bzw:position="-180 180 14" bzw:size="0.5 150 16" bzw:rotation="45.000001252239" fill="#04CCFF" stroke-width="0" /><rect x="-7.5" y="-400" width="15" height="800" transform="translate(0 392.5) rotate(90 0 0)" bzw:type="1" bzw:position="0 392.5 29" bzw:size="7.5 400 1" bzw:rotation="90.000002504478" fill="#04CCFF" stroke-width="0" /><rect x="-4" y="-550" width="8" height="1100" transform="translate(0 0) rotate(45 0 0)" bzw:type="1" bzw:position="0 0 29" bzw:size="4 550 1" bzw:rotation="45.000001252239" fill="#04CCFF" stroke-width="0" /><rect x="-0.5" y="-150" width="1" height="300" transform="translate(-180 -180) rotate(135 0 0)" bzw:type="1" bzw:position="-180 -180 14" bzw:size="0.5 150 16" bzw:rotation="135.00000034162" fill="#04CCFF" stroke-width="0" /><rect x="-0.5" y="-150" width="1" height="300" transform="translate(180 180) rotate(135 0 0)" bzw:type="1" bzw:position="180 180 14" bzw:size="0.5 150 16" bzw:rotation="135.00000034162" fill="#04CCFF" stroke-width="0" /><rect x="-7.5" y="-400" width="15" height="800" transform="translate(392.5 0) rotate(0 0 0)" bzw:type="1" bzw:position="392.5 0 29" bzw:size="7.5 400 1" bzw:rotation="0" fill="#04CCFF" stroke-width="0" /><rect x="-7.5" y="-400" width="15" height="800" transform="translate(-392.5 0) rotate(0 0 0)" bzw:type="1" bzw:position="-392.5 0 29" bzw:size="7.5 400 1" bzw:rotation="0" fill="#04CCFF" stroke-width="0" /><rect x="-0.5" y="-150" width="1" height="300" transform="translate(180 -180) rotate(45 0 0)" bzw:type="1" bzw:position="180 -180 14" bzw:size="0.5 150 16" bzw:rotation="45.000001252239" fill="#04CCFF" stroke-width="0" /><rect x="-7.5" y="-400" width="15" height="800" transform="translate(0 -392.5) rotate(90 0 0)" bzw:type="1" bzw:position="0 -392.5 29" bzw:size="7.5 400 1" bzw:rotation="90.000002504478" fill="#04CCFF" stroke-width="0" /><rect x="-4" y="-550" width="8" height="1100" transform="translate(0 0) rotate(135 0 0)" bzw:type="1" bzw:position="0 0 29" bzw:size="4 550 1" bzw:rotation="135.00000034162" fill="#04CCFF" stroke-width="0" /><rect x="-30" y="-30" width="60" height="60" transform="translate(400 -180) rotate(45 0 0)" bzw:type="1" bzw:position="400 -180 0" bzw:size="30 30 15" bzw:rotation="45.000001252239" fill="#04CCFF" stroke-width="0" /><rect x="-8" y="-107" width="16" height="214" transform="translate(180 180) rotate(135 0 0)" bzw:type="1" bzw:position="180 180 14" bzw:size="8 107 1" bzw:rotation="135.00000034162" fill="#04CCFF" stroke-width="0" /><rect x="-30" y="-30" width="60" height="60" transform="translate(-280 280) rotate(0 0 0)" bzw:type="1" bzw:position="-280 280 0" bzw:size="30 30 15" bzw:rotation="0" fill="#04CCFF" stroke-width="0" /><rect x="-30" y="-30" width="60" height="60" transform="translate(280 -280) rotate(0 0 0)" bzw:type="1" bzw:position="280 -280 0" bzw:size="30 30 15" bzw:rotation="0" fill="#04CCFF" stroke-width="0" /><rect x="-19.313709259033" y="-8" width="38.627418518066" height="16" transform="translate(180 180) rotate(0 0 0)" bzw:type="1" bzw:position="180 180 0" bzw:size="19.313709259033 8 15" bzw:rotation="0" fill="#04CCFF" stroke-width="0" /><rect x="-8" y="-107" width="16" height="214" transform="translate(-180 180) rotate(45 0 0)" bzw:type="1" bzw:position="-180 180 14" bzw:size="8 107 1" bzw:rotation="45.000001252239" fill="#04CCFF" stroke-width="0" /><rect x="-30" y="-30" width="60" height="60" transform="translate(400 180) rotate(45 0 0)" bzw:type="1" bzw:position="400 180 0" bzw:size="30 30 15" bzw:rotation="45.000001252239" fill="#04CCFF" stroke-width="0" /><rect x="-19.313709259033" y="-8" width="38.627418518066" height="16" transform="translate(180 -180) rotate(90 0 0)" bzw:type="1" bzw:position="180 -180 0" bzw:size="19.313709259033 8 15" bzw:rotation="90.000002504478" fill="#04CCFF" stroke-width="0" /><rect x="-30" y="-30" width="60" height="60" transform="translate(0 -200) rotate(0 0 0)" bzw:type="1" bzw:position="0 -200 0" bzw:size="30 30 15" bzw:rotation="0" fill="#04CCFF" stroke-width="0" /><rect x="-30" y="-30" width="60" height="60" transform="translate(-180 400) rotate(45 0 0)" bzw:type="1" bzw:position="-180 400 0" bzw:size="30 30 15" bzw:rotation="45.000001252239" fill="#04CCFF" stroke-width="0" /><rect x="-19.313709259033" y="-8" width="38.627418518066" height="16" transform="translate(-180 180) rotate(90 0 0)" bzw:type="1" bzw:position="-180 180 0" bzw:size="19.313709259033 8 15" bzw:rotation="90.000002504478" fill="#04CCFF" stroke-width="0" /><rect x="-19.313709259033" y="-8" width="38.627418518066" height="16" transform="translate(180 -180) rotate(135 0 0)" bzw:type="1" bzw:position="180 -180 0" bzw:size="19.313709259033 8 15" bzw:rotation="135.00000034162" fill="#04CCFF" stroke-width="0" /><rect x="-30" y="-30" width="60" height="60" transform="translate(80 -80) rotate(0 0 0)" bzw:type="1" bzw:position="80 -80 0" bzw:size="30 30 15" bzw:rotation="0" fill="#04CCFF" stroke-width="0" /><rect x="-19.313709259033" y="-8" width="38.627418518066" height="16" transform="translate(-180 -180) rotate(0 0 0)" bzw:type="1" bzw:position="-180 -180 0" bzw:size="19.313709259033 8 15" bzw:rotation="0" fill="#04CCFF" stroke-width="0" /><rect x="-8" y="-107" width="16" height="214" transform="translate(-180 -180) rotate(135 0 0)" bzw:type="1" bzw:position="-180 -180 14" bzw:size="8 107 1" bzw:rotation="135.00000034162" fill="#04CCFF" stroke-width="0" /><rect x="-30" y="-30" width="60" height="60" transform="translate(-80 -80) rotate(0 0 0)" bzw:type="1" bzw:position="-80 -80 0" bzw:size="30 30 15" bzw:rotation="0" fill="#04CCFF" stroke-width="0" /><rect x="-19.313709259033" y="-8" width="38.627418518066" height="16" transform="translate(180 -180) rotate(0 0 0)" bzw:type="1" bzw:position="180 -180 0" bzw:size="19.313709259033 8 15" bzw:rotation="0" fill="#04CCFF" stroke-width="0" /><rect x="-19.313709259033" y="-8" width="38.627418518066" height="16" transform="translate(180 180) rotate(90 0 0)" bzw:type="1" bzw:position="180 180 0" bzw:size="19.313709259033 8 15" bzw:rotation="90.000002504478" fill="#04CCFF" stroke-width="0" /><rect x="-19.313709259033" y="-8" width="38.627418518066" height="16" transform="translate(-180 -180) rotate(45 0 0)" bzw:type="1" bzw:position="-180 -180 0" bzw:size="19.313709259033 8 15" bzw:rotation="45.000001252239" fill="#04CCFF" stroke-width="0" /><rect x="-30" y="-30" width="60" height="60" transform="translate(80 80) rotate(0 0 0)" bzw:type="1" bzw:position="80 80 0" bzw:size="30 30 15" bzw:rotation="0" fill="#04CCFF" stroke-width="0" /><rect x="-19.313709259033" y="-8" width="38.627418518066" height="16" transform="translate(180 180) rotate(45 0 0)" bzw:type="1" bzw:position="180 180 0" bzw:size="19.313709259033 8 15" bzw:rotation="45.000001252239" fill="#04CCFF" stroke-width="0" /><rect x="-30" y="-30" width="60" height="60" transform="translate(-280 -280) rotate(0 0 0)" bzw:type="1" bzw:position="-280 -280 0" bzw:size="30 30 15" bzw:rotation="0" fill="#04CCFF" stroke-width="0" /><rect x="-8" y="-107" width="16" height="214" transform="translate(180 -180) rotate(45 0 0)" bzw:type="1" bzw:position="180 -180 14" bzw:size="8 107 1" bzw:rotation="45.000001252239" fill="#04CCFF" stroke-width="0" /><rect x="-30" y="-30" width="60" height="60" transform="translate(-80 80) rotate(0 0 0)" bzw:type="1" bzw:position="-80 80 0" bzw:size="30 30 15" bzw:rotation="0" fill="#04CCFF" stroke-width="0" /><rect x="-30" y="-30" width="60" height="60" transform="translate(180 -400) rotate(45 0 0)" bzw:type="1" bzw:position="180 -400 0" bzw:size="30 30 15" bzw:rotation="45.000001252239" fill="#04CCFF" stroke-width="0" /><rect x="-30" y="-30" width="60" height="60" transform="translate(-200 0) rotate(0 0 0)" bzw:type="1" bzw:position="-200 0 0" bzw:size="30 30 15" bzw:rotation="0" fill="#04CCFF" stroke-width="0" /><rect x="-30" y="-30" width="60" height="60" transform="translate(0 200) rotate(0 0 0)" bzw:type="1" bzw:position="0 200 0" bzw:size="30 30 15" bzw:rotation="0" fill="#04CCFF" stroke-width="0" /><rect x="-19.313709259033" y="-8" width="38.627418518066" height="16" transform="translate(-180 -180) rotate(90 0 0)" bzw:type="1" bzw:position="-180 -180 0" bzw:size="19.313709259033 8 15" bzw:rotation="90.000002504478" fill="#04CCFF" stroke-width="0" /><rect x="-19.313709259033" y="-8" width="38.627418518066" height="16" transform="translate(180 -180) rotate(45 0 0)" bzw:type="1" bzw:position="180 -180 0" bzw:size="19.313709259033 8 15" bzw:rotation="45.000001252239" fill="#04CCFF" stroke-width="0" /><rect x="-19.313709259033" y="-8" width="38.627418518066" height="16" transform="translate(-180 180) rotate(0 0 0)" bzw:type="1" bzw:position="-180 180 0" bzw:size="19.313709259033 8 15" bzw:rotation="0" fill="#04CCFF" stroke-width="0" /><rect x="-30" y="-30" width="60" height="60" transform="translate(280 280) rotate(0 0 0)" bzw:type="1" bzw:position="280 280 0" bzw:size="30 30 15" bzw:rotation="0" fill="#04CCFF" stroke-width="0" /><rect x="-19.313709259033" y="-8" width="38.627418518066" height="16" transform="translate(-180 180) rotate(45 0 0)" bzw:type="1" bzw:position="-180 180 0" bzw:size="19.313709259033 8 15" bzw:rotation="45.000001252239" fill="#04CCFF" stroke-width="0" /><rect x="-30" y="-30" width="60" height="60" transform="translate(-400 180) rotate(45 0 0)" bzw:type="1" bzw:position="-400 180 0" bzw:size="30 30 15" bzw:rotation="45.000001252239" fill="#04CCFF" stroke-width="0" /><rect x="-30" y="-30" width="60" height="60" transform="translate(-400 -180) rotate(45 0 0)" bzw:type="1" bzw:position="-400 -180 0" bzw:size="30 30 15" bzw:rotation="45.000001252239" fill="#04CCFF" stroke-width="0" /><rect x="-30" y="-30" width="60" height="60" transform="translate(180 400) rotate(45 0 0)" bzw:type="1" bzw:position="180 400 0" bzw:size="30 30 15" bzw:rotation="45.000001252239" fill="#04CCFF" stroke-width="0" /><rect x="-30" y="-30" width="60" height="60" transform="translate(-180 -400) rotate(45 0 0)" bzw:type="1" bzw:position="-180 -400 0" bzw:size="30 30 15" bzw:rotation="45.000001252239" fill="#04CCFF" stroke-width="0" /><rect x="-30" y="-30" width="60" height="60" transform="translate(200 0) rotate(0 0 0)" bzw:type="1" bzw:position="200 0 0" bzw:size="30 30 15" bzw:rotation="0" fill="#04CCFF" stroke-width="0" /><rect x="-19.313709259033" y="-8" width="38.627418518066" height="16" transform="translate(180 180) rotate(135 0 0)" bzw:type="1" bzw:position="180 180 0" bzw:size="19.313709259033 8 15" bzw:rotation="135.00000034162" fill="#04CCFF" stroke-width="0" /><rect x="-19.313709259033" y="-8" width="38.627418518066" height="16" transform="translate(-180 -180) rotate(135 0 0)" bzw:type="1" bzw:position="-180 -180 0" bzw:size="19.313709259033 8 15" bzw:rotation="135.00000034162" fill="#04CCFF" stroke-width="0" /><rect x="-19.313709259033" y="-8" width="38.627418518066" height="16" transform="translate(-180 180) rotate(135 0 0)" bzw:type="1" bzw:position="-180 180 0" bzw:size="19.313709259033 8 15" bzw:rotation="135.00000034162" fill="#04CCFF" stroke-width="0" /><rect x="-9.6568546295166" y="-4" width="19.313709259033" height="8" transform="translate(0 0) rotate(0 0 0)" bzw:type="2" bzw:position="0 0 52" bzw:size="9.6568546295166 4 5" bzw:rotation="0" fill="#04CCFF" stroke-width="0" bzw:zflip="" /><rect x="-9.6568546295166" y="-4" width="19.313709259033" height="8" transform="translate(0 0) rotate(45 0 0)" bzw:type="2" bzw:position="0 0 52" bzw:size="9.6568546295166 4 5" bzw:rotation="45.000001252239" fill="#04CCFF" stroke-width="0" bzw:zflip="" /><rect x="-9.6568546295166" y="-4" width="19.313709259033" height="8" transform="translate(0 0) rotate(90 0 0)" bzw:type="2" bzw:position="0 0 52" bzw:size="9.6568546295166 4 5" bzw:rotation="90.000002504478" fill="#04CCFF" stroke-width="0" bzw:zflip="" /><rect x="-9.6568546295166" y="-4" width="19.313709259033" height="8" transform="translate(0 0) rotate(135 0 0)" bzw:type="2" bzw:position="0 0 52" bzw:size="9.6568546295166 4 5" bzw:rotation="135.00000034162" fill="#04CCFF" stroke-width="0" bzw:zflip="" /><rect x="-7.5" y="-7.5" width="15" height="15" transform="translate(-340 45) rotate(0 0 0)" bzw:type="2" bzw:position="-340 45 0" bzw:size="7.5 7.5 26" bzw:rotation="0" fill="#04CCFF" stroke-width="0" bzw:zflip="" /><rect x="-7.5" y="-7.5" width="15" height="15" transform="translate(-385 0) rotate(0 0 0)" bzw:type="2" bzw:position="-385 0 0" bzw:size="7.5 7.5 26" bzw:rotation="0" fill="#04CCFF" stroke-width="0" bzw:zflip="" /><rect x="-7.5" y="-7.5" width="15" height="15" transform="translate(-45 -340) rotate(0 0 0)" bzw:type="2" bzw:position="-45 -340 0" bzw:size="7.5 7.5 26" bzw:rotation="0" fill="#04CCFF" stroke-width="0" bzw:zflip="" /><rect x="-7.5" y="-7.5" width="15" height="15" transform="translate(295 0) rotate(0 0 0)" bzw:type="2" bzw:position="295 0 0" bzw:size="7.5 7.5 26" bzw:rotation="0" fill="#04CCFF" stroke-width="0" bzw:zflip="" /><rect x="-7.5" y="-7.5" width="15" height="15" transform="translate(340 45) rotate(0 0 0)" bzw:type="2" bzw:position="340 45 0" bzw:size="7.5 7.5 26" bzw:rotation="0" fill="#04CCFF" stroke-width="0" bzw:zflip="" /><rect x="-7.5" y="-7.5" width="15" height="15" transform="translate(45 -340) rotate(0 0 0)" bzw:type="2" bzw:position="45 -340 0" bzw:size="7.5 7.5 26" bzw:rotation="0" fill="#04CCFF" stroke-width="0" bzw:zflip="" /><rect x="-7.5" y="-7.5" width="15" height="15" transform="translate(-295 0) rotate(0 0 0)" bzw:type="2" bzw:position="-295 0 0" bzw:size="7.5 7.5 26" bzw:rotation="0" fill="#04CCFF" stroke-width="0" bzw:zflip="" /><rect x="-7.5" y="-7.5" width="15" height="15" transform="translate(340 -45) rotate(0 0 0)" bzw:type="2" bzw:position="340 -45 0" bzw:size="7.5 7.5 26" bzw:rotation="0" fill="#04CCFF" stroke-width="0" bzw:zflip="" /><rect x="-7.5" y="-7.5" width="15" height="15" transform="translate(0 385) rotate(0 0 0)" bzw:type="2" bzw:position="0 385 0" bzw:size="7.5 7.5 26" bzw:rotation="0" fill="#04CCFF" stroke-width="0" bzw:zflip="" /><rect x="-7.5" y="-7.5" width="15" height="15" transform="translate(385 0) rotate(0 0 0)" bzw:type="2" bzw:position="385 0 0" bzw:size="7.5 7.5 26" bzw:rotation="0" fill="#04CCFF" stroke-width="0" bzw:zflip="" /><rect x="-7.5" y="-7.5" width="15" height="15" transform="translate(45 340) rotate(0 0 0)" bzw:type="2" bzw:position="45 340 0" bzw:size="7.5 7.5 26" bzw:rotation="0" fill="#04CCFF" stroke-width="0" bzw:zflip="" /><rect x="-7.5" y="-7.5" width="15" height="15" transform="translate(-340 -45) rotate(0 0 0)" bzw:type="2" bzw:position="-340 -45 0" bzw:size="7.5 7.5 26" bzw:rotation="0" fill="#04CCFF" stroke-width="0" bzw:zflip="" /><rect x="-7.5" y="-7.5" width="15" height="15" transform="translate(0 295) rotate(0 0 0)" bzw:type="2" bzw:position="0 295 0" bzw:size="7.5 7.5 26" bzw:rotation="0" fill="#04CCFF" stroke-width="0" bzw:zflip="" /><rect x="-7.5" y="-7.5" width="15" height="15" transform="translate(-45 340) rotate(0 0 0)" bzw:type="2" bzw:position="-45 340 0" bzw:size="7.5 7.5 26" bzw:rotation="0" fill="#04CCFF" stroke-width="0" bzw:zflip="" /><rect x="-7.5" y="-7.5" width="15" height="15" transform="translate(0 -385) rotate(0 0 0)" bzw:type="2" bzw:position="0 -385 0" bzw:size="7.5 7.5 26" bzw:rotation="0" fill="#04CCFF" stroke-width="0" bzw:zflip="" /><rect x="-7.5" y="-7.5" width="15" height="15" transform="translate(0 -295) rotate(0 0 0)" bzw:type="2" bzw:position="0 -295 0" bzw:size="7.5 7.5 26" bzw:rotation="0" fill="#04CCFF" stroke-width="0" bzw:zflip="" /><rect x="-2" y="-2" width="4" height="4" transform="translate(-220 220) rotate(45 0 0)" bzw:type="2" bzw:position="-220 220 0" bzw:size="2 2 18" bzw:rotation="45.000001252239" fill="#04CCFF" stroke-width="0" bzw:zflip="" /><rect x="-2" y="-2" width="4" height="4" transform="translate(140 -140) rotate(45 0 0)" bzw:type="2" bzw:position="140 -140 0" bzw:size="2 2 18" bzw:rotation="45.000001252239" fill="#04CCFF" stroke-width="0" bzw:zflip="" /><rect x="-2" y="-2" width="4" height="4" transform="translate(-220 -220) rotate(45 0 0)" bzw:type="2" bzw:position="-220 -220 0" bzw:size="2 2 18" bzw:rotation="45.000001252239" fill="#04CCFF" stroke-width="0" bzw:zflip="" /><rect x="-2" y="-2" width="4" height="4" transform="translate(220 220) rotate(45 0 0)" bzw:type="2" bzw:position="220 220 0" bzw:size="2 2 18" bzw:rotation="45.000001252239" fill="#04CCFF" stroke-width="0" bzw:zflip="" /><rect x="-2" y="-2" width="4" height="4" transform="translate(220 -220) rotate(45 0 0)" bzw:type="2" bzw:position="220 -220 0" bzw:size="2 2 18" bzw:rotation="45.000001252239" fill="#04CCFF" stroke-width="0" bzw:zflip="" /><rect x="-2" y="-2" width="4" height="4" transform="translate(140 140) rotate(45 0 0)" bzw:type="2" bzw:position="140 140 0" bzw:size="2 2 18" bzw:rotation="45.000001252239" fill="#04CCFF" stroke-width="0" bzw:zflip="" /><rect x="-2" y="-2" width="4" height="4" transform="translate(-140 -140) rotate(45 0 0)" bzw:type="2" bzw:position="-140 -140 0" bzw:size="2 2 18" bzw:rotation="45.000001252239" fill="#04CCFF" stroke-width="0" bzw:zflip="" /><rect x="-2" y="-2" width="4" height="4" transform="translate(-140 140) rotate(45 0 0)" bzw:type="2" bzw:position="-140 140 0" bzw:size="2 2 18" bzw:rotation="45.000001252239" fill="#04CCFF" stroke-width="0" bzw:zflip="" /><rect x="-8" y="-0.5" width="16" height="1" transform="translate(-140 -140) rotate(90 0 0)" bzw:type="2" bzw:position="-140 -140 12" bzw:size="8 0.5 2" bzw:rotation="90.000002504478" fill="#04CCFF" stroke-width="0" bzw:zflip="1" /><rect x="-8" y="-0.5" width="16" height="1" transform="translate(140 -140) rotate(0 0 0)" bzw:type="2" bzw:position="140 -140 12" bzw:size="8 0.5 2" bzw:rotation="0" fill="#04CCFF" stroke-width="0" bzw:zflip="1" /><rect x="-8" y="-0.5" width="16" height="1" transform="translate(-140 140) rotate(90 0 0)" bzw:type="2" bzw:position="-140 140 12" bzw:size="8 0.5 2" bzw:rotation="90.000002504478" fill="#04CCFF" stroke-width="0" bzw:zflip="1" /><rect x="-8" y="-0.5" width="16" height="1" transform="translate(220 -220) rotate(90 0 0)" bzw:type="2" bzw:position="220 -220 12" bzw:size="8 0.5 2" bzw:rotation="90.000002504478" fill="#04CCFF" stroke-width="0" bzw:zflip="1" /><rect x="-8" y="-0.5" width="16" height="1" transform="translate(-220 220) rotate(0 0 0)" bzw:type="2" bzw:position="-220 220 12" bzw:size="8 0.5 2" bzw:rotation="0" fill="#04CCFF" stroke-width="0" bzw:zflip="1" /><rect x="-8" y="-0.5" width="16" height="1" transform="translate(220 220) rotate(0 0 0)" bzw:type="2" bzw:position="220 220 12" bzw:size="8 0.5 2" bzw:rotation="0" fill="#04CCFF" stroke-width="0" bzw:zflip="1" /><rect x="-8" y="-0.5" width="16" height="1" transform="translate(140 140) rotate(0 0 0)" bzw:type="2" bzw:position="140 140 12" bzw:size="8 0.5 2" bzw:rotation="0" fill="#04CCFF" stroke-width="0" bzw:zflip="1" /><rect x="-8" y="-0.5" width="16" height="1" transform="translate(-140 -140) rotate(0 0 0)" bzw:type="2" bzw:position="-140 -140 12" bzw:size="8 0.5 2" bzw:rotation="0" fill="#04CCFF" stroke-width="0" bzw:zflip="1" /><rect x="-8" y="-0.5" width="16" height="1" transform="translate(220 220) rotate(90 0 0)" bzw:type="2" bzw:position="220 220 12" bzw:size="8 0.5 2" bzw:rotation="90.000002504478" fill="#04CCFF" stroke-width="0" bzw:zflip="1" /><rect x="-8" y="-0.5" width="16" height="1" transform="translate(-140 140) rotate(0 0 0)" bzw:type="2" bzw:position="-140 140 12" bzw:size="8 0.5 2" bzw:rotation="0" fill="#04CCFF" stroke-width="0" bzw:zflip="1" /><rect x="-8" y="-0.5" width="16" height="1" transform="translate(-220 220) rotate(90 0 0)" bzw:type="2" bzw:position="-220 220 12" bzw:size="8 0.5 2" bzw:rotation="90.000002504478" fill="#04CCFF" stroke-width="0" bzw:zflip="1" /><rect x="-8" y="-0.5" width="16" height="1" transform="translate(-220 -220) rotate(90 0 0)" bzw:type="2" bzw:position="-220 -220 12" bzw:size="8 0.5 2" bzw:rotation="90.000002504478" fill="#04CCFF" stroke-width="0" bzw:zflip="1" /><rect x="-8" y="-0.5" width="16" height="1" transform="translate(220 -220) rotate(0 0 0)" bzw:type="2" bzw:position="220 -220 12" bzw:size="8 0.5 2" bzw:rotation="0" fill="#04CCFF" stroke-width="0" bzw:zflip="1" /><rect x="-8" y="-0.5" width="16" height="1" transform="translate(140 140) rotate(90 0 0)" bzw:type="2" bzw:position="140 140 12" bzw:size="8 0.5 2" bzw:rotation="90.000002504478" fill="#04CCFF" stroke-width="0" bzw:zflip="1" /><rect x="-8" y="-0.5" width="16" height="1" transform="translate(-220 -220) rotate(0 0 0)" bzw:type="2" bzw:position="-220 -220 12" bzw:size="8 0.5 2" bzw:rotation="0" fill="#04CCFF" stroke-width="0" bzw:zflip="1" /><rect x="-8" y="-0.5" width="16" height="1" transform="translate(140 -140) rotate(90 0 0)" bzw:type="2" bzw:position="140 -140 12" bzw:size="8 0.5 2" bzw:rotation="90.000002504478" fill="#04CCFF" stroke-width="0" bzw:zflip="1" /><rect x="-8" y="-1" width="16" height="2" transform="translate(-140 140) rotate(0 0 0)" bzw:type="2" bzw:position="-140 140 0" bzw:size="8 1 5" bzw:rotation="0" fill="#04CCFF" stroke-width="0" bzw:zflip="" /><rect x="-8" y="-1" width="16" height="2" transform="translate(-220 -220) rotate(90 0 0)" bzw:type="2" bzw:position="-220 -220 0" bzw:size="8 1 5" bzw:rotation="90.000002504478" fill="#04CCFF" stroke-width="0" bzw:zflip="" /><rect x="-8" y="-1" width="16" height="2" transform="translate(220 -220) rotate(90 0 0)" bzw:type="2" bzw:position="220 -220 0" bzw:size="8 1 5" bzw:rotation="90.000002504478" fill="#04CCFF" stroke-width="0" bzw:zflip="" /><rect x="-8" y="-1" width="16" height="2" transform="translate(220 220) rotate(0 0 0)" bzw:type="2" bzw:position="220 220 0" bzw:size="8 1 5" bzw:rotation="0" fill="#04CCFF" stroke-width="0" bzw:zflip="" /><rect x="-8" y="-1" width="16" height="2" transform="translate(-140 -140) rotate(90 0 0)" bzw:type="2" bzw:position="-140 -140 0" bzw:size="8 1 5" bzw:rotation="90.000002504478" fill="#04CCFF" stroke-width="0" bzw:zflip="" /><rect x="-8" y="-1" width="16" height="2" transform="translate(-140 -140) rotate(0 0 0)" bzw:type="2" bzw:position="-140 -140 0" bzw:size="8 1 5" bzw:rotation="0" fill="#04CCFF" stroke-width="0" bzw:zflip="" /><rect x="-8" y="-1" width="16" height="2" transform="translate(140 -140) rotate(90 0 0)" bzw:type="2" bzw:position="140 -140 0" bzw:size="8 1 5" bzw:rotation="90.000002504478" fill="#04CCFF" stroke-width="0" bzw:zflip="" /><rect x="-8" y="-1" width="16" height="2" transform="translate(140 -140) rotate(0 0 0)" bzw:type="2" bzw:position="140 -140 0" bzw:size="8 1 5" bzw:rotation="0" fill="#04CCFF" stroke-width="0" bzw:zflip="" /><rect x="-8" y="-1" width="16" height="2" transform="translate(220 220) rotate(90 0 0)" bzw:type="2" bzw:position="220 220 0" bzw:size="8 1 5" bzw:rotation="90.000002504478" fill="#04CCFF" stroke-width="0" bzw:zflip="" /><rect x="-8" y="-1" width="16" height="2" transform="translate(-220 -220) rotate(0 0 0)" bzw:type="2" bzw:position="-220 -220 0" bzw:size="8 1 5" bzw:rotation="0" fill="#04CCFF" stroke-width="0" bzw:zflip="" /><rect x="-8" y="-1" width="16" height="2" transform="translate(-220 220) rotate(90 0 0)" bzw:type="2" bzw:position="-220 220 0" bzw:size="8 1 5" bzw:rotation="90.000002504478" fill="#04CCFF" stroke-width="0" bzw:zflip="" /><rect x="-8" y="-1" width="16" height="2" transform="translate(-220 220) rotate(0 0 0)" bzw:type="2" bzw:position="-220 220 0" bzw:size="8 1 5" bzw:rotation="0" fill="#04CCFF" stroke-width="0" bzw:zflip="" /><rect x="-8" y="-1" width="16" height="2" transform="translate(-140 140) rotate(90 0 0)" bzw:type="2" bzw:position="-140 140 0" bzw:size="8 1 5" bzw:rotation="90.000002504478" fill="#04CCFF" stroke-width="0" bzw:zflip="" /><rect x="-8" y="-1" width="16" height="2" transform="translate(140 140) rotate(90 0 0)" bzw:type="2" bzw:position="140 140 0" bzw:size="8 1 5" bzw:rotation="90.000002504478" fill="#04CCFF" stroke-width="0" bzw:zflip="" /><rect x="-8" y="-1" width="16" height="2" transform="translate(140 140) rotate(0 0 0)" bzw:type="2" bzw:position="140 140 0" bzw:size="8 1 5" bzw:rotation="0" fill="#04CCFF" stroke-width="0" bzw:zflip="" /><rect x="-8" y="-1" width="16" height="2" transform="translate(220 -220) rotate(0 0 0)" bzw:type="2" bzw:position="220 -220 0" bzw:size="8 1 5" bzw:rotation="0" fill="#04CCFF" stroke-width="0" bzw:zflip="" /><rect x="-34" y="-34" width="68" height="68" transform="translate(-340 0) rotate(45 0 0)" bzw:type="3" bzw:position="-340 0 26" bzw:size="35 35 4" bzw:rotation="45.000001252239" fill-opacity="0" stroke="#FF0000" stroke-width="2" bzw:team="1" /><rect x="-34" y="-34" width="68" height="68" transform="translate(340 0) rotate(45 0 0)" bzw:type="3" bzw:position="340 0 26" bzw:size="35 35 4" bzw:rotation="45.000001252239" fill-opacity="0" stroke="#00CA00" stroke-width="2" bzw:team="2" /><rect x="-34" y="-34" width="68" height="68" transform="translate(0 -340) rotate(45 0 0)" bzw:type="3" bzw:position="0 -340 26" bzw:size="35 35 4" bzw:rotation="45.000001252239" fill-opacity="0" stroke="#3368ff" stroke-width="2" bzw:team="3" /><rect x="-34" y="-34" width="68" height="68" transform="translate(0 340) rotate(45 0 0)" bzw:type="3" bzw:position="0 340 26" bzw:size="35 35 4" bzw:rotation="45.000001252239" fill-opacity="0" stroke="#FF01FF" stroke-width="2" bzw:team="4" /><rect x="-0.56000000238419" y="-4.4800000190735" width="1.1200000047684" height="8.960000038147" transform="translate(390 -390) rotate(135 0 0)" bzw:type="4" bzw:position="390 -390 30" bzw:size="0.56000000238419 4.4800000190735 15" bzw:rotation="135.00000034162" fill="#FEFF00" stroke="#FEFF00" bzw:name="/t5" bzw:border="1.1200000047684" /><rect x="-0.56000000238419" y="-4.4800000190735" width="1.1200000047684" height="8.960000038147" transform="translate(390 390) rotate(45 0 0)" bzw:type="4" bzw:position="390 390 30" bzw:size="0.56000000238419 4.4800000190735 15" bzw:rotation="45.000001252239" fill="#FEFF00" stroke="#FEFF00" bzw:name="/t1" bzw:border="1.1200000047684" /><rect x="-0.56000000238419" y="-4.4800000190735" width="1.1200000047684" height="8.960000038147" transform="translate(-390 390) rotate(135 0 0)" bzw:type="4" bzw:position="-390 390 30" bzw:size="0.56000000238419 4.4800000190735 15" bzw:rotation="135.00000034162" fill="#FEFF00" stroke="#FEFF00" bzw:name="/t7" bzw:border="1.1200000047684" /><rect x="-0.56000000238419" y="-4.4800000190735" width="1.1200000047684" height="8.960000038147" transform="translate(-390 -390) rotate(45 0 0)" bzw:type="4" bzw:position="-390 -390 30" bzw:size="0.56000000238419 4.4800000190735 15" bzw:rotation="45.000001252239" fill="#FEFF00" stroke="#FEFF00" bzw:name="/t3" bzw:border="1.1200000047684" /><rect x="-0.56000000238419" y="-4.4800000190735" width="1.1200000047684" height="8.960000038147" transform="translate(390 -390) rotate(135 0 0)" bzw:type="4" bzw:position="390 -390 0" bzw:size="0.56000000238419 4.4800000190735 27.700000762939" bzw:rotation="135.00000034162" fill="#FEFF00" stroke="#FEFF00" bzw:name="/t4" bzw:border="1.1200000047684" /><rect x="-0.56000000238419" y="-4.4800000190735" width="1.1200000047684" height="8.960000038147" transform="translate(-390 -390) rotate(45 0 0)" bzw:type="4" bzw:position="-390 -390 0" bzw:size="0.56000000238419 4.4800000190735 27.700000762939" bzw:rotation="45.000001252239" fill="#FEFF00" stroke="#FEFF00" bzw:name="/t2" bzw:border="1.1200000047684" /><rect x="-0.56000000238419" y="-4.4800000190735" width="1.1200000047684" height="8.960000038147" transform="translate(-390 390) rotate(135 0 0)" bzw:type="4" bzw:position="-390 390 0" bzw:size="0.56000000238419 4.4800000190735 27.700000762939" bzw:rotation="135.00000034162" fill="#FEFF00" stroke="#FEFF00" bzw:name="/t6" bzw:border="1.1200000047684" /><rect x="-0.56000000238419" y="-4.4800000190735" width="1.1200000047684" height="8.960000038147" transform="translate(390 390) rotate(45 0 0)" bzw:type="4" bzw:position="390 390 0" bzw:size="0.56000000238419 4.4800000190735 27.700000762939" bzw:rotation="45.000001252239" fill="#FEFF00" stroke="#FEFF00" bzw:name="/t0" bzw:border="1.1200000047684" /></g></svg>