<?xml version="1.0" encoding="utf-8"?><svg width="800px" height="800px" xmlns:bzw="http://schemas.allejo.dev/php/bzflag-rendering" viewBox="0 0 800 800" xmlns="http://www.w3.org/2000/svg" xmlns:xlink="http://www.w3.org/1999/xlink" style="border: 1px solid rgb(0, 204, 255)"><rect x="400" y="400" width="9.6568546295166" height="4" transform="translate(-409.656855 -404.000000) scale(2 2) rotate(-45.000001 404.828427 402.000000)" bzw:type="1" bzw:position="0.00 0.00 29.00" bzw:size="9.66 4.00 16.00" bzw:rotation="45" fill="#04CCFF" /><rect x="400" y="400" width="9.6568546295166" height="4" transform="translate(-409.656855 -404.000000) scale(2 2) rotate(0.000000 404.828427 402.000000)" bzw:type="1" bzw:position="0.00 0.00 29.00" bzw:size="9.66 4.00 16.00" bzw:rotation="0" fill="#04CCFF" /><rect x="400" y="7.5" width="7.5" height="7.5" transform="translate(-407.500000 -15.000000) scale(2 2) rotate(0.000000 403.750000 11.250000)" bzw:type="1" bzw:position="0.00 392.50 29.00" bzw:size="7.50 7.50 16.00" bzw:rotation="0" fill="#04CCFF" /><rect x="400" y="400" width="9.6568546295166" height="4" transform="translate(-409.656855 -404.000000) scale(2 2) rotate(-135.000000 404.828427 402.000000)" bzw:type="1" bzw:position="0.00 0.00 29.00" bzw:size="9.66 4.00 16.00" bzw:rotation="135" fill="#04CCFF" /><rect x="7.5" y="400" width="7.5" height="7.5" transform="translate(-15.000000 -407.500000) scale(2 2) rotate(0.000000 11.250000 403.750000)" bzw:type="1" bzw:position="-392.50 0.00 29.00" bzw:size="7.50 7.50 16.00" bzw:rotation="0" fill="#04CCFF" /><rect x="400" y="400" width="9.6568546295166" height="4" transform="translate(-409.656855 -404.000000) scale(2 2) rotate(-90.000003 404.828427 402.000000)" bzw:type="1" bzw:position="0.00 0.00 29.00" bzw:size="9.66 4.00 16.00" bzw:rotation="90" fill="#04CCFF" /><rect x="400" y="792.5" width="7.5" height="7.5" transform="translate(-407.500000 -800.000000) scale(2 2) rotate(0.000000 403.750000 796.250000)" bzw:type="1" bzw:position="0.00 -392.50 29.00" bzw:size="7.50 7.50 16.00" bzw:rotation="0" fill="#04CCFF" /><rect x="792.5" y="400" width="7.5" height="7.5" transform="translate(-800.000000 -407.500000) scale(2 2) rotate(0.000000 796.250000 403.750000)" bzw:type="1" bzw:position="392.50 0.00 29.00" bzw:size="7.50 7.50 16.00" bzw:rotation="0" fill="#04CCFF" /><rect x="220" y="220" width="0.5" height="150" transform="translate(-220.500000 -370.000000) scale(2 2) rotate(-45.000001 220.250000 295.000000)" bzw:type="1" bzw:position="-180.00 180.00 14.00" bzw:size="0.50 150.00 16.00" bzw:rotation="45" fill="#04CCFF" /><rect x="400" y="7.5" width="7.5" height="400" transform="translate(-407.500000 -407.500000) scale(2 2) rotate(-90.000003 403.750000 207.500000)" bzw:type="1" bzw:position="0.00 392.50 29.00" bzw:size="7.50 400.00 1.00" bzw:rotation="90" fill="#04CCFF" /><rect x="400" y="400" width="4" height="550" transform="translate(-404.000000 -950.000000) scale(2 2) rotate(-45.000001 402.000000 675.000000)" bzw:type="1" bzw:position="0.00 0.00 29.00" bzw:size="4.00 550.00 1.00" bzw:rotation="45" fill="#04CCFF" /><rect x="220" y="580" width="0.5" height="150" transform="translate(-220.500000 -730.000000) scale(2 2) rotate(-135.000000 220.250000 655.000000)" bzw:type="1" bzw:position="-180.00 -180.00 14.00" bzw:size="0.50 150.00 16.00" bzw:rotation="135" fill="#04CCFF" /><rect x="580" y="220" width="0.5" height="150" transform="translate(-580.500000 -370.000000) scale(2 2) rotate(-135.000000 580.250000 295.000000)" bzw:type="1" bzw:position="180.00 180.00 14.00" bzw:size="0.50 150.00 16.00" bzw:rotation="135" fill="#04CCFF" /><rect x="792.5" y="400" width="7.5" height="400" transform="translate(-800.000000 -800.000000) scale(2 2) rotate(0.000000 796.250000 600.000000)" bzw:type="1" bzw:position="392.50 0.00 29.00" bzw:size="7.50 400.00 1.00" bzw:rotation="0" fill="#04CCFF" /><rect x="7.5" y="400" width="7.5" height="400" transform="translate(-15.000000 -800.000000) scale(2 2) rotate(0.000000 11.250000 600.000000)" bzw:type="1" bzw:position="-392.50 0.00 29.00" bzw:size="7.50 400.00 1.00" bzw:rotation="0" fill="#04CCFF" /><rect x="580" y="580" width="0.5" height="150" transform="translate(-580.500000 -730.000000) scale(2 2) rotate(-45.000001 580.250000 655.000000)" bzw:type="1" bzw:position="180.00 -180.00 14.00" bzw:size="0.50 150.00 16.00" bzw:rotation="45" fill="#04CCFF" /><rect x="400" y="792.5" width="7.5" height="400" transform="translate(-407.500000 -1192.500000) scale(2 2) rotate(-90.000003 403.750000 992.500000)" bzw:type="1" bzw:position="0.00 -392.50 29.00" bzw:size="7.50 400.00 1.00" bzw:rotation="90" fill="#04CCFF" /><rect x="400" y="400" width="4" height="550" transform="translate(-404.000000 -950.000000) scale(2 2) rotate(-135.000000 402.000000 675.000000)" bzw:type="1" bzw:position="0.00 0.00 29.00" bzw:size="4.00 550.00 1.00" bzw:rotation="135" fill="#04CCFF" /><rect x="800" y="580" width="30" height="30" transform="translate(-830.000000 -610.000000) scale(2 2) rotate(-45.000001 815.000000 595.000000)" bzw:type="1" bzw:position="400.00 -180.00 0.00" bzw:size="30.00 30.00 15.00" bzw:rotation="45" fill="#04CCFF" /><rect x="580" y="220" width="8" height="107" transform="translate(-588.000000 -327.000000) scale(2 2) rotate(-135.000000 584.000000 273.500000)" bzw:type="1" bzw:position="180.00 180.00 14.00" bzw:size="8.00 107.00 1.00" bzw:rotation="135" fill="#04CCFF" /><rect x="120" y="120" width="30" height="30" transform="translate(-150.000000 -150.000000) scale(2 2) rotate(0.000000 135.000000 135.000000)" bzw:type="1" bzw:position="-280.00 280.00 0.00" bzw:size="30.00 30.00 15.00" bzw:rotation="0" fill="#04CCFF" /><rect x="680" y="680" width="30" height="30" transform="translate(-710.000000 -710.000000) scale(2 2) rotate(0.000000 695.000000 695.000000)" bzw:type="1" bzw:position="280.00 -280.00 0.00" bzw:size="30.00 30.00 15.00" bzw:rotation="0" fill="#04CCFF" /><rect x="580" y="220" width="19.313709259033" height="8" transform="translate(-599.313709 -228.000000) scale(2 2) rotate(0.000000 589.656855 224.000000)" bzw:type="1" bzw:position="180.00 180.00 0.00" bzw:size="19.31 8.00 15.00" bzw:rotation="0" fill="#04CCFF" /><rect x="220" y="220" width="8" height="107" transform="translate(-228.000000 -327.000000) scale(2 2) rotate(-45.000001 224.000000 273.500000)" bzw:type="1" bzw:position="-180.00 180.00 14.00" bzw:size="8.00 107.00 1.00" bzw:rotation="45" fill="#04CCFF" /><rect x="800" y="220" width="30" height="30" transform="translate(-830.000000 -250.000000) scale(2 2) rotate(-45.000001 815.000000 235.000000)" bzw:type="1" bzw:position="400.00 180.00 0.00" bzw:size="30.00 30.00 15.00" bzw:rotation="45" fill="#04CCFF" /><rect x="580" y="580" width="19.313709259033" height="8" transform="translate(-599.313709 -588.000000) scale(2 2) rotate(-90.000003 589.656855 584.000000)" bzw:type="1" bzw:position="180.00 -180.00 0.00" bzw:size="19.31 8.00 15.00" bzw:rotation="90" fill="#04CCFF" /><rect x="400" y="600" width="30" height="30" transform="translate(-430.000000 -630.000000) scale(2 2) rotate(0.000000 415.000000 615.000000)" bzw:type="1" bzw:position="0.00 -200.00 0.00" bzw:size="30.00 30.00 15.00" bzw:rotation="0" fill="#04CCFF" /><rect x="220" y="0" width="30" height="30" transform="translate(-250.000000 -30.000000) scale(2 2) rotate(-45.000001 235.000000 15.000000)" bzw:type="1" bzw:position="-180.00 400.00 0.00" bzw:size="30.00 30.00 15.00" bzw:rotation="45" fill="#04CCFF" /><rect x="220" y="220" width="19.313709259033" height="8" transform="translate(-239.313709 -228.000000) scale(2 2) rotate(-90.000003 229.656855 224.000000)" bzw:type="1" bzw:position="-180.00 180.00 0.00" bzw:size="19.31 8.00 15.00" bzw:rotation="90" fill="#04CCFF" /><rect x="580" y="580" width="19.313709259033" height="8" transform="translate(-599.313709 -588.000000) scale(2 2) rotate(-135.000000 589.656855 584.000000)" bzw:type="1" bzw:position="180.00 -180.00 0.00" bzw:size="19.31 8.00 15.00" bzw:rotation="135" fill="#04CCFF" /><rect x="480" y="480" width="30" height="30" transform="translate(-510.000000 -510.000000) scale(2 2) rotate(0.000000 495.000000 495.000000)" bzw:type="1" bzw:position="80.00 -80.00 0.00" bzw:size="30.00 30.00 15.00" bzw:rotation="0" fill="#04CCFF" /><rect x="220" y="580" width="19.313709259033" height="8" transform="translate(-239.313709 -588.000000) scale(2 2) rotate(0.000000 229.656855 584.000000)" bzw:type="1" bzw:position="-180.00 -180.00 0.00" bzw:size="19.31 8.00 15.00" bzw:rotation="0" fill="#04CCFF" /><rect x="220" y="580" width="8" height="107" transform="translate(-228.000000 -687.000000) scale(2 2) rotate(-135.000000 224.000000 633.500000)" bzw:type="1" bzw:position="-180.00 -180.00 14.00" bzw:size="8.00 107.00 1.00" bzw:rotation="135" fill="#04CCFF" /><rect x="320" y="480" width="30" height="30" transform="translate(-350.000000 -510.000000) scale(2 2) rotate(0.000000 335.000000 495.000000)" bzw:type="1" bzw:position="-80.00 -80.00 0.00" bzw:size="30.00 30.00 15.00" bzw:rotation="0" fill="#04CCFF" /><rect x="580" y="580" width="19.313709259033" height="8" transform="translate(-599.313709 -588.000000) scale(2 2) rotate(0.000000 589.656855 584.000000)" bzw:type="1" bzw:position="180.00 -180.00 0.00" bzw:size="19.31 8.00 15.00" bzw:rotation="0" fill="#04CCFF" /><rect x="580" y="220" width="19.313709259033" height="8" transform="translate(-599.313709 -228.000000) scale(2 2) rotate(-90.000003 589.656855 224.000000)" bzw:type="1" bzw:position="180.00 180.00 0.00" bzw:size="19.31 8.00 15.00" bzw:rotation="90" fill="#04CCFF" /><rect x="220" y="580" width="19.313709259033" height="8" transform="translate(-239.313709 -588.000000) scale(2 2) rotate(-45.000001 229.656855 584.000000)" bzw:type="1" bzw:position="-180.00 -180.00 0.00" bzw:size="19.31 8.00 15.00" bzw:rotation="45" fill="#04CCFF" /><rect x="480" y="320" width="30" height="30" transform="translate(-510.000000 -350.000000) scale(2 2) rotate(0.000000 495.000000 335.000000)" bzw:type="1" bzw:position="80.00 80.00 0.00" bzw:size="30.00 30.00 15.00" bzw:rotation="0" fill="#04CCFF" /><rect x="580" y="220" width="19.313709259033" height="8" transform="translate(-599.313709 -228.000000) scale(2 2) rotate(-45.000001 589.656855 224.000000)" bzw:type="1" bzw:position="180.00 180.00 0.00" bzw:size="19.31 8.00 15.00" bzw:rotation="45" fill="#04CCFF" /><rect x="120" y="680" width="30" height="30" transform="translate(-150.000000 -710.000000) scale(2 2) rotate(0.000000 135.000000 695.000000)" bzw:type="1" bzw:position="-280.00 -280.00 0.00" bzw:size="30.00 30.00 15.00" bzw:rotation="0" fill="#04CCFF" /><rect x="580" y="580" width="8" height="107" transform="translate(-588.000000 -687.000000) scale(2 2) rotate(-45.000001 584.000000 633.500000)" bzw:type="1" bzw:position="180.00 -180.00 14.00" bzw:size="8.00 107.00 1.00" bzw:rotation="45" fill="#04CCFF" /><rect x="320" y="320" width="30" height="30" transform="translate(-350.000000 -350.000000) scale(2 2) rotate(0.000000 335.000000 335.000000)" bzw:type="1" bzw:position="-80.00 80.00 0.00" bzw:size="30.00 30.00 15.00" bzw:rotation="0" fill="#04CCFF" /><rect x="580" y="800" width="30" height="30" transform="translate(-610.000000 -830.000000) scale(2 2) rotate(-45.000001 595.000000 815.000000)" bzw:type="1" bzw:position="180.00 -400.00 0.00" bzw:size="30.00 30.00 15.00" bzw:rotation="45" fill="#04CCFF" /><rect x="200" y="400" width="30" height="30" transform="translate(-230.000000 -430.000000) scale(2 2) rotate(0.000000 215.000000 415.000000)" bzw:type="1" bzw:position="-200.00 0.00 0.00" bzw:size="30.00 30.00 15.00" bzw:rotation="0" fill="#04CCFF" /><rect x="400" y="200" width="30" height="30" transform="translate(-430.000000 -230.000000) scale(2 2) rotate(0.000000 415.000000 215.000000)" bzw:type="1" bzw:position="0.00 200.00 0.00" bzw:size="30.00 30.00 15.00" bzw:rotation="0" fill="#04CCFF" /><rect x="220" y="580" width="19.313709259033" height="8" transform="translate(-239.313709 -588.000000) scale(2 2) rotate(-90.000003 229.656855 584.000000)" bzw:type="1" bzw:position="-180.00 -180.00 0.00" bzw:size="19.31 8.00 15.00" bzw:rotation="90" fill="#04CCFF" /><rect x="580" y="580" width="19.313709259033" height="8" transform="translate(-599.313709 -588.000000) scale(2 2) rotate(-45.000001 589.656855 584.000000)" bzw:type="1" bzw:position="180.00 -180.00 0.00" bzw:size="19.31 8.00 15.00" bzw:rotation="45" fill="#04CCFF" /><rect x="220" y="220" width="19.313709259033" height="8" transform="translate(-239.313709 -228.000000) scale(2 2) rotate(0.000000 229.656855 224.000000)" bzw:type="1" bzw:position="-180.00 180.00 0.00" bzw:size="19.31 8.00 15.00" bzw:rotation="0" fill="#04CCFF" /><rect x="680" y="120" width="30" height="30" transform="translate(-710.000000 -150.000000) scale(2 2) rotate(0.000000 695.000000 135.000000)" bzw:type="1" bzw:position="280.00 280.00 0.00" bzw:size="30.00 30.00 15.00" bzw:rotation="0" fill="#04CCFF" /><rect x="220" y="220" width="19.313709259033" height="8" transform="translate(-239.313709 -228.000000) scale(2 2) rotate(-45.000001 229.656855 224.000000)" bzw:type="1" bzw:position="-180.00 180.00 0.00" bzw:size="19.31 8.00 15.00" bzw:rotation="45" fill="#04CCFF" /><rect x="0" y="220" width="30" height="30" transform="translate(-30.000000 -250.000000) scale(2 2) rotate(-45.000001 15.000000 235.000000)" bzw:type="1" bzw:position="-400.00 180.00 0.00" bzw:size="30.00 30.00 15.00" bzw:rotation="45" fill="#04CCFF" /><rect x="0" y="580" width="30" height="30" transform="translate(-30.000000 -610.000000) scale(2 2) rotate(-45.000001 15.000000 595.000000)" bzw:type="1" bzw:position="-400.00 -180.00 0.00" bzw:size="30.00 30.00 15.00" bzw:rotation="45" fill="#04CCFF" /><rect x="580" y="0" width="30" height="30" transform="translate(-610.000000 -30.000000) scale(2 2) rotate(-45.000001 595.000000 15.000000)" bzw:type="1" bzw:position="180.00 400.00 0.00" bzw:size="30.00 30.00 15.00" bzw:rotation="45" fill="#04CCFF" /><rect x="220" y="800" width="30" height="30" transform="translate(-250.000000 -830.000000) scale(2 2) rotate(-45.000001 235.000000 815.000000)" bzw:type="1" bzw:position="-180.00 -400.00 0.00" bzw:size="30.00 30.00 15.00" bzw:rotation="45" fill="#04CCFF" /><rect x="600" y="400" width="30" height="30" transform="translate(-630.000000 -430.000000) scale(2 2) rotate(0.000000 615.000000 415.000000)" bzw:type="1" bzw:position="200.00 0.00 0.00" bzw:size="30.00 30.00 15.00" bzw:rotation="0" fill="#04CCFF" /><rect x="580" y="220" width="19.313709259033" height="8" transform="translate(-599.313709 -228.000000) scale(2 2) rotate(-135.000000 589.656855 224.000000)" bzw:type="1" bzw:position="180.00 180.00 0.00" bzw:size="19.31 8.00 15.00" bzw:rotation="135" fill="#04CCFF" /><rect x="220" y="580" width="19.313709259033" height="8" transform="translate(-239.313709 -588.000000) scale(2 2) rotate(-135.000000 229.656855 584.000000)" bzw:type="1" bzw:position="-180.00 -180.00 0.00" bzw:size="19.31 8.00 15.00" bzw:rotation="135" fill="#04CCFF" /><rect x="220" y="220" width="19.313709259033" height="8" transform="translate(-239.313709 -228.000000) scale(2 2) rotate(-135.000000 229.656855 224.000000)" bzw:type="1" bzw:position="-180.00 180.00 0.00" bzw:size="19.31 8.00 15.00" bzw:rotation="135" fill="#04CCFF" /><rect x="400" y="400" width="9.6568546295166" height="4" transform="translate(-409.656855 -404.000000) scale(2 2) rotate(0.000000 404.828427 402.000000)" bzw:type="2" bzw:position="0.00 0.00 52.00" bzw:size="9.66 4.00 5.00" bzw:rotation="0" fill="#04CCFF" /><rect x="400" y="400" width="9.6568546295166" height="4" transform="translate(-409.656855 -404.000000) scale(2 2) rotate(-45.000001 404.828427 402.000000)" bzw:type="2" bzw:position="0.00 0.00 52.00" bzw:size="9.66 4.00 5.00" bzw:rotation="45" fill="#04CCFF" /><rect x="400" y="400" width="9.6568546295166" height="4" transform="translate(-409.656855 -404.000000) scale(2 2) rotate(-90.000003 404.828427 402.000000)" bzw:type="2" bzw:position="0.00 0.00 52.00" bzw:size="9.66 4.00 5.00" bzw:rotation="90" fill="#04CCFF" /><rect x="400" y="400" width="9.6568546295166" height="4" transform="translate(-409.656855 -404.000000) scale(2 2) rotate(-135.000000 404.828427 402.000000)" bzw:type="2" bzw:position="0.00 0.00 52.00" bzw:size="9.66 4.00 5.00" bzw:rotation="135" fill="#04CCFF" /><rect x="60" y="355" width="7.5" height="7.5" transform="translate(-67.500000 -362.500000) scale(2 2) rotate(0.000000 63.750000 358.750000)" bzw:type="2" bzw:position="-340.00 45.00 0.00" bzw:size="7.50 7.50 26.00" bzw:rotation="0" fill="#04CCFF" /><rect x="15" y="400" width="7.5" height="7.5" transform="translate(-22.500000 -407.500000) scale(2 2) rotate(0.000000 18.750000 403.750000)" bzw:type="2" bzw:position="-385.00 0.00 0.00" bzw:size="7.50 7.50 26.00" bzw:rotation="0" fill="#04CCFF" /><rect x="355" y="740" width="7.5" height="7.5" transform="translate(-362.500000 -747.500000) scale(2 2) rotate(0.000000 358.750000 743.750000)" bzw:type="2" bzw:position="-45.00 -340.00 0.00" bzw:size="7.50 7.50 26.00" bzw:rotation="0" fill="#04CCFF" /><rect x="695" y="400" width="7.5" height="7.5" transform="translate(-702.500000 -407.500000) scale(2 2) rotate(0.000000 698.750000 403.750000)" bzw:type="2" bzw:position="295.00 0.00 0.00" bzw:size="7.50 7.50 26.00" bzw:rotation="0" fill="#04CCFF" /><rect x="740" y="355" width="7.5" height="7.5" transform="translate(-747.500000 -362.500000) scale(2 2) rotate(0.000000 743.750000 358.750000)" bzw:type="2" bzw:position="340.00 45.00 0.00" bzw:size="7.50 7.50 26.00" bzw:rotation="0" fill="#04CCFF" /><rect x="445" y="740" width="7.5" height="7.5" transform="translate(-452.500000 -747.500000) scale(2 2) rotate(0.000000 448.750000 743.750000)" bzw:type="2" bzw:position="45.00 -340.00 0.00" bzw:size="7.50 7.50 26.00" bzw:rotation="0" fill="#04CCFF" /><rect x="105" y="400" width="7.5" height="7.5" transform="translate(-112.500000 -407.500000) scale(2 2) rotate(0.000000 108.750000 403.750000)" bzw:type="2" bzw:position="-295.00 0.00 0.00" bzw:size="7.50 7.50 26.00" bzw:rotation="0" fill="#04CCFF" /><rect x="740" y="445" width="7.5" height="7.5" transform="translate(-747.500000 -452.500000) scale(2 2) rotate(0.000000 743.750000 448.750000)" bzw:type="2" bzw:position="340.00 -45.00 0.00" bzw:size="7.50 7.50 26.00" bzw:rotation="0" fill="#04CCFF" /><rect x="400" y="15" width="7.5" height="7.5" transform="translate(-407.500000 -22.500000) scale(2 2) rotate(0.000000 403.750000 18.750000)" bzw:type="2" bzw:position="0.00 385.00 0.00" bzw:size="7.50 7.50 26.00" bzw:rotation="0" fill="#04CCFF" /><rect x="785" y="400" width="7.5" height="7.5" transform="translate(-792.500000 -407.500000) scale(2 2) rotate(0.000000 788.750000 403.750000)" bzw:type="2" bzw:position="385.00 0.00 0.00" bzw:size="7.50 7.50 26.00" bzw:rotation="0" fill="#04CCFF" /><rect x="445" y="60" width="7.5" height="7.5" transform="translate(-452.500000 -67.500000) scale(2 2) rotate(0.000000 448.750000 63.750000)" bzw:type="2" bzw:position="45.00 340.00 0.00" bzw:size="7.50 7.50 26.00" bzw:rotation="0" fill="#04CCFF" /><rect x="60" y="445" width="7.5" height="7.5" transform="translate(-67.500000 -452.500000) scale(2 2) rotate(0.000000 63.750000 448.750000)" bzw:type="2" bzw:position="-340.00 -45.00 0.00" bzw:size="7.50 7.50 26.00" bzw:rotation="0" fill="#04CCFF" /><rect x="400" y="105" width="7.5" height="7.5" transform="translate(-407.500000 -112.500000) scale(2 2) rotate(0.000000 403.750000 108.750000)" bzw:type="2" bzw:position="0.00 295.00 0.00" bzw:size="7.50 7.50 26.00" bzw:rotation="0" fill="#04CCFF" /><rect x="355" y="60" width="7.5" height="7.5" transform="translate(-362.500000 -67.500000) scale(2 2) rotate(0.000000 358.750000 63.750000)" bzw:type="2" bzw:position="-45.00 340.00 0.00" bzw:size="7.50 7.50 26.00" bzw:rotation="0" fill="#04CCFF" /><rect x="400" y="785" width="7.5" height="7.5" transform="translate(-407.500000 -792.500000) scale(2 2) rotate(0.000000 403.750000 788.750000)" bzw:type="2" bzw:position="0.00 -385.00 0.00" bzw:size="7.50 7.50 26.00" bzw:rotation="0" fill="#04CCFF" /><rect x="400" y="695" width="7.5" height="7.5" transform="translate(-407.500000 -702.500000) scale(2 2) rotate(0.000000 403.750000 698.750000)" bzw:type="2" bzw:position="0.00 -295.00 0.00" bzw:size="7.50 7.50 26.00" bzw:rotation="0" fill="#04CCFF" /><rect x="180" y="180" width="2" height="2" transform="translate(-182.000000 -182.000000) scale(2 2) rotate(-45.000001 181.000000 181.000000)" bzw:type="2" bzw:position="-220.00 220.00 0.00" bzw:size="2.00 2.00 18.00" bzw:rotation="45" fill="#04CCFF" /><rect x="540" y="540" width="2" height="2" transform="translate(-542.000000 -542.000000) scale(2 2) rotate(-45.000001 541.000000 541.000000)" bzw:type="2" bzw:position="140.00 -140.00 0.00" bzw:size="2.00 2.00 18.00" bzw:rotation="45" fill="#04CCFF" /><rect x="180" y="620" width="2" height="2" transform="translate(-182.000000 -622.000000) scale(2 2) rotate(-45.000001 181.000000 621.000000)" bzw:type="2" bzw:position="-220.00 -220.00 0.00" bzw:size="2.00 2.00 18.00" bzw:rotation="45" fill="#04CCFF" /><rect x="620" y="180" width="2" height="2" transform="translate(-622.000000 -182.000000) scale(2 2) rotate(-45.000001 621.000000 181.000000)" bzw:type="2" bzw:position="220.00 220.00 0.00" bzw:size="2.00 2.00 18.00" bzw:rotation="45" fill="#04CCFF" /><rect x="620" y="620" width="2" height="2" transform="translate(-622.000000 -622.000000) scale(2 2) rotate(-45.000001 621.000000 621.000000)" bzw:type="2" bzw:position="220.00 -220.00 0.00" bzw:size="2.00 2.00 18.00" bzw:rotation="45" fill="#04CCFF" /><rect x="540" y="260" width="2" height="2" transform="translate(-542.000000 -262.000000) scale(2 2) rotate(-45.000001 541.000000 261.000000)" bzw:type="2" bzw:position="140.00 140.00 0.00" bzw:size="2.00 2.00 18.00" bzw:rotation="45" fill="#04CCFF" /><rect x="260" y="540" width="2" height="2" transform="translate(-262.000000 -542.000000) scale(2 2) rotate(-45.000001 261.000000 541.000000)" bzw:type="2" bzw:position="-140.00 -140.00 0.00" bzw:size="2.00 2.00 18.00" bzw:rotation="45" fill="#04CCFF" /><rect x="260" y="260" width="2" height="2" transform="translate(-262.000000 -262.000000) scale(2 2) rotate(-45.000001 261.000000 261.000000)" bzw:type="2" bzw:position="-140.00 140.00 0.00" bzw:size="2.00 2.00 18.00" bzw:rotation="45" fill="#04CCFF" /><rect x="260" y="540" width="8" height="0.5" transform="translate(-268.000000 -540.500000) scale(2 2) rotate(-90.000003 264.000000 540.250000)" bzw:type="2" bzw:position="-140.00 -140.00 12.00" bzw:size="8.00 0.50 2.00" bzw:rotation="90" fill="#04CCFF" /><rect x="540" y="540" width="8" height="0.5" transform="translate(-548.000000 -540.500000) scale(2 2) rotate(0.000000 544.000000 540.250000)" bzw:type="2" bzw:position="140.00 -140.00 12.00" bzw:size="8.00 0.50 2.00" bzw:rotation="0" fill="#04CCFF" /><rect x="260" y="260" width="8" height="0.5" transform="translate(-268.000000 -260.500000) scale(2 2) rotate(-90.000003 264.000000 260.250000)" bzw:type="2" bzw:position="-140.00 140.00 12.00" bzw:size="8.00 0.50 2.00" bzw:rotation="90" fill="#04CCFF" /><rect x="620" y="620" width="8" height="0.5" transform="translate(-628.000000 -620.500000) scale(2 2) rotate(-90.000003 624.000000 620.250000)" bzw:type="2" bzw:position="220.00 -220.00 12.00" bzw:size="8.00 0.50 2.00" bzw:rotation="90" fill="#04CCFF" /><rect x="180" y="180" width="8" height="0.5" transform="translate(-188.000000 -180.500000) scale(2 2) rotate(0.000000 184.000000 180.250000)" bzw:type="2" bzw:position="-220.00 220.00 12.00" bzw:size="8.00 0.50 2.00" bzw:rotation="0" fill="#04CCFF" /><rect x="620" y="180" width="8" height="0.5" transform="translate(-628.000000 -180.500000) scale(2 2) rotate(0.000000 624.000000 180.250000)" bzw:type="2" bzw:position="220.00 220.00 12.00" bzw:size="8.00 0.50 2.00" bzw:rotation="0" fill="#04CCFF" /><rect x="540" y="260" width="8" height="0.5" transform="translate(-548.000000 -260.500000) scale(2 2) rotate(0.000000 544.000000 260.250000)" bzw:type="2" bzw:position="140.00 140.00 12.00" bzw:size="8.00 0.50 2.00" bzw:rotation="0" fill="#04CCFF" /><rect x="260" y="540" width="8" height="0.5" transform="translate(-268.000000 -540.500000) scale(2 2) rotate(0.000000 264.000000 540.250000)" bzw:type="2" bzw:position="-140.00 -140.00 12.00" bzw:size="8.00 0.50 2.00" bzw:rotation="0" fill="#04CCFF" /><rect x="620" y="180" width="8" height="0.5" transform="translate(-628.000000 -180.500000) scale(2 2) rotate(-90.000003 624.000000 180.250000)" bzw:type="2" bzw:position="220.00 220.00 12.00" bzw:size="8.00 0.50 2.00" bzw:rotation="90" fill="#04CCFF" /><rect x="260" y="260" width="8" height="0.5" transform="translate(-268.000000 -260.500000) scale(2 2) rotate(0.000000 264.000000 260.250000)" bzw:type="2" bzw:position="-140.00 140.00 12.00" bzw:size="8.00 0.50 2.00" bzw:rotation="0" fill="#04CCFF" /><rect x="180" y="180" width="8" height="0.5" transform="translate(-188.000000 -180.500000) scale(2 2) rotate(-90.000003 184.000000 180.250000)" bzw:type="2" bzw:position="-220.00 220.00 12.00" bzw:size="8.00 0.50 2.00" bzw:rotation="90" fill="#04CCFF" /><rect x="180" y="620" width="8" height="0.5" transform="translate(-188.000000 -620.500000) scale(2 2) rotate(-90.000003 184.000000 620.250000)" bzw:type="2" bzw:position="-220.00 -220.00 12.00" bzw:size="8.00 0.50 2.00" bzw:rotation="90" fill="#04CCFF" /><rect x="620" y="620" width="8" height="0.5" transform="translate(-628.000000 -620.500000) scale(2 2) rotate(0.000000 624.000000 620.250000)" bzw:type="2" bzw:position="220.00 -220.00 12.00" bzw:size="8.00 0.50 2.00" bzw:rotation="0" fill="#04CCFF" /><rect x="540" y="260" width="8" height="0.5" transform="translate(-548.000000 -260.500000) scale(2 2) rotate(-90.000003 544.000000 260.250000)" bzw:type="2" bzw:position="140.00 140.00 12.00" bzw:size="8.00 0.50 2.00" bzw:rotation="90" fill="#04CCFF" /><rect x="180" y="620" width="8" height="0.5" transform="translate(-188.000000 -620.500000) scale(2 2) rotate(0.000000 184.000000 620.250000)" bzw:type="2" bzw:position="-220.00 -220.00 12.00" bzw:size="8.00 0.50 2.00" bzw:rotation="0" fill="#04CCFF" /><rect x="540" y="540" width="8" height="0.5" transform="translate(-548.000000 -540.500000) scale(2 2) rotate(-90.000003 544.000000 540.250000)" bzw:type="2" bzw:position="140.00 -140.00 12.00" bzw:size="8.00 0.50 2.00" bzw:rotation="90" fill="#04CCFF" /><rect x="260" y="260" width="8" height="1" transform="translate(-268.000000 -261.000000) scale(2 2) rotate(0.000000 264.000000 260.500000)" bzw:type="2" bzw:position="-140.00 140.00 0.00" bzw:size="8.00 1.00 5.00" bzw:rotation="0" fill="#04CCFF" /><rect x="180" y="620" width="8" height="1" transform="translate(-188.000000 -621.000000) scale(2 2) rotate(-90.000003 184.000000 620.500000)" bzw:type="2" bzw:position="-220.00 -220.00 0.00" bzw:size="8.00 1.00 5.00" bzw:rotation="90" fill="#04CCFF" /><rect x="620" y="620" width="8" height="1" transform="translate(-628.000000 -621.000000) scale(2 2) rotate(-90.000003 624.000000 620.500000)" bzw:type="2" bzw:position="220.00 -220.00 0.00" bzw:size="8.00 1.00 5.00" bzw:rotation="90" fill="#04CCFF" /><rect x="620" y="180" width="8" height="1" transform="translate(-628.000000 -181.000000) scale(2 2) rotate(0.000000 624.000000 180.500000)" bzw:type="2" bzw:position="220.00 220.00 0.00" bzw:size="8.00 1.00 5.00" bzw:rotation="0" fill="#04CCFF" /><rect x="260" y="540" width="8" height="1" transform="translate(-268.000000 -541.000000) scale(2 2) rotate(-90.000003 264.000000 540.500000)" bzw:type="2" bzw:position="-140.00 -140.00 0.00" bzw:size="8.00 1.00 5.00" bzw:rotation="90" fill="#04CCFF" /><rect x="260" y="540" width="8" height="1" transform="translate(-268.000000 -541.000000) scale(2 2) rotate(0.000000 264.000000 540.500000)" bzw:type="2" bzw:position="-140.00 -140.00 0.00" bzw:size="8.00 1.00 5.00" bzw:rotation="0" fill="#04CCFF" /><rect x="540" y="540" width="8" height="1" transform="translate(-548.000000 -541.000000) scale(2 2) rotate(-90.000003 544.000000 540.500000)" bzw:type="2" bzw:position="140.00 -140.00 0.00" bzw:size="8.00 1.00 5.00" bzw:rotation="90" fill="#04CCFF" /><rect x="540" y="540" width="8" height="1" transform="translate(-548.000000 -541.000000) scale(2 2) rotate(0.000000 544.000000 540.500000)" bzw:type="2" bzw:position="140.00 -140.00 0.00" bzw:size="8.00 1.00 5.00" bzw:rotation="0" fill="#04CCFF" /><rect x="620" y="180" width="8" height="1" transform="translate(-628.000000 -181.000000) scale(2 2) rotate(-90.000003 624.000000 180.500000)" bzw:type="2" bzw:position="220.00 220.00 0.00" bzw:size="8.00 1.00 5.00" bzw:rotation="90" fill="#04CCFF" /><rect x="180" y="620" width="8" height="1" transform="translate(-188.000000 -621.000000) scale(2 2) rotate(0.000000 184.000000 620.500000)" bzw:type="2" bzw:position="-220.00 -220.00 0.00" bzw:size="8.00 1.00 5.00" bzw:rotation="0" fill="#04CCFF" /><rect x="180" y="180" width="8" height="1" transform="translate(-188.000000 -181.000000) scale(2 2) rotate(-90.000003 184.000000 180.500000)" bzw:type="2" bzw:position="-220.00 220.00 0.00" bzw:size="8.00 1.00 5.00" bzw:rotation="90" fill="#04CCFF" /><rect x="180" y="180" width="8" height="1" transform="translate(-188.000000 -181.000000) scale(2 2) rotate(0.000000 184.000000 180.500000)" bzw:type="2" bzw:position="-220.00 220.00 0.00" bzw:size="8.00 1.00 5.00" bzw:rotation="0" fill="#04CCFF" /><rect x="260" y="260" width="8" height="1" transform="translate(-268.000000 -261.000000) scale(2 2) rotate(-90.000003 264.000000 260.500000)" bzw:type="2" bzw:position="-140.00 140.00 0.00" bzw:size="8.00 1.00 5.00" bzw:rotation="90" fill="#04CCFF" /><rect x="540" y="260" width="8" height="1" transform="translate(-548.000000 -261.000000) scale(2 2) rotate(-90.000003 544.000000 260.500000)" bzw:type="2" bzw:position="140.00 140.00 0.00" bzw:size="8.00 1.00 5.00" bzw:rotation="90" fill="#04CCFF" /><rect x="540" y="260" width="8" height="1" transform="translate(-548.000000 -261.000000) scale(2 2) rotate(0.000000 544.000000 260.500000)" bzw:type="2" bzw:position="140.00 140.00 0.00" bzw:size="8.00 1.00 5.00" bzw:rotation="0" fill="#04CCFF" /><rect x="620" y="620" width="8" height="1" transform="translate(-628.000000 -621.000000) scale(2 2) rotate(0.000000 624.000000 620.500000)" bzw:type="2" bzw:position="220.00 -220.00 0.00" bzw:size="8.00 1.00 5.00" bzw:rotation="0" fill="#04CCFF" /><rect x="60" y="400" width="35" height="35" transform="translate(-95.000000 -435.000000) scale(2 2) rotate(-45.000001 77.500000 417.500000)" bzw:type="3" bzw:position="-340.00 0.00 26.00" bzw:size="35.00 35.00 4.00" bzw:rotation="45" fill-opacity="0" stroke="#FF0000" bzw:team="1" /><rect x="740" y="400" width="35" height="35" transform="translate(-775.000000 -435.000000) scale(2 2) rotate(-45.000001 757.500000 417.500000)" bzw:type="3" bzw:position="340.00 0.00 26.00" bzw:size="35.00 35.00 4.00" bzw:rotation="45" fill-opacity="0" stroke="#00CA00" bzw:team="2" /><rect x="400" y="740" width="35" height="35" transform="translate(-435.000000 -775.000000) scale(2 2) rotate(-45.000001 417.500000 757.500000)" bzw:type="3" bzw:position="0.00 -340.00 26.00" bzw:size="35.00 35.00 4.00" bzw:rotation="45" fill-opacity="0" stroke="#3368ff" bzw:team="3" /><rect x="400" y="60" width="35" height="35" transform="translate(-435.000000 -95.000000) scale(2 2) rotate(-45.000001 417.500000 77.500000)" bzw:type="3" bzw:position="0.00 340.00 26.00" bzw:size="35.00 35.00 4.00" bzw:rotation="45" fill-opacity="0" stroke="#FF01FF" bzw:team="4" /><rect x="790" y="790" width="0.56000000238419" height="4.4800000190735" transform="translate(-790.560000 -794.480000) scale(2 2) rotate(-135.000000 790.280000 792.240000)" bzw:type="4" bzw:position="390.00 -390.00 30.00" bzw:size="0.56 4.48 15.00" bzw:rotation="135" stroke="yellow" /><rect x="790" y="10" width="0.56000000238419" height="4.4800000190735" transform="translate(-790.560000 -14.480000) scale(2 2) rotate(-45.000001 790.280000 12.240000)" bzw:type="4" bzw:position="390.00 390.00 30.00" bzw:size="0.56 4.48 15.00" bzw:rotation="45" stroke="yellow" /><rect x="10" y="10" width="0.56000000238419" height="4.4800000190735" transform="translate(-10.560000 -14.480000) scale(2 2) rotate(-135.000000 10.280000 12.240000)" bzw:type="4" bzw:position="-390.00 390.00 30.00" bzw:size="0.56 4.48 15.00" bzw:rotation="135" stroke="yellow" /><rect x="10" y="790" width="0.56000000238419" height="4.4800000190735" transform="translate(-10.560000 -794.480000) scale(2 2) rotate(-45.000001 10.280000 792.240000)" bzw:type="4" bzw:position="-390.00 -390.00 30.00" bzw:size="0.56 4.48 15.00" bzw:rotation="45" stroke="yellow" /><rect x="790" y="790" width="0.56000000238419" height="4.4800000190735" transform="translate(-790.560000 -794.480000) scale(2 2) rotate(-135.000000 790.280000 792.240000)" bzw:type="4" bzw:position="390.00 -390.00 0.00" bzw:size="0.56 4.48 27.70" bzw:rotation="135" stroke="yellow" /><rect x="10" y="790" width="0.56000000238419" height="4.4800000190735" transform="translate(-10.560000 -794.480000) scale(2 2) rotate(-45.000001 10.280000 792.240000)" bzw:type="4" bzw:position="-390.00 -390.00 0.00" bzw:size="0.56 4.48 27.70" bzw:rotation="45" stroke="yellow" /><rect x="10" y="10" width="0.56000000238419" height="4.4800000190735" transform="translate(-10.560000 -14.480000) scale(2 2) rotate(-135.000000 10.280000 12.240000)" bzw:type="4" bzw:position="-390.00 390.00 0.00" bzw:size="0.56 4.48 27.70" bzw:rotation="135" stroke="yellow" /><rect x="790" y="10" width="0.56000000238419" height="4.4800000190735" transform="translate(-790.560000 -14.480000) scale(2 2) rotate(-45.000001 790.280000 12.240000)" bzw:type="4" bzw:position="390.00 390.00 0.00" bzw:size="0.56 4.48 27.70" bzw:rotation="45" stroke="yellow" /></svg>