<?xml version="1.0" encoding="utf-8"?><svg width="600px" height="600px" viewBox="-300 -300 600 600" xmlns="http://www.w3.org/2000/svg" xmlns:xlink="http://www.w3.org/1999/xlink" style="border: 1px solid #04CCFF"><g transform="scale(1, -1)"><rect x="-51" y="-1" width="102" height="2" transform="translate(0 0) rotate(0 0 0)" fill="#04CCFF" /><g transform=""><rect x="-1" y="-24.5" width="2" height="49" transform="translate(0 25.5) rotate(0 0 0)" fill="#04CCFF" /><rect x="-1" y="-24.5" width="2" height="49" transform="translate(0 25.5) rotate(0 0 0)" fill="#04CCFF" /><rect x="-25.5" y="-1" width="51" height="2" transform="translate(25.5 0) rotate(0 0 0)" fill="#04CCFF" /><rect x="-20" y="-20" width="40" height="40" transform="translate(280 280) rotate(0 0 0)" fill-opacity="0" stroke="#FF0000" stroke-width="2" /><g transform="translate(220 220)"><g transform="translate(0 0)"><rect x="-5" y="-5" width="10" height="10" transform="translate(0 0) rotate(0 0 0)" fill="#04CCFF" /><rect x="-5" y="-5" width="10" height="10" transform="translate(0 0) rotate(0 0 0)" fill="#04CCFF" /></g><g transform="translate(37.5 0)"><g transform="translate(-12.5 0)"><rect x="-5" y="-5" width="10" height="10" transform="translate(0 0) rotate(0 0 0)" fill="#04CCFF" /><rect x="-5" y="-5" width="10" height="10" transform="translate(0 0) rotate(0 0 0)" fill="#04CCFF" /></g><g transform="translate(12.5 0)"><rect x="-5" y="-5" width="10" height="10" transform="translate(0 0) rotate(0 0 0)" fill="#04CCFF" /><rect x="-5" y="-5" width="10" height="10" transform="translate(0 0) rotate(0 0 0)" fill="#04CCFF" /></g></g><g transform="translate(0 37.5) rotate(90)"><g transform="translate(-12.5 0)"><rect x="-5" y="-5" width="10" height="10" transform="translate(0 0) rotate(0 0 0)" fill="#04CCFF" /><rect x="-5" y="-5" width="10" height="10" transform="translate(0 0) rotate(0 0 0)" fill="#04CCFF" /></g><g transform="translate(12.5 0)"><rect x="-5" y="-5" width="10" height="10" transform="translate(0 0) rotate(0 0 0)" fill="#04CCFF" /><rect x="-5" y="-5" width="10" height="10" transform="translate(0 0) rotate(0 0 0)" fill="#04CCFF" /></g></g><g transform="translate(25 -23.8)"><g transform="translate(-25 0)"><g transform="translate(-12.5 0)"><rect x="-5" y="-5" width="10" height="10" transform="translate(0 0) rotate(0 0 0)" fill="#04CCFF" /><rect x="-5" y="-5" width="10" height="10" transform="translate(0 0) rotate(0 0 0)" fill="#04CCFF" /></g><g transform="translate(12.5 0)"><rect x="-5" y="-5" width="10" height="10" transform="translate(0 0) rotate(0 0 0)" fill="#04CCFF" /><rect x="-5" y="-5" width="10" height="10" transform="translate(0 0) rotate(0 0 0)" fill="#04CCFF" /></g></g><g transform="translate(25 0)"><g transform="translate(-12.5 0)"><rect x="-5" y="-5" width="10" height="10" transform="translate(0 0) rotate(0 0 0)" fill="#04CCFF" /><rect x="-5" y="-5" width="10" height="10" transform="translate(0 0) rotate(0 0 0)" fill="#04CCFF" /></g><g transform="translate(12.5 0)"><rect x="-5" y="-5" width="10" height="10" transform="translate(0 0) rotate(0 0 0)" fill="#04CCFF" /><rect x="-5" y="-5" width="10" height="10" transform="translate(0 0) rotate(0 0 0)" fill="#04CCFF" /></g></g></g><g transform="translate(-23.8 25) rotate(90)"><g transform="translate(-25 0)"><g transform="translate(-12.5 0)"><rect x="-5" y="-5" width="10" height="10" transform="translate(0 0) rotate(0 0 0)" fill="#04CCFF" /><rect x="-5" y="-5" width="10" height="10" transform="translate(0 0) rotate(0 0 0)" fill="#04CCFF" /></g><g transform="translate(12.5 0)"><rect x="-5" y="-5" width="10" height="10" transform="translate(0 0) rotate(0 0 0)" fill="#04CCFF" /><rect x="-5" y="-5" width="10" height="10" transform="translate(0 0) rotate(0 0 0)" fill="#04CCFF" /></g></g><g transform="translate(25 0)"><g transform="translate(-12.5 0)"><rect x="-5" y="-5" width="10" height="10" transform="translate(0 0) rotate(0 0 0)" fill="#04CCFF" /><rect x="-5" y="-5" width="10" height="10" transform="translate(0 0) rotate(0 0 0)" fill="#04CCFF" /></g><g transform="translate(12.5 0)"><rect x="-5" y="-5" width="10" height="10" transform="translate(0 0) rotate(0 0 0)" fill="#04CCFF" /><rect x="-5" y="-5" width="10" height="10" transform="translate(0 0) rotate(0 0 0)" fill="#04CCFF" /></g></g></g></g><g transform="translate(164 0)"><g transform="translate(0 12.5)"><g transform="translate(-50 0)"><rect x="-10" y="-10" width="20" height="20" transform="translate(0 0) rotate(45 0 0)" fill="#04CCFF" /><rect x="-10" y="-10" width="20" height="20" transform="translate(0 0) rotate(45 0 0)" fill="#04CCFF" /></g><g transform="translate(50 0)"><rect x="-10" y="-10" width="20" height="20" transform="translate(0 0) rotate(45 0 0)" fill="#04CCFF" /><rect x="-10" y="-10" width="20" height="20" transform="translate(0 0) rotate(45 0 0)" fill="#04CCFF" /></g></g><g transform="translate(-100 -12.5)"><rect x="-10" y="-10" width="20" height="20" transform="translate(0 0) rotate(45 0 0)" fill="#04CCFF" /><rect x="-10" y="-10" width="20" height="20" transform="translate(0 0) rotate(45 0 0)" fill="#04CCFF" /></g><g transform="translate(50 -12.5)"><g transform="translate(-50 0)"><rect x="-10" y="-10" width="20" height="20" transform="translate(0 0) rotate(45 0 0)" fill="#04CCFF" /><rect x="-10" y="-10" width="20" height="20" transform="translate(0 0) rotate(45 0 0)" fill="#04CCFF" /></g><g transform="translate(50 0)"><rect x="-10" y="-10" width="20" height="20" transform="translate(0 0) rotate(45 0 0)" fill="#04CCFF" /><rect x="-10" y="-10" width="20" height="20" transform="translate(0 0) rotate(45 0 0)" fill="#04CCFF" /></g></g></g><g transform="translate(0 186) rotate(90)"><g transform="translate(0 12.5)"><g transform="translate(-50 0)"><rect x="-10" y="-10" width="20" height="20" transform="translate(0 0) rotate(45 0 0)" fill="#04CCFF" /><rect x="-10" y="-10" width="20" height="20" transform="translate(0 0) rotate(45 0 0)" fill="#04CCFF" /></g><g transform="translate(50 0)"><rect x="-10" y="-10" width="20" height="20" transform="translate(0 0) rotate(45 0 0)" fill="#04CCFF" /><rect x="-10" y="-10" width="20" height="20" transform="translate(0 0) rotate(45 0 0)" fill="#04CCFF" /></g></g><g transform="translate(-100 -12.5)"><rect x="-10" y="-10" width="20" height="20" transform="translate(0 0) rotate(45 0 0)" fill="#04CCFF" /><rect x="-10" y="-10" width="20" height="20" transform="translate(0 0) rotate(45 0 0)" fill="#04CCFF" /></g><g transform="translate(50 -12.5)"><g transform="translate(-50 0)"><rect x="-10" y="-10" width="20" height="20" transform="translate(0 0) rotate(45 0 0)" fill="#04CCFF" /><rect x="-10" y="-10" width="20" height="20" transform="translate(0 0) rotate(45 0 0)" fill="#04CCFF" /></g><g transform="translate(50 0)"><rect x="-10" y="-10" width="20" height="20" transform="translate(0 0) rotate(45 0 0)" fill="#04CCFF" /><rect x="-10" y="-10" width="20" height="20" transform="translate(0 0) rotate(45 0 0)" fill="#04CCFF" /></g></g></g><g transform="translate(-175 220) scale(0.75 0.75)"><rect x="-20" y="-3" width="40" height="6" transform="translate(-8 -26) rotate(0 0 0)" fill="#04CCFF" /><rect x="-3" y="-23" width="6" height="46" transform="translate(-25 0) rotate(0 0 0)" fill="#04CCFF" /><rect x="-28" y="-3" width="56" height="6" transform="translate(0 26) rotate(0 0 0)" fill="#04CCFF" /><rect x="-3" y="-17.5" width="6" height="35" transform="translate(25 5.5) rotate(0 0 0)" fill="#04CCFF" /><rect x="-20" y="-3" width="40" height="6" transform="translate(-8 -26) rotate(0 0 0)" fill="#04CCFF" /><rect x="-3" y="-23" width="6" height="46" transform="translate(-25 0) rotate(0 0 0)" fill="#04CCFF" /><rect x="-28" y="-3" width="56" height="6" transform="translate(0 26) rotate(0 0 0)" fill="#04CCFF" /><rect x="-3" y="-17.5" width="6" height="35" transform="translate(25 5.5) rotate(0 0 0)" fill="#04CCFF" /></g></g><g transform="rotate(180)"><rect x="-1" y="-24.5" width="2" height="49" transform="translate(0 25.5) rotate(0 0 0)" fill="#04CCFF" /><rect x="-1" y="-24.5" width="2" height="49" transform="translate(0 25.5) rotate(0 0 0)" fill="#04CCFF" /><rect x="-25.5" y="-1" width="51" height="2" transform="translate(25.5 0) rotate(0 0 0)" fill="#04CCFF" /><rect x="-20" y="-20" width="40" height="40" transform="translate(280 280) rotate(0 0 0)" fill-opacity="0" stroke="#00CA00" stroke-width="2" /><g transform="translate(220 220)"><g transform="translate(0 0)"><rect x="-5" y="-5" width="10" height="10" transform="translate(0 0) rotate(0 0 0)" fill="#04CCFF" /><rect x="-5" y="-5" width="10" height="10" transform="translate(0 0) rotate(0 0 0)" fill="#04CCFF" /></g><g transform="translate(37.5 0)"><g transform="translate(-12.5 0)"><rect x="-5" y="-5" width="10" height="10" transform="translate(0 0) rotate(0 0 0)" fill="#04CCFF" /><rect x="-5" y="-5" width="10" height="10" transform="translate(0 0) rotate(0 0 0)" fill="#04CCFF" /></g><g transform="translate(12.5 0)"><rect x="-5" y="-5" width="10" height="10" transform="translate(0 0) rotate(0 0 0)" fill="#04CCFF" /><rect x="-5" y="-5" width="10" height="10" transform="translate(0 0) rotate(0 0 0)" fill="#04CCFF" /></g></g><g transform="translate(0 37.5) rotate(90)"><g transform="translate(-12.5 0)"><rect x="-5" y="-5" width="10" height="10" transform="translate(0 0) rotate(0 0 0)" fill="#04CCFF" /><rect x="-5" y="-5" width="10" height="10" transform="translate(0 0) rotate(0 0 0)" fill="#04CCFF" /></g><g transform="translate(12.5 0)"><rect x="-5" y="-5" width="10" height="10" transform="translate(0 0) rotate(0 0 0)" fill="#04CCFF" /><rect x="-5" y="-5" width="10" height="10" transform="translate(0 0) rotate(0 0 0)" fill="#04CCFF" /></g></g><g transform="translate(25 -23.8)"><g transform="translate(-25 0)"><g transform="translate(-12.5 0)"><rect x="-5" y="-5" width="10" height="10" transform="translate(0 0) rotate(0 0 0)" fill="#04CCFF" /><rect x="-5" y="-5" width="10" height="10" transform="translate(0 0) rotate(0 0 0)" fill="#04CCFF" /></g><g transform="translate(12.5 0)"><rect x="-5" y="-5" width="10" height="10" transform="translate(0 0) rotate(0 0 0)" fill="#04CCFF" /><rect x="-5" y="-5" width="10" height="10" transform="translate(0 0) rotate(0 0 0)" fill="#04CCFF" /></g></g><g transform="translate(25 0)"><g transform="translate(-12.5 0)"><rect x="-5" y="-5" width="10" height="10" transform="translate(0 0) rotate(0 0 0)" fill="#04CCFF" /><rect x="-5" y="-5" width="10" height="10" transform="translate(0 0) rotate(0 0 0)" fill="#04CCFF" /></g><g transform="translate(12.5 0)"><rect x="-5" y="-5" width="10" height="10" transform="translate(0 0) rotate(0 0 0)" fill="#04CCFF" /><rect x="-5" y="-5" width="10" height="10" transform="translate(0 0) rotate(0 0 0)" fill="#04CCFF" /></g></g></g><g transform="translate(-23.8 25) rotate(90)"><g transform="translate(-25 0)"><g transform="translate(-12.5 0)"><rect x="-5" y="-5" width="10" height="10" transform="translate(0 0) rotate(0 0 0)" fill="#04CCFF" /><rect x="-5" y="-5" width="10" height="10" transform="translate(0 0) rotate(0 0 0)" fill="#04CCFF" /></g><g transform="translate(12.5 0)"><rect x="-5" y="-5" width="10" height="10" transform="translate(0 0) rotate(0 0 0)" fill="#04CCFF" /><rect x="-5" y="-5" width="10" height="10" transform="translate(0 0) rotate(0 0 0)" fill="#04CCFF" /></g></g><g transform="translate(25 0)"><g transform="translate(-12.5 0)"><rect x="-5" y="-5" width="10" height="10" transform="translate(0 0) rotate(0 0 0)" fill="#04CCFF" /><rect x="-5" y="-5" width="10" height="10" transform="translate(0 0) rotate(0 0 0)" fill="#04CCFF" /></g><g transform="translate(12.5 0)"><rect x="-5" y="-5" width="10" height="10" transform="translate(0 0) rotate(0 0 0)" fill="#04CCFF" /><rect x="-5" y="-5" width="10" height="10" transform="translate(0 0) rotate(0 0 0)" fill="#04CCFF" /></g></g></g></g><g transform="translate(164 0)"><g transform="translate(0 12.5)"><g transform="translate(-50 0)"><rect x="-10" y="-10" width="20" height="20" transform="translate(0 0) rotate(45 0 0)" fill="#04CCFF" /><rect x="-10" y="-10" width="20" height="20" transform="translate(0 0) rotate(45 0 0)" fill="#04CCFF" /></g><g transform="translate(50 0)"><rect x="-10" y="-10" width="20" height="20" transform="translate(0 0) rotate(45 0 0)" fill="#04CCFF" /><rect x="-10" y="-10" width="20" height="20" transform="translate(0 0) rotate(45 0 0)" fill="#04CCFF" /></g></g><g transform="translate(-100 -12.5)"><rect x="-10" y="-10" width="20" height="20" transform="translate(0 0) rotate(45 0 0)" fill="#04CCFF" /><rect x="-10" y="-10" width="20" height="20" transform="translate(0 0) rotate(45 0 0)" fill="#04CCFF" /></g><g transform="translate(50 -12.5)"><g transform="translate(-50 0)"><rect x="-10" y="-10" width="20" height="20" transform="translate(0 0) rotate(45 0 0)" fill="#04CCFF" /><rect x="-10" y="-10" width="20" height="20" transform="translate(0 0) rotate(45 0 0)" fill="#04CCFF" /></g><g transform="translate(50 0)"><rect x="-10" y="-10" width="20" height="20" transform="translate(0 0) rotate(45 0 0)" fill="#04CCFF" /><rect x="-10" y="-10" width="20" height="20" transform="translate(0 0) rotate(45 0 0)" fill="#04CCFF" /></g></g></g><g transform="translate(0 186) rotate(90)"><g transform="translate(0 12.5)"><g transform="translate(-50 0)"><rect x="-10" y="-10" width="20" height="20" transform="translate(0 0) rotate(45 0 0)" fill="#04CCFF" /><rect x="-10" y="-10" width="20" height="20" transform="translate(0 0) rotate(45 0 0)" fill="#04CCFF" /></g><g transform="translate(50 0)"><rect x="-10" y="-10" width="20" height="20" transform="translate(0 0) rotate(45 0 0)" fill="#04CCFF" /><rect x="-10" y="-10" width="20" height="20" transform="translate(0 0) rotate(45 0 0)" fill="#04CCFF" /></g></g><g transform="translate(-100 -12.5)"><rect x="-10" y="-10" width="20" height="20" transform="translate(0 0) rotate(45 0 0)" fill="#04CCFF" /><rect x="-10" y="-10" width="20" height="20" transform="translate(0 0) rotate(45 0 0)" fill="#04CCFF" /></g><g transform="translate(50 -12.5)"><g transform="translate(-50 0)"><rect x="-10" y="-10" width="20" height="20" transform="translate(0 0) rotate(45 0 0)" fill="#04CCFF" /><rect x="-10" y="-10" width="20" height="20" transform="translate(0 0) rotate(45 0 0)" fill="#04CCFF" /></g><g transform="translate(50 0)"><rect x="-10" y="-10" width="20" height="20" transform="translate(0 0) rotate(45 0 0)" fill="#04CCFF" /><rect x="-10" y="-10" width="20" height="20" transform="translate(0 0) rotate(45 0 0)" fill="#04CCFF" /></g></g></g><g transform="translate(-175 220) scale(0.75 0.75)"><rect x="-20" y="-3" width="40" height="6" transform="translate(-8 -26) rotate(0 0 0)" fill="#04CCFF" /><rect x="-3" y="-23" width="6" height="46" transform="translate(-25 0) rotate(0 0 0)" fill="#04CCFF" /><rect x="-28" y="-3" width="56" height="6" transform="translate(0 26) rotate(0 0 0)" fill="#04CCFF" /><rect x="-3" y="-17.5" width="6" height="35" transform="translate(25 5.5) rotate(0 0 0)" fill="#04CCFF" /><rect x="-20" y="-3" width="40" height="6" transform="translate(-8 -26) rotate(0 0 0)" fill="#04CCFF" /><rect x="-3" y="-23" width="6" height="46" transform="translate(-25 0) rotate(0 0 0)" fill="#04CCFF" /><rect x="-28" y="-3" width="56" height="6" transform="translate(0 26) rotate(0 0 0)" fill="#04CCFF" /><rect x="-3" y="-17.5" width="6" height="35" transform="translate(25 5.5) rotate(0 0 0)" fill="#04CCFF" /></g></g></g></svg>