<?xml version="1.0" encoding="utf-8"?><svg width="600px" height="600px" viewBox="-300 -300 600 600" xmlns:bzw="http://schemas.allejo.dev/php/bzflag-rendering" xmlns="http://www.w3.org/2000/svg" xmlns:xlink="http://www.w3.org/1999/xlink"><rect x="-299.5" y="-299.5" width="599" height="599" fill-opacity="0" stroke="#04CCFF" stroke-width="1" /><g transform="scale(1, -1)"><rect x="-51" y="-1" width="102" height="2" transform="translate(0 0) rotate(0 0 0)" bzw:type="1" bzw:position="0 0 0" bzw:size="51 1 10" bzw:rotation="0" fill="#04CCFF" stroke-width="0" /><g transform="" bzw:spin="0 0 0 1" bzw:name="one_side" bzw:team="1"><rect x="-1" y="-24.5" width="2" height="49" transform="translate(0 25.5) rotate(0 0 0)" bzw:type="1" bzw:position="0 25.5 0" bzw:size="1 24.5 10" bzw:rotation="0" fill="#04CCFF" stroke-width="0" /><rect x="-1" y="-24.5" width="2" height="49" transform="translate(0 25.5) rotate(0 0 0)" bzw:type="2" bzw:position="0 25.5 10" bzw:size="1 24.5 0.125" bzw:rotation="0" fill="#04CCFF" stroke-width="0" bzw:zflip="" /><rect x="-25.5" y="-1" width="51" height="2" transform="translate(25.5 0) rotate(0 0 0)" bzw:type="2" bzw:position="25.5 0 10" bzw:size="25.5 1 0.125" bzw:rotation="0" fill="#04CCFF" stroke-width="0" bzw:zflip="" /><rect x="-19" y="-19" width="38" height="38" transform="translate(280 280) rotate(0 0 0)" bzw:type="3" bzw:position="280 280 0" bzw:size="20 20 0" bzw:rotation="0" fill-opacity="0" stroke="#FF0000" stroke-width="2" bzw:team="1" /><g transform="translate(220 220)" bzw:shift="220 220 0" bzw:name="stockade"><g transform="translate(0 0)" bzw:shift="0 0 0" bzw:name="stockade_box"><rect x="-5" y="-5" width="10" height="10" transform="translate(0 0) rotate(0 0 0)" bzw:type="1" bzw:position="0 0 0" bzw:size="5 5 10" bzw:rotation="0" fill="#04CCFF" stroke-width="0" /><rect x="-5" y="-5" width="10" height="10" transform="translate(0 0) rotate(0 0 0)" bzw:type="2" bzw:position="0 0 10" bzw:size="5 5 0.125" bzw:rotation="0" fill="#04CCFF" stroke-width="0" bzw:zflip="" /></g><g transform="translate(37.5 0)" bzw:shift="37.5 0 0" bzw:name="stockade_pair"><g transform="translate(-12.5 0)" bzw:shift="-12.5 0 0" bzw:name="stockade_box"><rect x="-5" y="-5" width="10" height="10" transform="translate(0 0) rotate(0 0 0)" bzw:type="1" bzw:position="0 0 0" bzw:size="5 5 10" bzw:rotation="0" fill="#04CCFF" stroke-width="0" /><rect x="-5" y="-5" width="10" height="10" transform="translate(0 0) rotate(0 0 0)" bzw:type="2" bzw:position="0 0 10" bzw:size="5 5 0.125" bzw:rotation="0" fill="#04CCFF" stroke-width="0" bzw:zflip="" /></g><g transform="translate(12.5 0)" bzw:shift="12.5 0 0" bzw:name="stockade_box"><rect x="-5" y="-5" width="10" height="10" transform="translate(0 0) rotate(0 0 0)" bzw:type="1" bzw:position="0 0 0" bzw:size="5 5 10" bzw:rotation="0" fill="#04CCFF" stroke-width="0" /><rect x="-5" y="-5" width="10" height="10" transform="translate(0 0) rotate(0 0 0)" bzw:type="2" bzw:position="0 0 10" bzw:size="5 5 0.125" bzw:rotation="0" fill="#04CCFF" stroke-width="0" bzw:zflip="" /></g></g><g transform="translate(0 37.5) rotate(90)" bzw:spin="90.000002504478 0 0 1" bzw:shift="0 37.5 0" bzw:name="stockade_pair"><g transform="translate(-12.5 0)" bzw:shift="-12.5 0 0" bzw:name="stockade_box"><rect x="-5" y="-5" width="10" height="10" transform="translate(0 0) rotate(0 0 0)" bzw:type="1" bzw:position="0 0 0" bzw:size="5 5 10" bzw:rotation="0" fill="#04CCFF" stroke-width="0" /><rect x="-5" y="-5" width="10" height="10" transform="translate(0 0) rotate(0 0 0)" bzw:type="2" bzw:position="0 0 10" bzw:size="5 5 0.125" bzw:rotation="0" fill="#04CCFF" stroke-width="0" bzw:zflip="" /></g><g transform="translate(12.5 0)" bzw:shift="12.5 0 0" bzw:name="stockade_box"><rect x="-5" y="-5" width="10" height="10" transform="translate(0 0) rotate(0 0 0)" bzw:type="1" bzw:position="0 0 0" bzw:size="5 5 10" bzw:rotation="0" fill="#04CCFF" stroke-width="0" /><rect x="-5" y="-5" width="10" height="10" transform="translate(0 0) rotate(0 0 0)" bzw:type="2" bzw:position="0 0 10" bzw:size="5 5 0.125" bzw:rotation="0" fill="#04CCFF" stroke-width="0" bzw:zflip="" /></g></g><g transform="translate(25 -23.8)" bzw:shift="25 -23.75 0" bzw:name="stockade_quad"><g transform="translate(-25 0)" bzw:shift="-25 0 0" bzw:name="stockade_pair"><g transform="translate(-12.5 0)" bzw:shift="-12.5 0 0" bzw:name="stockade_box"><rect x="-5" y="-5" width="10" height="10" transform="translate(0 0) rotate(0 0 0)" bzw:type="1" bzw:position="0 0 0" bzw:size="5 5 10" bzw:rotation="0" fill="#04CCFF" stroke-width="0" /><rect x="-5" y="-5" width="10" height="10" transform="translate(0 0) rotate(0 0 0)" bzw:type="2" bzw:position="0 0 10" bzw:size="5 5 0.125" bzw:rotation="0" fill="#04CCFF" stroke-width="0" bzw:zflip="" /></g><g transform="translate(12.5 0)" bzw:shift="12.5 0 0" bzw:name="stockade_box"><rect x="-5" y="-5" width="10" height="10" transform="translate(0 0) rotate(0 0 0)" bzw:type="1" bzw:position="0 0 0" bzw:size="5 5 10" bzw:rotation="0" fill="#04CCFF" stroke-width="0" /><rect x="-5" y="-5" width="10" height="10" transform="translate(0 0) rotate(0 0 0)" bzw:type="2" bzw:position="0 0 10" bzw:size="5 5 0.125" bzw:rotation="0" fill="#04CCFF" stroke-width="0" bzw:zflip="" /></g></g><g transform="translate(25 0)" bzw:shift="25 0 0" bzw:name="stockade_pair"><g transform="translate(-12.5 0)" bzw:shift="-12.5 0 0" bzw:name="stockade_box"><rect x="-5" y="-5" width="10" height="10" transform="translate(0 0) rotate(0 0 0)" bzw:type="1" bzw:position="0 0 0" bzw:size="5 5 10" bzw:rotation="0" fill="#04CCFF" stroke-width="0" /><rect x="-5" y="-5" width="10" height="10" transform="translate(0 0) rotate(0 0 0)" bzw:type="2" bzw:position="0 0 10" bzw:size="5 5 0.125" bzw:rotation="0" fill="#04CCFF" stroke-width="0" bzw:zflip="" /></g><g transform="translate(12.5 0)" bzw:shift="12.5 0 0" bzw:name="stockade_box"><rect x="-5" y="-5" width="10" height="10" transform="translate(0 0) rotate(0 0 0)" bzw:type="1" bzw:position="0 0 0" bzw:size="5 5 10" bzw:rotation="0" fill="#04CCFF" stroke-width="0" /><rect x="-5" y="-5" width="10" height="10" transform="translate(0 0) rotate(0 0 0)" bzw:type="2" bzw:position="0 0 10" bzw:size="5 5 0.125" bzw:rotation="0" fill="#04CCFF" stroke-width="0" bzw:zflip="" /></g></g></g><g transform="translate(-23.8 25) rotate(90)" bzw:spin="90.000002504478 0 0 1" bzw:shift="-23.75 25 0" bzw:name="stockade_quad"><g transform="translate(-25 0)" bzw:shift="-25 0 0" bzw:name="stockade_pair"><g transform="translate(-12.5 0)" bzw:shift="-12.5 0 0" bzw:name="stockade_box"><rect x="-5" y="-5" width="10" height="10" transform="translate(0 0) rotate(0 0 0)" bzw:type="1" bzw:position="0 0 0" bzw:size="5 5 10" bzw:rotation="0" fill="#04CCFF" stroke-width="0" /><rect x="-5" y="-5" width="10" height="10" transform="translate(0 0) rotate(0 0 0)" bzw:type="2" bzw:position="0 0 10" bzw:size="5 5 0.125" bzw:rotation="0" fill="#04CCFF" stroke-width="0" bzw:zflip="" /></g><g transform="translate(12.5 0)" bzw:shift="12.5 0 0" bzw:name="stockade_box"><rect x="-5" y="-5" width="10" height="10" transform="translate(0 0) rotate(0 0 0)" bzw:type="1" bzw:position="0 0 0" bzw:size="5 5 10" bzw:rotation="0" fill="#04CCFF" stroke-width="0" /><rect x="-5" y="-5" width="10" height="10" transform="translate(0 0) rotate(0 0 0)" bzw:type="2" bzw:position="0 0 10" bzw:size="5 5 0.125" bzw:rotation="0" fill="#04CCFF" stroke-width="0" bzw:zflip="" /></g></g><g transform="translate(25 0)" bzw:shift="25 0 0" bzw:name="stockade_pair"><g transform="translate(-12.5 0)" bzw:shift="-12.5 0 0" bzw:name="stockade_box"><rect x="-5" y="-5" width="10" height="10" transform="translate(0 0) rotate(0 0 0)" bzw:type="1" bzw:position="0 0 0" bzw:size="5 5 10" bzw:rotation="0" fill="#04CCFF" stroke-width="0" /><rect x="-5" y="-5" width="10" height="10" transform="translate(0 0) rotate(0 0 0)" bzw:type="2" bzw:position="0 0 10" bzw:size="5 5 0.125" bzw:rotation="0" fill="#04CCFF" stroke-width="0" bzw:zflip="" /></g><g transform="translate(12.5 0)" bzw:shift="12.5 0 0" bzw:name="stockade_box"><rect x="-5" y="-5" width="10" height="10" transform="translate(0 0) rotate(0 0 0)" bzw:type="1" bzw:position="0 0 0" bzw:size="5 5 10" bzw:rotation="0" fill="#04CCFF" stroke-width="0" /><rect x="-5" y="-5" width="10" height="10" transform="translate(0 0) rotate(0 0 0)" bzw:type="2" bzw:position="0 0 10" bzw:size="5 5 0.125" bzw:rotation="0" fill="#04CCFF" stroke-width="0" bzw:zflip="" /></g></g></g></g><g transform="translate(164 0)" bzw:shift="164 0 0" bzw:name="hedgerow"><g transform="translate(0 12.5)" bzw:shift="0 12.5 0" bzw:name="hedgerow_pair"><g transform="translate(-50 0)" bzw:shift="-50 0 0" bzw:name="hedgerow_box"><rect x="-10" y="-10" width="20" height="20" transform="translate(0 0) rotate(45 0 0)" bzw:type="1" bzw:position="0 0 0" bzw:size="10 10 10" bzw:rotation="45.000001252239" fill="#04CCFF" stroke-width="0" /><rect x="-10" y="-10" width="20" height="20" transform="translate(0 0) rotate(45 0 0)" bzw:type="2" bzw:position="0 0 10" bzw:size="10 10 0.125" bzw:rotation="45.000001252239" fill="#04CCFF" stroke-width="0" bzw:zflip="" /></g><g transform="translate(50 0)" bzw:shift="50 0 0" bzw:name="hedgerow_box"><rect x="-10" y="-10" width="20" height="20" transform="translate(0 0) rotate(45 0 0)" bzw:type="1" bzw:position="0 0 0" bzw:size="10 10 10" bzw:rotation="45.000001252239" fill="#04CCFF" stroke-width="0" /><rect x="-10" y="-10" width="20" height="20" transform="translate(0 0) rotate(45 0 0)" bzw:type="2" bzw:position="0 0 10" bzw:size="10 10 0.125" bzw:rotation="45.000001252239" fill="#04CCFF" stroke-width="0" bzw:zflip="" /></g></g><g transform="translate(-100 -12.5)" bzw:shift="-100 -12.5 0" bzw:name="hedgerow_box"><rect x="-10" y="-10" width="20" height="20" transform="translate(0 0) rotate(45 0 0)" bzw:type="1" bzw:position="0 0 0" bzw:size="10 10 10" bzw:rotation="45.000001252239" fill="#04CCFF" stroke-width="0" /><rect x="-10" y="-10" width="20" height="20" transform="translate(0 0) rotate(45 0 0)" bzw:type="2" bzw:position="0 0 10" bzw:size="10 10 0.125" bzw:rotation="45.000001252239" fill="#04CCFF" stroke-width="0" bzw:zflip="" /></g><g transform="translate(50 -12.5)" bzw:shift="50 -12.5 0" bzw:name="hedgerow_pair"><g transform="translate(-50 0)" bzw:shift="-50 0 0" bzw:name="hedgerow_box"><rect x="-10" y="-10" width="20" height="20" transform="translate(0 0) rotate(45 0 0)" bzw:type="1" bzw:position="0 0 0" bzw:size="10 10 10" bzw:rotation="45.000001252239" fill="#04CCFF" stroke-width="0" /><rect x="-10" y="-10" width="20" height="20" transform="translate(0 0) rotate(45 0 0)" bzw:type="2" bzw:position="0 0 10" bzw:size="10 10 0.125" bzw:rotation="45.000001252239" fill="#04CCFF" stroke-width="0" bzw:zflip="" /></g><g transform="translate(50 0)" bzw:shift="50 0 0" bzw:name="hedgerow_box"><rect x="-10" y="-10" width="20" height="20" transform="translate(0 0) rotate(45 0 0)" bzw:type="1" bzw:position="0 0 0" bzw:size="10 10 10" bzw:rotation="45.000001252239" fill="#04CCFF" stroke-width="0" /><rect x="-10" y="-10" width="20" height="20" transform="translate(0 0) rotate(45 0 0)" bzw:type="2" bzw:position="0 0 10" bzw:size="10 10 0.125" bzw:rotation="45.000001252239" fill="#04CCFF" stroke-width="0" bzw:zflip="" /></g></g></g><g transform="translate(0 186) rotate(90)" bzw:spin="90.000002504478 0 0 1" bzw:shift="0 185.75 0" bzw:name="hedgerow"><g transform="translate(0 12.5)" bzw:shift="0 12.5 0" bzw:name="hedgerow_pair"><g transform="translate(-50 0)" bzw:shift="-50 0 0" bzw:name="hedgerow_box"><rect x="-10" y="-10" width="20" height="20" transform="translate(0 0) rotate(45 0 0)" bzw:type="1" bzw:position="0 0 0" bzw:size="10 10 10" bzw:rotation="45.000001252239" fill="#04CCFF" stroke-width="0" /><rect x="-10" y="-10" width="20" height="20" transform="translate(0 0) rotate(45 0 0)" bzw:type="2" bzw:position="0 0 10" bzw:size="10 10 0.125" bzw:rotation="45.000001252239" fill="#04CCFF" stroke-width="0" bzw:zflip="" /></g><g transform="translate(50 0)" bzw:shift="50 0 0" bzw:name="hedgerow_box"><rect x="-10" y="-10" width="20" height="20" transform="translate(0 0) rotate(45 0 0)" bzw:type="1" bzw:position="0 0 0" bzw:size="10 10 10" bzw:rotation="45.000001252239" fill="#04CCFF" stroke-width="0" /><rect x="-10" y="-10" width="20" height="20" transform="translate(0 0) rotate(45 0 0)" bzw:type="2" bzw:position="0 0 10" bzw:size="10 10 0.125" bzw:rotation="45.000001252239" fill="#04CCFF" stroke-width="0" bzw:zflip="" /></g></g><g transform="translate(-100 -12.5)" bzw:shift="-100 -12.5 0" bzw:name="hedgerow_box"><rect x="-10" y="-10" width="20" height="20" transform="translate(0 0) rotate(45 0 0)" bzw:type="1" bzw:position="0 0 0" bzw:size="10 10 10" bzw:rotation="45.000001252239" fill="#04CCFF" stroke-width="0" /><rect x="-10" y="-10" width="20" height="20" transform="translate(0 0) rotate(45 0 0)" bzw:type="2" bzw:position="0 0 10" bzw:size="10 10 0.125" bzw:rotation="45.000001252239" fill="#04CCFF" stroke-width="0" bzw:zflip="" /></g><g transform="translate(50 -12.5)" bzw:shift="50 -12.5 0" bzw:name="hedgerow_pair"><g transform="translate(-50 0)" bzw:shift="-50 0 0" bzw:name="hedgerow_box"><rect x="-10" y="-10" width="20" height="20" transform="translate(0 0) rotate(45 0 0)" bzw:type="1" bzw:position="0 0 0" bzw:size="10 10 10" bzw:rotation="45.000001252239" fill="#04CCFF" stroke-width="0" /><rect x="-10" y="-10" width="20" height="20" transform="translate(0 0) rotate(45 0 0)" bzw:type="2" bzw:position="0 0 10" bzw:size="10 10 0.125" bzw:rotation="45.000001252239" fill="#04CCFF" stroke-width="0" bzw:zflip="" /></g><g transform="translate(50 0)" bzw:shift="50 0 0" bzw:name="hedgerow_box"><rect x="-10" y="-10" width="20" height="20" transform="translate(0 0) rotate(45 0 0)" bzw:type="1" bzw:position="0 0 0" bzw:size="10 10 10" bzw:rotation="45.000001252239" fill="#04CCFF" stroke-width="0" /><rect x="-10" y="-10" width="20" height="20" transform="translate(0 0) rotate(45 0 0)" bzw:type="2" bzw:position="0 0 10" bzw:size="10 10 0.125" bzw:rotation="45.000001252239" fill="#04CCFF" stroke-width="0" bzw:zflip="" /></g></g></g><g transform="translate(-175 220) scale(0.75 0.75)" bzw:scale="0.75 0.75 1" bzw:shift="-175 220 0" bzw:name="pillbox"><rect x="-20" y="-3" width="40" height="6" transform="translate(-8 -26) rotate(0 0 0)" bzw:type="1" bzw:position="-8 -26 0" bzw:size="20 3 15" bzw:rotation="0" fill="#04CCFF" stroke-width="0" /><rect x="-3" y="-23" width="6" height="46" transform="translate(-25 0) rotate(0 0 0)" bzw:type="1" bzw:position="-25 0 0" bzw:size="3 23 15" bzw:rotation="0" fill="#04CCFF" stroke-width="0" /><rect x="-28" y="-3" width="56" height="6" transform="translate(0 26) rotate(0 0 0)" bzw:type="1" bzw:position="0 26 0" bzw:size="28 3 15" bzw:rotation="0" fill="#04CCFF" stroke-width="0" /><rect x="-3" y="-17.5" width="6" height="35" transform="translate(25 5.5) rotate(0 0 0)" bzw:type="1" bzw:position="25 5.5 0" bzw:size="3 17.5 15" bzw:rotation="0" fill="#04CCFF" stroke-width="0" /><rect x="-20" y="-3" width="40" height="6" transform="translate(-8 -26) rotate(0 0 0)" bzw:type="2" bzw:position="-8 -26 15" bzw:size="20 3 0.125" bzw:rotation="0" fill="#04CCFF" stroke-width="0" bzw:zflip="" /><rect x="-3" y="-23" width="6" height="46" transform="translate(-25 0) rotate(0 0 0)" bzw:type="2" bzw:position="-25 0 15" bzw:size="3 23 0.125" bzw:rotation="0" fill="#04CCFF" stroke-width="0" bzw:zflip="" /><rect x="-28" y="-3" width="56" height="6" transform="translate(0 26) rotate(0 0 0)" bzw:type="2" bzw:position="0 26 15" bzw:size="28 3 0.125" bzw:rotation="0" fill="#04CCFF" stroke-width="0" bzw:zflip="" /><rect x="-3" y="-17.5" width="6" height="35" transform="translate(25 5.5) rotate(0 0 0)" bzw:type="2" bzw:position="25 5.5 15" bzw:size="3 17.5 0.125" bzw:rotation="0" fill="#04CCFF" stroke-width="0" bzw:zflip="" /></g></g><g transform="rotate(180)" bzw:spin="180.00000500896 0 0 1" bzw:name="one_side" bzw:team="2"><rect x="-1" y="-24.5" width="2" height="49" transform="translate(0 25.5) rotate(0 0 0)" bzw:type="1" bzw:position="0 25.5 0" bzw:size="1 24.5 10" bzw:rotation="0" fill="#04CCFF" stroke-width="0" /><rect x="-1" y="-24.5" width="2" height="49" transform="translate(0 25.5) rotate(0 0 0)" bzw:type="2" bzw:position="0 25.5 10" bzw:size="1 24.5 0.125" bzw:rotation="0" fill="#04CCFF" stroke-width="0" bzw:zflip="" /><rect x="-25.5" y="-1" width="51" height="2" transform="translate(25.5 0) rotate(0 0 0)" bzw:type="2" bzw:position="25.5 0 10" bzw:size="25.5 1 0.125" bzw:rotation="0" fill="#04CCFF" stroke-width="0" bzw:zflip="" /><rect x="-19" y="-19" width="38" height="38" transform="translate(280 280) rotate(0 0 0)" bzw:type="3" bzw:position="280 280 0" bzw:size="20 20 0" bzw:rotation="0" fill-opacity="0" stroke="#00CA00" stroke-width="2" bzw:team="2" /><g transform="translate(220 220)" bzw:shift="220 220 0" bzw:name="stockade"><g transform="translate(0 0)" bzw:shift="0 0 0" bzw:name="stockade_box"><rect x="-5" y="-5" width="10" height="10" transform="translate(0 0) rotate(0 0 0)" bzw:type="1" bzw:position="0 0 0" bzw:size="5 5 10" bzw:rotation="0" fill="#04CCFF" stroke-width="0" /><rect x="-5" y="-5" width="10" height="10" transform="translate(0 0) rotate(0 0 0)" bzw:type="2" bzw:position="0 0 10" bzw:size="5 5 0.125" bzw:rotation="0" fill="#04CCFF" stroke-width="0" bzw:zflip="" /></g><g transform="translate(37.5 0)" bzw:shift="37.5 0 0" bzw:name="stockade_pair"><g transform="translate(-12.5 0)" bzw:shift="-12.5 0 0" bzw:name="stockade_box"><rect x="-5" y="-5" width="10" height="10" transform="translate(0 0) rotate(0 0 0)" bzw:type="1" bzw:position="0 0 0" bzw:size="5 5 10" bzw:rotation="0" fill="#04CCFF" stroke-width="0" /><rect x="-5" y="-5" width="10" height="10" transform="translate(0 0) rotate(0 0 0)" bzw:type="2" bzw:position="0 0 10" bzw:size="5 5 0.125" bzw:rotation="0" fill="#04CCFF" stroke-width="0" bzw:zflip="" /></g><g transform="translate(12.5 0)" bzw:shift="12.5 0 0" bzw:name="stockade_box"><rect x="-5" y="-5" width="10" height="10" transform="translate(0 0) rotate(0 0 0)" bzw:type="1" bzw:position="0 0 0" bzw:size="5 5 10" bzw:rotation="0" fill="#04CCFF" stroke-width="0" /><rect x="-5" y="-5" width="10" height="10" transform="translate(0 0) rotate(0 0 0)" bzw:type="2" bzw:position="0 0 10" bzw:size="5 5 0.125" bzw:rotation="0" fill="#04CCFF" stroke-width="0" bzw:zflip="" /></g></g><g transform="translate(0 37.5) rotate(90)" bzw:spin="90.000002504478 0 0 1" bzw:shift="0 37.5 0" bzw:name="stockade_pair"><g transform="translate(-12.5 0)" bzw:shift="-12.5 0 0" bzw:name="stockade_box"><rect x="-5" y="-5" width="10" height="10" transform="translate(0 0) rotate(0 0 0)" bzw:type="1" bzw:position="0 0 0" bzw:size="5 5 10" bzw:rotation="0" fill="#04CCFF" stroke-width="0" /><rect x="-5" y="-5" width="10" height="10" transform="translate(0 0) rotate(0 0 0)" bzw:type="2" bzw:position="0 0 10" bzw:size="5 5 0.125" bzw:rotation="0" fill="#04CCFF" stroke-width="0" bzw:zflip="" /></g><g transform="translate(12.5 0)" bzw:shift="12.5 0 0" bzw:name="stockade_box"><rect x="-5" y="-5" width="10" height="10" transform="translate(0 0) rotate(0 0 0)" bzw:type="1" bzw:position="0 0 0" bzw:size="5 5 10" bzw:rotation="0" fill="#04CCFF" stroke-width="0" /><rect x="-5" y="-5" width="10" height="10" transform="translate(0 0) rotate(0 0 0)" bzw:type="2" bzw:position="0 0 10" bzw:size="5 5 0.125" bzw:rotation="0" fill="#04CCFF" stroke-width="0" bzw:zflip="" /></g></g><g transform="translate(25 -23.8)" bzw:shift="25 -23.75 0" bzw:name="stockade_quad"><g transform="translate(-25 0)" bzw:shift="-25 0 0" bzw:name="stockade_pair"><g transform="translate(-12.5 0)" bzw:shift="-12.5 0 0" bzw:name="stockade_box"><rect x="-5" y="-5" width="10" height="10" transform="translate(0 0) rotate(0 0 0)" bzw:type="1" bzw:position="0 0 0" bzw:size="5 5 10" bzw:rotation="0" fill="#04CCFF" stroke-width="0" /><rect x="-5" y="-5" width="10" height="10" transform="translate(0 0) rotate(0 0 0)" bzw:type="2" bzw:position="0 0 10" bzw:size="5 5 0.125" bzw:rotation="0" fill="#04CCFF" stroke-width="0" bzw:zflip="" /></g><g transform="translate(12.5 0)" bzw:shift="12.5 0 0" bzw:name="stockade_box"><rect x="-5" y="-5" width="10" height="10" transform="translate(0 0) rotate(0 0 0)" bzw:type="1" bzw:position="0 0 0" bzw:size="5 5 10" bzw:rotation="0" fill="#04CCFF" stroke-width="0" /><rect x="-5" y="-5" width="10" height="10" transform="translate(0 0) rotate(0 0 0)" bzw:type="2" bzw:position="0 0 10" bzw:size="5 5 0.125" bzw:rotation="0" fill="#04CCFF" stroke-width="0" bzw:zflip="" /></g></g><g transform="translate(25 0)" bzw:shift="25 0 0" bzw:name="stockade_pair"><g transform="translate(-12.5 0)" bzw:shift="-12.5 0 0" bzw:name="stockade_box"><rect x="-5" y="-5" width="10" height="10" transform="translate(0 0) rotate(0 0 0)" bzw:type="1" bzw:position="0 0 0" bzw:size="5 5 10" bzw:rotation="0" fill="#04CCFF" stroke-width="0" /><rect x="-5" y="-5" width="10" height="10" transform="translate(0 0) rotate(0 0 0)" bzw:type="2" bzw:position="0 0 10" bzw:size="5 5 0.125" bzw:rotation="0" fill="#04CCFF" stroke-width="0" bzw:zflip="" /></g><g transform="translate(12.5 0)" bzw:shift="12.5 0 0" bzw:name="stockade_box"><rect x="-5" y="-5" width="10" height="10" transform="translate(0 0) rotate(0 0 0)" bzw:type="1" bzw:position="0 0 0" bzw:size="5 5 10" bzw:rotation="0" fill="#04CCFF" stroke-width="0" /><rect x="-5" y="-5" width="10" height="10" transform="translate(0 0) rotate(0 0 0)" bzw:type="2" bzw:position="0 0 10" bzw:size="5 5 0.125" bzw:rotation="0" fill="#04CCFF" stroke-width="0" bzw:zflip="" /></g></g></g><g transform="translate(-23.8 25) rotate(90)" bzw:spin="90.000002504478 0 0 1" bzw:shift="-23.75 25 0" bzw:name="stockade_quad"><g transform="translate(-25 0)" bzw:shift="-25 0 0" bzw:name="stockade_pair"><g transform="translate(-12.5 0)" bzw:shift="-12.5 0 0" bzw:name="stockade_box"><rect x="-5" y="-5" width="10" height="10" transform="translate(0 0) rotate(0 0 0)" bzw:type="1" bzw:position="0 0 0" bzw:size="5 5 10" bzw:rotation="0" fill="#04CCFF" stroke-width="0" /><rect x="-5" y="-5" width="10" height="10" transform="translate(0 0) rotate(0 0 0)" bzw:type="2" bzw:position="0 0 10" bzw:size="5 5 0.125" bzw:rotation="0" fill="#04CCFF" stroke-width="0" bzw:zflip="" /></g><g transform="translate(12.5 0)" bzw:shift="12.5 0 0" bzw:name="stockade_box"><rect x="-5" y="-5" width="10" height="10" transform="translate(0 0) rotate(0 0 0)" bzw:type="1" bzw:position="0 0 0" bzw:size="5 5 10" bzw:rotation="0" fill="#04CCFF" stroke-width="0" /><rect x="-5" y="-5" width="10" height="10" transform="translate(0 0) rotate(0 0 0)" bzw:type="2" bzw:position="0 0 10" bzw:size="5 5 0.125" bzw:rotation="0" fill="#04CCFF" stroke-width="0" bzw:zflip="" /></g></g><g transform="translate(25 0)" bzw:shift="25 0 0" bzw:name="stockade_pair"><g transform="translate(-12.5 0)" bzw:shift="-12.5 0 0" bzw:name="stockade_box"><rect x="-5" y="-5" width="10" height="10" transform="translate(0 0) rotate(0 0 0)" bzw:type="1" bzw:position="0 0 0" bzw:size="5 5 10" bzw:rotation="0" fill="#04CCFF" stroke-width="0" /><rect x="-5" y="-5" width="10" height="10" transform="translate(0 0) rotate(0 0 0)" bzw:type="2" bzw:position="0 0 10" bzw:size="5 5 0.125" bzw:rotation="0" fill="#04CCFF" stroke-width="0" bzw:zflip="" /></g><g transform="translate(12.5 0)" bzw:shift="12.5 0 0" bzw:name="stockade_box"><rect x="-5" y="-5" width="10" height="10" transform="translate(0 0) rotate(0 0 0)" bzw:type="1" bzw:position="0 0 0" bzw:size="5 5 10" bzw:rotation="0" fill="#04CCFF" stroke-width="0" /><rect x="-5" y="-5" width="10" height="10" transform="translate(0 0) rotate(0 0 0)" bzw:type="2" bzw:position="0 0 10" bzw:size="5 5 0.125" bzw:rotation="0" fill="#04CCFF" stroke-width="0" bzw:zflip="" /></g></g></g></g><g transform="translate(164 0)" bzw:shift="164 0 0" bzw:name="hedgerow"><g transform="translate(0 12.5)" bzw:shift="0 12.5 0" bzw:name="hedgerow_pair"><g transform="translate(-50 0)" bzw:shift="-50 0 0" bzw:name="hedgerow_box"><rect x="-10" y="-10" width="20" height="20" transform="translate(0 0) rotate(45 0 0)" bzw:type="1" bzw:position="0 0 0" bzw:size="10 10 10" bzw:rotation="45.000001252239" fill="#04CCFF" stroke-width="0" /><rect x="-10" y="-10" width="20" height="20" transform="translate(0 0) rotate(45 0 0)" bzw:type="2" bzw:position="0 0 10" bzw:size="10 10 0.125" bzw:rotation="45.000001252239" fill="#04CCFF" stroke-width="0" bzw:zflip="" /></g><g transform="translate(50 0)" bzw:shift="50 0 0" bzw:name="hedgerow_box"><rect x="-10" y="-10" width="20" height="20" transform="translate(0 0) rotate(45 0 0)" bzw:type="1" bzw:position="0 0 0" bzw:size="10 10 10" bzw:rotation="45.000001252239" fill="#04CCFF" stroke-width="0" /><rect x="-10" y="-10" width="20" height="20" transform="translate(0 0) rotate(45 0 0)" bzw:type="2" bzw:position="0 0 10" bzw:size="10 10 0.125" bzw:rotation="45.000001252239" fill="#04CCFF" stroke-width="0" bzw:zflip="" /></g></g><g transform="translate(-100 -12.5)" bzw:shift="-100 -12.5 0" bzw:name="hedgerow_box"><rect x="-10" y="-10" width="20" height="20" transform="translate(0 0) rotate(45 0 0)" bzw:type="1" bzw:position="0 0 0" bzw:size="10 10 10" bzw:rotation="45.000001252239" fill="#04CCFF" stroke-width="0" /><rect x="-10" y="-10" width="20" height="20" transform="translate(0 0) rotate(45 0 0)" bzw:type="2" bzw:position="0 0 10" bzw:size="10 10 0.125" bzw:rotation="45.000001252239" fill="#04CCFF" stroke-width="0" bzw:zflip="" /></g><g transform="translate(50 -12.5)" bzw:shift="50 -12.5 0" bzw:name="hedgerow_pair"><g transform="translate(-50 0)" bzw:shift="-50 0 0" bzw:name="hedgerow_box"><rect x="-10" y="-10" width="20" height="20" transform="translate(0 0) rotate(45 0 0)" bzw:type="1" bzw:position="0 0 0" bzw:size="10 10 10" bzw:rotation="45.000001252239" fill="#04CCFF" stroke-width="0" /><rect x="-10" y="-10" width="20" height="20" transform="translate(0 0) rotate(45 0 0)" bzw:type="2" bzw:position="0 0 10" bzw:size="10 10 0.125" bzw:rotation="45.000001252239" fill="#04CCFF" stroke-width="0" bzw:zflip="" /></g><g transform="translate(50 0)" bzw:shift="50 0 0" bzw:name="hedgerow_box"><rect x="-10" y="-10" width="20" height="20" transform="translate(0 0) rotate(45 0 0)" bzw:type="1" bzw:position="0 0 0" bzw:size="10 10 10" bzw:rotation="45.000001252239" fill="#04CCFF" stroke-width="0" /><rect x="-10" y="-10" width="20" height="20" transform="translate(0 0) rotate(45 0 0)" bzw:type="2" bzw:position="0 0 10" bzw:size="10 10 0.125" bzw:rotation="45.000001252239" fill="#04CCFF" stroke-width="0" bzw:zflip="" /></g></g></g><g transform="translate(0 186) rotate(90)" bzw:spin="90.000002504478 0 0 1" bzw:shift="0 185.75 0" bzw:name="hedgerow"><g transform="translate(0 12.5)" bzw:shift="0 12.5 0" bzw:name="hedgerow_pair"><g transform="translate(-50 0)" bzw:shift="-50 0 0" bzw:name="hedgerow_box"><rect x="-10" y="-10" width="20" height="20" transform="translate(0 0) rotate(45 0 0)" bzw:type="1" bzw:position="0 0 0" bzw:size="10 10 10" bzw:rotation="45.000001252239" fill="#04CCFF" stroke-width="0" /><rect x="-10" y="-10" width="20" height="20" transform="translate(0 0) rotate(45 0 0)" bzw:type="2" bzw:position="0 0 10" bzw:size="10 10 0.125" bzw:rotation="45.000001252239" fill="#04CCFF" stroke-width="0" bzw:zflip="" /></g><g transform="translate(50 0)" bzw:shift="50 0 0" bzw:name="hedgerow_box"><rect x="-10" y="-10" width="20" height="20" transform="translate(0 0) rotate(45 0 0)" bzw:type="1" bzw:position="0 0 0" bzw:size="10 10 10" bzw:rotation="45.000001252239" fill="#04CCFF" stroke-width="0" /><rect x="-10" y="-10" width="20" height="20" transform="translate(0 0) rotate(45 0 0)" bzw:type="2" bzw:position="0 0 10" bzw:size="10 10 0.125" bzw:rotation="45.000001252239" fill="#04CCFF" stroke-width="0" bzw:zflip="" /></g></g><g transform="translate(-100 -12.5)" bzw:shift="-100 -12.5 0" bzw:name="hedgerow_box"><rect x="-10" y="-10" width="20" height="20" transform="translate(0 0) rotate(45 0 0)" bzw:type="1" bzw:position="0 0 0" bzw:size="10 10 10" bzw:rotation="45.000001252239" fill="#04CCFF" stroke-width="0" /><rect x="-10" y="-10" width="20" height="20" transform="translate(0 0) rotate(45 0 0)" bzw:type="2" bzw:position="0 0 10" bzw:size="10 10 0.125" bzw:rotation="45.000001252239" fill="#04CCFF" stroke-width="0" bzw:zflip="" /></g><g transform="translate(50 -12.5)" bzw:shift="50 -12.5 0" bzw:name="hedgerow_pair"><g transform="translate(-50 0)" bzw:shift="-50 0 0" bzw:name="hedgerow_box"><rect x="-10" y="-10" width="20" height="20" transform="translate(0 0) rotate(45 0 0)" bzw:type="1" bzw:position="0 0 0" bzw:size="10 10 10" bzw:rotation="45.000001252239" fill="#04CCFF" stroke-width="0" /><rect x="-10" y="-10" width="20" height="20" transform="translate(0 0) rotate(45 0 0)" bzw:type="2" bzw:position="0 0 10" bzw:size="10 10 0.125" bzw:rotation="45.000001252239" fill="#04CCFF" stroke-width="0" bzw:zflip="" /></g><g transform="translate(50 0)" bzw:shift="50 0 0" bzw:name="hedgerow_box"><rect x="-10" y="-10" width="20" height="20" transform="translate(0 0) rotate(45 0 0)" bzw:type="1" bzw:position="0 0 0" bzw:size="10 10 10" bzw:rotation="45.000001252239" fill="#04CCFF" stroke-width="0" /><rect x="-10" y="-10" width="20" height="20" transform="translate(0 0) rotate(45 0 0)" bzw:type="2" bzw:position="0 0 10" bzw:size="10 10 0.125" bzw:rotation="45.000001252239" fill="#04CCFF" stroke-width="0" bzw:zflip="" /></g></g></g><g transform="translate(-175 220) scale(0.75 0.75)" bzw:scale="0.75 0.75 1" bzw:shift="-175 220 0" bzw:name="pillbox"><rect x="-20" y="-3" width="40" height="6" transform="translate(-8 -26) rotate(0 0 0)" bzw:type="1" bzw:position="-8 -26 0" bzw:size="20 3 15" bzw:rotation="0" fill="#04CCFF" stroke-width="0" /><rect x="-3" y="-23" width="6" height="46" transform="translate(-25 0) rotate(0 0 0)" bzw:type="1" bzw:position="-25 0 0" bzw:size="3 23 15" bzw:rotation="0" fill="#04CCFF" stroke-width="0" /><rect x="-28" y="-3" width="56" height="6" transform="translate(0 26) rotate(0 0 0)" bzw:type="1" bzw:position="0 26 0" bzw:size="28 3 15" bzw:rotation="0" fill="#04CCFF" stroke-width="0" /><rect x="-3" y="-17.5" width="6" height="35" transform="translate(25 5.5) rotate(0 0 0)" bzw:type="1" bzw:position="25 5.5 0" bzw:size="3 17.5 15" bzw:rotation="0" fill="#04CCFF" stroke-width="0" /><rect x="-20" y="-3" width="40" height="6" transform="translate(-8 -26) rotate(0 0 0)" bzw:type="2" bzw:position="-8 -26 15" bzw:size="20 3 0.125" bzw:rotation="0" fill="#04CCFF" stroke-width="0" bzw:zflip="" /><rect x="-3" y="-23" width="6" height="46" transform="translate(-25 0) rotate(0 0 0)" bzw:type="2" bzw:position="-25 0 15" bzw:size="3 23 0.125" bzw:rotation="0" fill="#04CCFF" stroke-width="0" bzw:zflip="" /><rect x="-28" y="-3" width="56" height="6" transform="translate(0 26) rotate(0 0 0)" bzw:type="2" bzw:position="0 26 15" bzw:size="28 3 0.125" bzw:rotation="0" fill="#04CCFF" stroke-width="0" bzw:zflip="" /><rect x="-3" y="-17.5" width="6" height="35" transform="translate(25 5.5) rotate(0 0 0)" bzw:type="2" bzw:position="25 5.5 15" bzw:size="3 17.5 0.125" bzw:rotation="0" fill="#04CCFF" stroke-width="0" bzw:zflip="" /></g></g></g></svg>