<?xml version="1.0" encoding="utf-8"?><svg width="800px" height="800px" viewBox="-400 -400 800 800" xmlns:bzw="http://schemas.allejo.dev/php/bzflag-rendering" xmlns="http://www.w3.org/2000/svg" xmlns:xlink="http://www.w3.org/1999/xlink"><rect x="-399.5" y="-399.5" width="799" height="799" fill-opacity="0" stroke="#04CCFF" stroke-width="1" /><g transform="scale(1, -1)"><rect x="-30" y="-30" width="60" height="60" transform="translate(-136.789 156.977) rotate(103.052 0 0)" bzw:type="1" bzw:position="-136.78927612305 156.97660827637 0" bzw:size="30 30 9.4200000762939" bzw:rotation="103.05198174418" fill="#04CCFF" stroke-width="0" /><rect x="-30" y="-30" width="60" height="60" transform="translate(-158.599 -181.62) rotate(184.18 0 0)" bzw:type="1" bzw:position="-158.59934997559 -181.62010192871 0" bzw:size="30 30 9.4200000762939" bzw:rotation="184.1799578376" fill="#04CCFF" stroke-width="0" /><rect x="-30" y="-30" width="60" height="60" transform="translate(389.529 290.295) rotate(278.882 0 0)" bzw:type="1" bzw:position="389.52856445312 290.29516601562 0" bzw:size="30 30 9.4200000762939" bzw:rotation="278.88165083085" fill="#04CCFF" stroke-width="0" /><rect x="-30" y="-30" width="60" height="60" transform="translate(-381.625 -109.587) rotate(213.048 0 0)" bzw:type="1" bzw:position="-381.62475585938 -109.58654785156 0" bzw:size="30 30 9.4200000762939" bzw:rotation="213.04768406277" fill="#04CCFF" stroke-width="0" /><rect x="-30" y="-30" width="60" height="60" transform="translate(-221.948 253.305) rotate(31.2228 0 0)" bzw:type="1" bzw:position="-221.94848632812 253.30523681641 0" bzw:size="30 30 9.4200000762939" bzw:rotation="31.222847167974" fill="#04CCFF" stroke-width="0" /><rect x="-30" y="-30" width="60" height="60" transform="translate(-27.6402 310.942) rotate(169.045 0 0)" bzw:type="1" bzw:position="-27.640199661255 310.94244384766 0" bzw:size="30 30 9.4200000762939" bzw:rotation="169.04522852371" fill="#04CCFF" stroke-width="0" /><rect x="-30" y="-30" width="60" height="60" transform="translate(-347.038 103.355) rotate(265.39 0 0)" bzw:type="1" bzw:position="-347.03826904297 103.35473632812 0" bzw:size="30 30 9.4200000762939" bzw:rotation="265.38995084257" fill="#04CCFF" stroke-width="0" /><rect x="-30" y="-30" width="60" height="60" transform="translate(-346.729 157.269) rotate(126.821 0 0)" bzw:type="1" bzw:position="-346.72857666016 157.26861572266 0" bzw:size="30 30 9.4200000762939" bzw:rotation="126.82132692377" fill="#04CCFF" stroke-width="0" /><rect x="-30" y="-30" width="60" height="60" transform="translate(129.007 67.7432) rotate(303.593 0 0)" bzw:type="1" bzw:position="129.00714111328 67.743209838867 0" bzw:size="30 30 9.4200000762939" bzw:rotation="303.59302936115" fill="#04CCFF" stroke-width="0" /><rect x="-30" y="-30" width="60" height="60" transform="translate(105.128 -121.647) rotate(355.766 0 0)" bzw:type="1" bzw:position="105.12828826904 -121.64707183838 0" bzw:size="30 30 9.4200000762939" bzw:rotation="355.76572986461" fill="#04CCFF" stroke-width="0" /><rect x="-30" y="-30" width="60" height="60" transform="translate(-137.895 107.357) rotate(2.31702 0 0)" bzw:type="1" bzw:position="-137.89515686035 107.35736083984 0" bzw:size="30 30 9.4200000762939" bzw:rotation="2.31702300139" fill="#04CCFF" stroke-width="0" /><rect x="-30" y="-30" width="60" height="60" transform="translate(80.4848 -283.354) rotate(120.762 0 0)" bzw:type="1" bzw:position="80.484771728516 -283.35385131836 0" bzw:size="30 30 9.4200000762939" bzw:rotation="120.76185629971" fill="#04CCFF" stroke-width="0" /><rect x="-8.1999998092651" y="-8.1999998092651" width="16.39999961853" height="16.39999961853" transform="translate(99.2889 -29.2201) rotate(331.372 0 0)" bzw:type="2" bzw:position="99.28889465332 -29.220081329346 0" bzw:size="8.1999998092651 8.1999998092651 10.25" bzw:rotation="331.37239226283" fill="#04CCFF" stroke-width="0" bzw:zflip="" /><rect x="-8.1999998092651" y="-8.1999998092651" width="16.39999961853" height="16.39999961853" transform="translate(117.664 261.193) rotate(184.42 0 0)" bzw:type="2" bzw:position="117.66414642334 261.193359375 0" bzw:size="8.1999998092651 8.1999998092651 10.25" bzw:rotation="184.42007996806" fill="#04CCFF" stroke-width="0" bzw:zflip="" /><rect x="-8.1999998092651" y="-8.1999998092651" width="16.39999961853" height="16.39999961853" transform="translate(295.716 114.499) rotate(215.643 0 0)" bzw:type="2" bzw:position="295.71566772461 114.4986114502 0" bzw:size="8.1999998092651 8.1999998092651 10.25" bzw:rotation="215.64292372094" fill="#04CCFF" stroke-width="0" bzw:zflip="" /><rect x="-8.1999998092651" y="-8.1999998092651" width="16.39999961853" height="16.39999961853" transform="translate(-131.925 25.4411) rotate(24.6882 0 0)" bzw:type="2" bzw:position="-131.92456054688 25.441122055054 0" bzw:size="8.1999998092651 8.1999998092651 10.25" bzw:rotation="24.68816100976" fill="#04CCFF" stroke-width="0" bzw:zflip="" /><rect x="-8.1999998092651" y="-8.1999998092651" width="16.39999961853" height="16.39999961853" transform="translate(-78.9628 -271.204) rotate(290.078 0 0)" bzw:type="2" bzw:position="-78.962799072266 -271.20416259766 0" bzw:size="8.1999998092651 8.1999998092651 10.25" bzw:rotation="290.07810672968" fill="#04CCFF" stroke-width="0" bzw:zflip="" /><rect x="-8.1999998092651" y="-8.1999998092651" width="16.39999961853" height="16.39999961853" transform="translate(-25.6914 286.064) rotate(56.8994 0 0)" bzw:type="2" bzw:position="-25.691390991211 286.06448364258 0" bzw:size="8.1999998092651 8.1999998092651 10.25" bzw:rotation="56.899440711019" fill="#04CCFF" stroke-width="0" bzw:zflip="" /><rect x="-8.1999998092651" y="-8.1999998092651" width="16.39999961853" height="16.39999961853" transform="translate(-296.684 -46.1923) rotate(0.492476 0 0)" bzw:type="2" bzw:position="-296.68426513672 -46.192314147949 0" bzw:size="8.1999998092651 8.1999998092651 10.25" bzw:rotation="0.49247584906496" fill="#04CCFF" stroke-width="0" bzw:zflip="" /><rect x="-8.1999998092651" y="-8.1999998092651" width="16.39999961853" height="16.39999961853" transform="translate(208.444 232.161) rotate(356.258 0 0)" bzw:type="2" bzw:position="208.44403076172 232.16061401367 0" bzw:size="8.1999998092651 8.1999998092651 10.25" bzw:rotation="356.25821382453" fill="#04CCFF" stroke-width="0" bzw:zflip="" /><rect x="-8.1999998092651" y="-8.1999998092651" width="16.39999961853" height="16.39999961853" transform="translate(-329.451 -60.482) rotate(358.575 0 0)" bzw:type="2" bzw:position="-329.45114135742 -60.482025146484 0" bzw:size="8.1999998092651 8.1999998092651 10.25" bzw:rotation="358.57523255705" fill="#04CCFF" stroke-width="0" bzw:zflip="" /><rect x="-8.1999998092651" y="-8.1999998092651" width="16.39999961853" height="16.39999961853" transform="translate(151.034 56.1641) rotate(119.337 0 0)" bzw:type="2" bzw:position="151.03364562988 56.164073944092 0" bzw:size="8.1999998092651 8.1999998092651 10.25" bzw:rotation="119.33707883884" fill="#04CCFF" stroke-width="0" bzw:zflip="" /><rect x="-8.1999998092651" y="-8.1999998092651" width="16.39999961853" height="16.39999961853" transform="translate(-278.186 -7.4528) rotate(348.729 0 0)" bzw:type="2" bzw:position="-278.18646240234 -7.4527978897095 0" bzw:size="8.1999998092651 8.1999998092651 10.25" bzw:rotation="348.72921434015" fill="#04CCFF" stroke-width="0" bzw:zflip="" /><rect x="-8.1999998092651" y="-8.1999998092651" width="16.39999961853" height="16.39999961853" transform="translate(383.007 -397.63) rotate(213.409 0 0)" bzw:type="2" bzw:position="383.00689697266 -397.63037109375 0" bzw:size="8.1999998092651 8.1999998092651 10.25" bzw:rotation="213.40923329629" fill="#04CCFF" stroke-width="0" bzw:zflip="" /><rect x="-8.1999998092651" y="-8.1999998092651" width="16.39999961853" height="16.39999961853" transform="translate(97.5055 81.5761) rotate(86.3581 0 0)" bzw:type="2" bzw:position="97.505523681641 81.576110839844 0" bzw:size="8.1999998092651 8.1999998092651 10.25" bzw:rotation="86.358090997514" fill="#04CCFF" stroke-width="0" bzw:zflip="" /><rect x="-8.1999998092651" y="-8.1999998092651" width="16.39999961853" height="16.39999961853" transform="translate(-277.053 136.439) rotate(39.4301 0 0)" bzw:type="2" bzw:position="-277.05334472656 136.43870544434 0" bzw:size="8.1999998092651 8.1999998092651 10.25" bzw:rotation="39.430139078445" fill="#04CCFF" stroke-width="0" bzw:zflip="" /><rect x="-8.1999998092651" y="-8.1999998092651" width="16.39999961853" height="16.39999961853" transform="translate(-148.258 -18.9433) rotate(160.064 0 0)" bzw:type="2" bzw:position="-148.2575378418 -18.943286895752 0" bzw:size="8.1999998092651 8.1999998092651 10.25" bzw:rotation="160.06408984066" fill="#04CCFF" stroke-width="0" bzw:zflip="" /><rect x="-8.1999998092651" y="-8.1999998092651" width="16.39999961853" height="16.39999961853" transform="translate(-262.193 107.5) rotate(304.531 0 0)" bzw:type="2" bzw:position="-262.19305419922 107.49993133545 0" bzw:size="8.1999998092651 8.1999998092651 10.25" bzw:rotation="304.53081433419" fill="#04CCFF" stroke-width="0" bzw:zflip="" /><rect x="-8.1999998092651" y="-8.1999998092651" width="16.39999961853" height="16.39999961853" transform="translate(91.6146 108.594) rotate(112.97 0 0)" bzw:type="2" bzw:position="91.614624023438 108.59432220459 0" bzw:size="8.1999998092651 8.1999998092651 10.25" bzw:rotation="112.96970328699" fill="#04CCFF" stroke-width="0" bzw:zflip="" /><rect x="-8.1999998092651" y="-8.1999998092651" width="16.39999961853" height="16.39999961853" transform="translate(-76.2248 100.279) rotate(159.462 0 0)" bzw:type="2" bzw:position="-76.224754333496 100.27919006348 0" bzw:size="8.1999998092651 8.1999998092651 10.25" bzw:rotation="159.46179009927" fill="#04CCFF" stroke-width="0" bzw:zflip="" /><rect x="-8.1999998092651" y="-8.1999998092651" width="16.39999961853" height="16.39999961853" transform="translate(263.293 97.113) rotate(73.2616 0 0)" bzw:type="2" bzw:position="263.29321289062 97.113037109375 0" bzw:size="8.1999998092651 8.1999998092651 10.25" bzw:rotation="73.261592584797" fill="#04CCFF" stroke-width="0" bzw:zflip="" /><rect x="-8.1999998092651" y="-8.1999998092651" width="16.39999961853" height="16.39999961853" transform="translate(-80.5427 362.307) rotate(105.009 0 0)" bzw:type="2" bzw:position="-80.542709350586 362.30654907227 0" bzw:size="8.1999998092651 8.1999998092651 10.25" bzw:rotation="105.00857822439" fill="#04CCFF" stroke-width="0" bzw:zflip="" /><rect x="-8.1999998092651" y="-8.1999998092651" width="16.39999961853" height="16.39999961853" transform="translate(312.005 337.26) rotate(352.974 0 0)" bzw:type="2" bzw:position="312.00451660156 337.26037597656 0" bzw:size="8.1999998092651 8.1999998092651 10.25" bzw:rotation="352.97371245645" fill="#04CCFF" stroke-width="0" bzw:zflip="" /><rect x="-8.1999998092651" y="-8.1999998092651" width="16.39999961853" height="16.39999961853" transform="translate(314.374 11.5031) rotate(47.7898 0 0)" bzw:type="2" bzw:position="314.37411499023 11.503124237061 0" bzw:size="8.1999998092651 8.1999998092651 10.25" bzw:rotation="47.789805679109" fill="#04CCFF" stroke-width="0" bzw:zflip="" /><rect x="-8.1999998092651" y="-8.1999998092651" width="16.39999961853" height="16.39999961853" transform="translate(-4.04975 203.41) rotate(40.1429 0 0)" bzw:type="2" bzw:position="-4.0497541427612 203.40995788574 0" bzw:size="8.1999998092651 8.1999998092651 10.25" bzw:rotation="40.142913714565" fill="#04CCFF" stroke-width="0" bzw:zflip="" /></g></svg>