<?xml version="1.0" encoding="utf-8"?><svg width="800px" height="800px" xmlns:bzw="http://schemas.allejo.dev/php/bzflag-rendering" viewBox="0 0 800 800" xmlns="http://www.w3.org/2000/svg" xmlns:xlink="http://www.w3.org/1999/xlink" style="border: 1px solid rgb(0, 204, 255)"><rect x="263.21072387695" y="243.02339172363" width="30" height="30" transform="translate(-293.210724 -273.023392) scale(2 2) rotate(-103.051982 278.210724 258.023392)" bzw:type="1" bzw:position="-136.79 156.98 0.00" bzw:size="30.00 30.00 9.42" bzw:rotation="103" fill="#04CCFF" /><rect x="241.40065002441" y="581.62010192871" width="30" height="30" transform="translate(-271.400650 -611.620102) scale(2 2) rotate(-184.179958 256.400650 596.620102)" bzw:type="1" bzw:position="-158.60 -181.62 0.00" bzw:size="30.00 30.00 9.42" bzw:rotation="184" fill="#04CCFF" /><rect x="789.52856445312" y="109.70483398438" width="30" height="30" transform="translate(-819.528564 -139.704834) scale(2 2) rotate(-278.881651 804.528564 124.704834)" bzw:type="1" bzw:position="389.53 290.30 0.00" bzw:size="30.00 30.00 9.42" bzw:rotation="279" fill="#04CCFF" /><rect x="18.375244140625" y="509.58654785156" width="30" height="30" transform="translate(-48.375244 -539.586548) scale(2 2) rotate(-213.047684 33.375244 524.586548)" bzw:type="1" bzw:position="-381.62 -109.59 0.00" bzw:size="30.00 30.00 9.42" bzw:rotation="213" fill="#04CCFF" /><rect x="178.05151367188" y="146.69476318359" width="30" height="30" transform="translate(-208.051514 -176.694763) scale(2 2) rotate(-31.222847 193.051514 161.694763)" bzw:type="1" bzw:position="-221.95 253.31 0.00" bzw:size="30.00 30.00 9.42" bzw:rotation="31" fill="#04CCFF" /><rect x="372.35980033875" y="89.057556152344" width="30" height="30" transform="translate(-402.359800 -119.057556) scale(2 2) rotate(-169.045229 387.359800 104.057556)" bzw:type="1" bzw:position="-27.64 310.94 0.00" bzw:size="30.00 30.00 9.42" bzw:rotation="169" fill="#04CCFF" /><rect x="52.961730957031" y="296.64526367188" width="30" height="30" transform="translate(-82.961731 -326.645264) scale(2 2) rotate(-265.389951 67.961731 311.645264)" bzw:type="1" bzw:position="-347.04 103.35 0.00" bzw:size="30.00 30.00 9.42" bzw:rotation="265" fill="#04CCFF" /><rect x="53.271423339844" y="242.73138427734" width="30" height="30" transform="translate(-83.271423 -272.731384) scale(2 2) rotate(-126.821327 68.271423 257.731384)" bzw:type="1" bzw:position="-346.73 157.27 0.00" bzw:size="30.00 30.00 9.42" bzw:rotation="127" fill="#04CCFF" /><rect x="529.00714111328" y="332.25679016113" width="30" height="30" transform="translate(-559.007141 -362.256790) scale(2 2) rotate(-303.593029 544.007141 347.256790)" bzw:type="1" bzw:position="129.01 67.74 0.00" bzw:size="30.00 30.00 9.42" bzw:rotation="304" fill="#04CCFF" /><rect x="505.12828826904" y="521.64707183838" width="30" height="30" transform="translate(-535.128288 -551.647072) scale(2 2) rotate(-355.765730 520.128288 536.647072)" bzw:type="1" bzw:position="105.13 -121.65 0.00" bzw:size="30.00 30.00 9.42" bzw:rotation="356" fill="#04CCFF" /><rect x="262.10484313965" y="292.64263916016" width="30" height="30" transform="translate(-292.104843 -322.642639) scale(2 2) rotate(-2.317023 277.104843 307.642639)" bzw:type="1" bzw:position="-137.90 107.36 0.00" bzw:size="30.00 30.00 9.42" bzw:rotation="2" fill="#04CCFF" /><rect x="480.48477172852" y="683.35385131836" width="30" height="30" transform="translate(-510.484772 -713.353851) scale(2 2) rotate(-120.761856 495.484772 698.353851)" bzw:type="1" bzw:position="80.48 -283.35 0.00" bzw:size="30.00 30.00 9.42" bzw:rotation="121" fill="#04CCFF" /><rect x="499.28889465332" y="429.22008132935" width="8.1999998092651" height="8.1999998092651" transform="translate(-507.488894 -437.420081) scale(2 2) rotate(-331.372392 503.388895 433.320081)" bzw:type="2" bzw:position="99.29 -29.22 0.00" bzw:size="8.20 8.20 10.25" bzw:rotation="331" fill="#04CCFF" /><rect x="517.66414642334" y="138.806640625" width="8.1999998092651" height="8.1999998092651" transform="translate(-525.864146 -147.006640) scale(2 2) rotate(-184.420080 521.764146 142.906641)" bzw:type="2" bzw:position="117.66 261.19 0.00" bzw:size="8.20 8.20 10.25" bzw:rotation="184" fill="#04CCFF" /><rect x="695.71566772461" y="285.5013885498" width="8.1999998092651" height="8.1999998092651" transform="translate(-703.915668 -293.701388) scale(2 2) rotate(-215.642924 699.815668 289.601388)" bzw:type="2" bzw:position="295.72 114.50 0.00" bzw:size="8.20 8.20 10.25" bzw:rotation="216" fill="#04CCFF" /><rect x="268.07543945312" y="374.55887794495" width="8.1999998092651" height="8.1999998092651" transform="translate(-276.275439 -382.758878) scale(2 2) rotate(-24.688161 272.175439 378.658878)" bzw:type="2" bzw:position="-131.92 25.44 0.00" bzw:size="8.20 8.20 10.25" bzw:rotation="25" fill="#04CCFF" /><rect x="321.03720092773" y="671.20416259766" width="8.1999998092651" height="8.1999998092651" transform="translate(-329.237201 -679.404162) scale(2 2) rotate(-290.078107 325.137201 675.304163)" bzw:type="2" bzw:position="-78.96 -271.20 0.00" bzw:size="8.20 8.20 10.25" bzw:rotation="290" fill="#04CCFF" /><rect x="374.30860900879" y="113.93551635742" width="8.1999998092651" height="8.1999998092651" transform="translate(-382.508609 -122.135516) scale(2 2) rotate(-56.899441 378.408609 118.035516)" bzw:type="2" bzw:position="-25.69 286.06 0.00" bzw:size="8.20 8.20 10.25" bzw:rotation="57" fill="#04CCFF" /><rect x="103.31573486328" y="446.19231414795" width="8.1999998092651" height="8.1999998092651" transform="translate(-111.515735 -454.392314) scale(2 2) rotate(-0.492476 107.415735 450.292314)" bzw:type="2" bzw:position="-296.68 -46.19 0.00" bzw:size="8.20 8.20 10.25" bzw:rotation="0" fill="#04CCFF" /><rect x="608.44403076172" y="167.83938598633" width="8.1999998092651" height="8.1999998092651" transform="translate(-616.644031 -176.039386) scale(2 2) rotate(-356.258214 612.544031 171.939386)" bzw:type="2" bzw:position="208.44 232.16 0.00" bzw:size="8.20 8.20 10.25" bzw:rotation="356" fill="#04CCFF" /><rect x="70.548858642578" y="460.48202514648" width="8.1999998092651" height="8.1999998092651" transform="translate(-78.748858 -468.682025) scale(2 2) rotate(-358.575233 74.648859 464.582025)" bzw:type="2" bzw:position="-329.45 -60.48 0.00" bzw:size="8.20 8.20 10.25" bzw:rotation="359" fill="#04CCFF" /><rect x="551.03364562988" y="343.83592605591" width="8.1999998092651" height="8.1999998092651" transform="translate(-559.233645 -352.035926) scale(2 2) rotate(-119.337079 555.133646 347.935926)" bzw:type="2" bzw:position="151.03 56.16 0.00" bzw:size="8.20 8.20 10.25" bzw:rotation="119" fill="#04CCFF" /><rect x="121.81353759766" y="407.45279788971" width="8.1999998092651" height="8.1999998092651" transform="translate(-130.013537 -415.652798) scale(2 2) rotate(-348.729214 125.913538 411.552798)" bzw:type="2" bzw:position="-278.19 -7.45 0.00" bzw:size="8.20 8.20 10.25" bzw:rotation="349" fill="#04CCFF" /><rect x="783.00689697266" y="797.63037109375" width="8.1999998092651" height="8.1999998092651" transform="translate(-791.206897 -805.830371) scale(2 2) rotate(-213.409233 787.106897 801.730371)" bzw:type="2" bzw:position="383.01 -397.63 0.00" bzw:size="8.20 8.20 10.25" bzw:rotation="213" fill="#04CCFF" /><rect x="497.50552368164" y="318.42388916016" width="8.1999998092651" height="8.1999998092651" transform="translate(-505.705523 -326.623889) scale(2 2) rotate(-86.358091 501.605524 322.523889)" bzw:type="2" bzw:position="97.51 81.58 0.00" bzw:size="8.20 8.20 10.25" bzw:rotation="86" fill="#04CCFF" /><rect x="122.94665527344" y="263.56129455566" width="8.1999998092651" height="8.1999998092651" transform="translate(-131.146655 -271.761294) scale(2 2) rotate(-39.430139 127.046655 267.661294)" bzw:type="2" bzw:position="-277.05 136.44 0.00" bzw:size="8.20 8.20 10.25" bzw:rotation="39" fill="#04CCFF" /><rect x="251.7424621582" y="418.94328689575" width="8.1999998092651" height="8.1999998092651" transform="translate(-259.942462 -427.143287) scale(2 2) rotate(-160.064090 255.842462 423.043287)" bzw:type="2" bzw:position="-148.26 -18.94 0.00" bzw:size="8.20 8.20 10.25" bzw:rotation="160" fill="#04CCFF" /><rect x="137.80694580078" y="292.50006866455" width="8.1999998092651" height="8.1999998092651" transform="translate(-146.006946 -300.700068) scale(2 2) rotate(-304.530814 141.906946 296.600069)" bzw:type="2" bzw:position="-262.19 107.50 0.00" bzw:size="8.20 8.20 10.25" bzw:rotation="305" fill="#04CCFF" /><rect x="491.61462402344" y="291.40567779541" width="8.1999998092651" height="8.1999998092651" transform="translate(-499.814624 -299.605678) scale(2 2) rotate(-112.969703 495.714624 295.505678)" bzw:type="2" bzw:position="91.61 108.59 0.00" bzw:size="8.20 8.20 10.25" bzw:rotation="113" fill="#04CCFF" /><rect x="323.7752456665" y="299.72080993652" width="8.1999998092651" height="8.1999998092651" transform="translate(-331.975245 -307.920810) scale(2 2) rotate(-159.461790 327.875246 303.820810)" bzw:type="2" bzw:position="-76.22 100.28 0.00" bzw:size="8.20 8.20 10.25" bzw:rotation="159" fill="#04CCFF" /><rect x="663.29321289062" y="302.88696289062" width="8.1999998092651" height="8.1999998092651" transform="translate(-671.493213 -311.086963) scale(2 2) rotate(-73.261593 667.393213 306.986963)" bzw:type="2" bzw:position="263.29 97.11 0.00" bzw:size="8.20 8.20 10.25" bzw:rotation="73" fill="#04CCFF" /><rect x="319.45729064941" y="37.693450927734" width="8.1999998092651" height="8.1999998092651" transform="translate(-327.657290 -45.893451) scale(2 2) rotate(-105.008578 323.557291 41.793451)" bzw:type="2" bzw:position="-80.54 362.31 0.00" bzw:size="8.20 8.20 10.25" bzw:rotation="105" fill="#04CCFF" /><rect x="712.00451660156" y="62.739624023438" width="8.1999998092651" height="8.1999998092651" transform="translate(-720.204516 -70.939624) scale(2 2) rotate(-352.973712 716.104517 66.839624)" bzw:type="2" bzw:position="312.00 337.26 0.00" bzw:size="8.20 8.20 10.25" bzw:rotation="353" fill="#04CCFF" /><rect x="714.37411499023" y="388.49687576294" width="8.1999998092651" height="8.1999998092651" transform="translate(-722.574115 -396.696876) scale(2 2) rotate(-47.789806 718.474115 392.596876)" bzw:type="2" bzw:position="314.37 11.50 0.00" bzw:size="8.20 8.20 10.25" bzw:rotation="48" fill="#04CCFF" /><rect x="395.95024585724" y="196.59004211426" width="8.1999998092651" height="8.1999998092651" transform="translate(-404.150246 -204.790042) scale(2 2) rotate(-40.142914 400.050246 200.690042)" bzw:type="2" bzw:position="-4.05 203.41 0.00" bzw:size="8.20 8.20 10.25" bzw:rotation="40" fill="#04CCFF" /></svg>