<?xml version="1.0" encoding="utf-8"?><svg width="800px" height="800px" viewBox="-400 -400 800 800" xmlns="http://www.w3.org/2000/svg" xmlns:xlink="http://www.w3.org/1999/xlink" style="border: 1px solid #04CCFF"><g transform="scale(1, -1)"><rect x="-30" y="-30" width="60" height="60" transform="translate(-136.789 156.977) rotate(103.052 0 0)" fill="#04CCFF" /><rect x="-30" y="-30" width="60" height="60" transform="translate(-158.599 -181.62) rotate(184.18 0 0)" fill="#04CCFF" /><rect x="-30" y="-30" width="60" height="60" transform="translate(389.529 290.295) rotate(278.882 0 0)" fill="#04CCFF" /><rect x="-30" y="-30" width="60" height="60" transform="translate(-381.625 -109.587) rotate(213.048 0 0)" fill="#04CCFF" /><rect x="-30" y="-30" width="60" height="60" transform="translate(-221.948 253.305) rotate(31.2228 0 0)" fill="#04CCFF" /><rect x="-30" y="-30" width="60" height="60" transform="translate(-27.6402 310.942) rotate(169.045 0 0)" fill="#04CCFF" /><rect x="-30" y="-30" width="60" height="60" transform="translate(-347.038 103.355) rotate(265.39 0 0)" fill="#04CCFF" /><rect x="-30" y="-30" width="60" height="60" transform="translate(-346.729 157.269) rotate(126.821 0 0)" fill="#04CCFF" /><rect x="-30" y="-30" width="60" height="60" transform="translate(129.007 67.7432) rotate(303.593 0 0)" fill="#04CCFF" /><rect x="-30" y="-30" width="60" height="60" transform="translate(105.128 -121.647) rotate(355.766 0 0)" fill="#04CCFF" /><rect x="-30" y="-30" width="60" height="60" transform="translate(-137.895 107.357) rotate(2.31702 0 0)" fill="#04CCFF" /><rect x="-30" y="-30" width="60" height="60" transform="translate(80.4848 -283.354) rotate(120.762 0 0)" fill="#04CCFF" /><rect x="-8.1999998092651" y="-8.1999998092651" width="16.39999961853" height="16.39999961853" transform="translate(99.2889 -29.2201) rotate(331.372 0 0)" fill="#04CCFF" /><rect x="-8.1999998092651" y="-8.1999998092651" width="16.39999961853" height="16.39999961853" transform="translate(117.664 261.193) rotate(184.42 0 0)" fill="#04CCFF" /><rect x="-8.1999998092651" y="-8.1999998092651" width="16.39999961853" height="16.39999961853" transform="translate(295.716 114.499) rotate(215.643 0 0)" fill="#04CCFF" /><rect x="-8.1999998092651" y="-8.1999998092651" width="16.39999961853" height="16.39999961853" transform="translate(-131.925 25.4411) rotate(24.6882 0 0)" fill="#04CCFF" /><rect x="-8.1999998092651" y="-8.1999998092651" width="16.39999961853" height="16.39999961853" transform="translate(-78.9628 -271.204) rotate(290.078 0 0)" fill="#04CCFF" /><rect x="-8.1999998092651" y="-8.1999998092651" width="16.39999961853" height="16.39999961853" transform="translate(-25.6914 286.064) rotate(56.8994 0 0)" fill="#04CCFF" /><rect x="-8.1999998092651" y="-8.1999998092651" width="16.39999961853" height="16.39999961853" transform="translate(-296.684 -46.1923) rotate(0.492476 0 0)" fill="#04CCFF" /><rect x="-8.1999998092651" y="-8.1999998092651" width="16.39999961853" height="16.39999961853" transform="translate(208.444 232.161) rotate(356.258 0 0)" fill="#04CCFF" /><rect x="-8.1999998092651" y="-8.1999998092651" width="16.39999961853" height="16.39999961853" transform="translate(-329.451 -60.482) rotate(358.575 0 0)" fill="#04CCFF" /><rect x="-8.1999998092651" y="-8.1999998092651" width="16.39999961853" height="16.39999961853" transform="translate(151.034 56.1641) rotate(119.337 0 0)" fill="#04CCFF" /><rect x="-8.1999998092651" y="-8.1999998092651" width="16.39999961853" height="16.39999961853" transform="translate(-278.186 -7.4528) rotate(348.729 0 0)" fill="#04CCFF" /><rect x="-8.1999998092651" y="-8.1999998092651" width="16.39999961853" height="16.39999961853" transform="translate(383.007 -397.63) rotate(213.409 0 0)" fill="#04CCFF" /><rect x="-8.1999998092651" y="-8.1999998092651" width="16.39999961853" height="16.39999961853" transform="translate(97.5055 81.5761) rotate(86.3581 0 0)" fill="#04CCFF" /><rect x="-8.1999998092651" y="-8.1999998092651" width="16.39999961853" height="16.39999961853" transform="translate(-277.053 136.439) rotate(39.4301 0 0)" fill="#04CCFF" /><rect x="-8.1999998092651" y="-8.1999998092651" width="16.39999961853" height="16.39999961853" transform="translate(-148.258 -18.9433) rotate(160.064 0 0)" fill="#04CCFF" /><rect x="-8.1999998092651" y="-8.1999998092651" width="16.39999961853" height="16.39999961853" transform="translate(-262.193 107.5) rotate(304.531 0 0)" fill="#04CCFF" /><rect x="-8.1999998092651" y="-8.1999998092651" width="16.39999961853" height="16.39999961853" transform="translate(91.6146 108.594) rotate(112.97 0 0)" fill="#04CCFF" /><rect x="-8.1999998092651" y="-8.1999998092651" width="16.39999961853" height="16.39999961853" transform="translate(-76.2248 100.279) rotate(159.462 0 0)" fill="#04CCFF" /><rect x="-8.1999998092651" y="-8.1999998092651" width="16.39999961853" height="16.39999961853" transform="translate(263.293 97.113) rotate(73.2616 0 0)" fill="#04CCFF" /><rect x="-8.1999998092651" y="-8.1999998092651" width="16.39999961853" height="16.39999961853" transform="translate(-80.5427 362.307) rotate(105.009 0 0)" fill="#04CCFF" /><rect x="-8.1999998092651" y="-8.1999998092651" width="16.39999961853" height="16.39999961853" transform="translate(312.005 337.26) rotate(352.974 0 0)" fill="#04CCFF" /><rect x="-8.1999998092651" y="-8.1999998092651" width="16.39999961853" height="16.39999961853" transform="translate(314.374 11.5031) rotate(47.7898 0 0)" fill="#04CCFF" /><rect x="-8.1999998092651" y="-8.1999998092651" width="16.39999961853" height="16.39999961853" transform="translate(-4.04975 203.41) rotate(40.1429 0 0)" fill="#04CCFF" /></g></svg>