<?xml version="1.0" encoding="utf-8"?><svg width="600px" height="600px" viewBox="-300 -300 600 600" xmlns:bzw="http://schemas.allejo.dev/php/bzflag-rendering" xmlns="http://www.w3.org/2000/svg" xmlns:xlink="http://www.w3.org/1999/xlink"><rect x="-299.5" y="-299.5" width="599" height="599" fill-opacity="0" stroke="#04CCFF" stroke-width="1" /><g transform="scale(1, -1)"><rect x="-20" y="-20" width="40" height="40" transform="translate(0 277.5) rotate(0 0 0)" bzw:type="3" bzw:position="0 277.5 0" bzw:size="21.200000762939 21.200000762939 0" bzw:rotation="0" fill-opacity="0" stroke="#FF0000" stroke-width="2" bzw:team="1" /><rect x="-20" y="-20" width="40" height="40" transform="translate(0 -277.5) rotate(0 0 0)" bzw:type="3" bzw:position="0 -277.5 0" bzw:size="21.200000762939 21.200000762939 0" bzw:rotation="0" fill-opacity="0" stroke="#00CA00" stroke-width="2" bzw:team="2" /><g bzw:type="5" fill="#04CCFF" stroke-width="0"><polygon points="-25.605600357056,-227.07780456543 -50.227199554443,-219.60890197754 -50.227199554443,-219.60890197754 -25.605600357056,-227.07780456543" /><polygon points="-25.605600357056,-227.07780456543 -26.885900497437,-233.51420593262 -52.73860168457,-225.67190551758 -50.227199554443,-219.60890197754" /><polygon points="-25.605600357056,-227.07780456543 -26.885900497437,-233.51420593262 -26.885900497437,-233.51420593262 -25.605600357056,-227.07780456543" /><polygon points="-50.227199554443,-219.60890197754 -72.918601989746,-207.47999572754 -72.918601989746,-207.47999572754 -50.227199554443,-219.60890197754" /><polygon points="-50.227199554443,-219.60890197754 -52.73860168457,-225.67190551758 -76.564598083496,-212.93649291992 -72.918601989746,-207.47999572754" /><polygon points="-72.918601989746,-207.47999572754 -76.564598083496,-212.93649291992 -76.564598083496,-212.93649291992 -72.918601989746,-207.47999572754" /><polygon points="-26.885900497437,-233.51420593262 -52.73860168457,-225.67190551758 -52.73860168457,-225.67190551758 -26.885900497437,-233.51420593262" /><polygon points="-52.73860168457,-225.67190551758 -76.564598083496,-212.93649291992 -76.564598083496,-212.93649291992 -52.73860168457,-225.67190551758" /><polygon points="-50.227199554443,-219.60890197754 -52.73860168457,-225.67190551758 -26.885900497437,-233.51420593262 -25.605600357056,-227.07780456543" /><polygon points="-72.918601989746,-207.47999572754 -76.564598083496,-212.93649291992 -52.73860168457,-225.67190551758 -50.227199554443,-219.60890197754" /></g><g bzw:type="5" fill="#04CCFF" stroke-width="0"><polygon points="25.605600357056,227.07780456543 50.227199554443,219.60890197754 50.227199554443,219.60890197754 25.605600357056,227.07780456543" /><polygon points="25.605600357056,227.07780456543 26.885900497437,233.51420593262 52.73860168457,225.67179870605 50.227199554443,219.60890197754" /><polygon points="25.605600357056,227.07780456543 26.885900497437,233.51420593262 26.885900497437,233.51420593262 25.605600357056,227.07780456543" /><polygon points="50.227199554443,219.60890197754 72.918601989746,207.48010253906 72.918601989746,207.48010253906 50.227199554443,219.60890197754" /><polygon points="50.227199554443,219.60890197754 52.73860168457,225.67179870605 76.564498901367,212.93659973145 72.918601989746,207.48010253906" /><polygon points="72.918601989746,207.48010253906 76.564498901367,212.93659973145 76.564498901367,212.93659973145 72.918601989746,207.48010253906" /><polygon points="26.885900497437,233.51420593262 52.73860168457,225.67179870605 52.73860168457,225.67179870605 26.885900497437,233.51420593262" /><polygon points="52.73860168457,225.67179870605 76.564498901367,212.93659973145 76.564498901367,212.93659973145 52.73860168457,225.67179870605" /><polygon points="50.227199554443,219.60890197754 52.73860168457,225.67179870605 26.885900497437,233.51420593262 25.605600357056,227.07780456543" /><polygon points="72.918601989746,207.48010253906 76.564498901367,212.93659973145 52.73860168457,225.67179870605 50.227199554443,219.60890197754" /></g><g bzw:type="5" fill="#04CCFF" stroke-width="0"><polygon points="-72.918502807617,207.48010253906 -50.227100372314,219.60879516602 -50.227100372314,219.60879516602 -72.918502807617,207.48010253906" /><polygon points="-72.918502807617,207.48010253906 -76.564498901367,212.93659973145 -52.738498687744,225.67179870605 -50.227100372314,219.60879516602" /><polygon points="-72.918502807617,207.48010253906 -76.564498901367,212.93659973145 -76.564498901367,212.93659973145 -72.918502807617,207.48010253906" /><polygon points="-50.227100372314,219.60879516602 -25.605499267578,227.07769775391 -25.605499267578,227.07769775391 -50.227100372314,219.60879516602" /><polygon points="-50.227100372314,219.60879516602 -52.738498687744,225.67179870605 -26.885799407959,233.51409912109 -25.605499267578,227.07769775391" /><polygon points="-25.605499267578,227.07769775391 -26.885799407959,233.51409912109 -26.885799407959,233.51409912109 -25.605499267578,227.07769775391" /><polygon points="-76.564498901367,212.93659973145 -52.738498687744,225.67179870605 -52.738498687744,225.67179870605 -76.564498901367,212.93659973145" /><polygon points="-52.738498687744,225.67179870605 -26.885799407959,233.51409912109 -26.885799407959,233.51409912109 -52.738498687744,225.67179870605" /><polygon points="-50.227100372314,219.60879516602 -52.738498687744,225.67179870605 -76.564498901367,212.93659973145 -72.918502807617,207.48010253906" /><polygon points="-25.605499267578,227.07769775391 -26.885799407959,233.51409912109 -52.738498687744,225.67179870605 -50.227100372314,219.60879516602" /></g><g bzw:type="5" fill="#04CCFF" stroke-width="0"><polygon points="253.50540161133,217.29359436035 265.63418579102,194.60220336914 265.63418579102,194.60220336914 253.50540161133,217.29359436035" /><polygon points="253.50540161133,217.29359436035 258.9619140625,220.93949890137 271.69720458984,197.11349487305 265.63418579102,194.60220336914" /><polygon points="253.50540161133,217.29359436035 258.9619140625,220.93949890137 258.9619140625,220.93949890137 253.50540161133,217.29359436035" /><polygon points="265.63418579102,194.60220336914 273.10308837891,169.9806060791 273.10308837891,169.9806060791 265.63418579102,194.60220336914" /><polygon points="265.63418579102,194.60220336914 271.69720458984,197.11349487305 279.53948974609,171.26089477539 273.10308837891,169.9806060791" /><polygon points="273.10308837891,169.9806060791 279.53948974609,171.26089477539 279.53948974609,171.26089477539 273.10308837891,169.9806060791" /><polygon points="258.9619140625,220.93949890137 271.69720458984,197.11349487305 271.69720458984,197.11349487305 258.9619140625,220.93949890137" /><polygon points="271.69720458984,197.11349487305 279.53948974609,171.26089477539 279.53948974609,171.26089477539 271.69720458984,197.11349487305" /><polygon points="265.63418579102,194.60220336914 271.69720458984,197.11349487305 258.9619140625,220.93949890137 253.50540161133,217.29359436035" /><polygon points="273.10308837891,169.9806060791 279.53948974609,171.26089477539 271.69720458984,197.11349487305 265.63418579102,194.60220336914" /></g><g bzw:type="5" fill="#04CCFF" stroke-width="0"><polygon points="273.10308837891,-169.9806060791 265.63418579102,-194.60220336914 265.63418579102,-194.60220336914 273.10308837891,-169.9806060791" /><polygon points="273.10308837891,-169.9806060791 279.53948974609,-171.26089477539 271.69720458984,-197.11349487305 265.63418579102,-194.60220336914" /><polygon points="273.10308837891,-169.9806060791 279.53948974609,-171.26089477539 279.53948974609,-171.26089477539 273.10308837891,-169.9806060791" /><polygon points="265.63418579102,-194.60220336914 253.50540161133,-217.29359436035 253.50540161133,-217.29359436035 265.63418579102,-194.60220336914" /><polygon points="265.63418579102,-194.60220336914 271.69720458984,-197.11349487305 258.9619140625,-220.93949890137 253.50540161133,-217.29359436035" /><polygon points="253.50540161133,-217.29359436035 258.9619140625,-220.93949890137 258.9619140625,-220.93949890137 253.50540161133,-217.29359436035" /><polygon points="279.53948974609,-171.26089477539 271.69720458984,-197.11349487305 271.69720458984,-197.11349487305 279.53948974609,-171.26089477539" /><polygon points="271.69720458984,-197.11349487305 258.9619140625,-220.93949890137 258.9619140625,-220.93949890137 271.69720458984,-197.11349487305" /><polygon points="265.63418579102,-194.60220336914 271.69720458984,-197.11349487305 279.53948974609,-171.26089477539 273.10308837891,-169.9806060791" /><polygon points="253.50540161133,-217.29359436035 258.9619140625,-220.93949890137 271.69720458984,-197.11349487305 265.63418579102,-194.60220336914" /></g><g bzw:type="5" fill="#04CCFF" stroke-width="0"><polygon points="169.9806060791,-273.10308837891 171.26089477539,-279.53948974609 171.26089477539,-279.53948974609 169.9806060791,-273.10308837891" /><polygon points="169.9806060791,-273.10308837891 171.26089477539,-279.53948974609 171.26089477539,-279.53948974609 169.9806060791,-273.10308837891" /><polygon points="217.29359436035,-253.50540161133 194.60220336914,-265.63418579102 194.60220336914,-265.63418579102 217.29359436035,-253.50540161133" /><polygon points="217.29359436035,-253.50540161133 220.93949890137,-258.9619140625 197.11349487305,-271.69720458984 194.60220336914,-265.63418579102" /><polygon points="217.29359436035,-253.50540161133 220.93949890137,-258.9619140625 220.93949890137,-258.9619140625 217.29359436035,-253.50540161133" /><polygon points="194.60220336914,-265.63418579102 169.9806060791,-273.10308837891 169.9806060791,-273.10308837891 194.60220336914,-265.63418579102" /><polygon points="194.60220336914,-265.63418579102 197.11349487305,-271.69720458984 171.26089477539,-279.53948974609 169.9806060791,-273.10308837891" /><polygon points="220.93949890137,-258.9619140625 197.11349487305,-271.69720458984 197.11349487305,-271.69720458984 220.93949890137,-258.9619140625" /><polygon points="197.11349487305,-271.69720458984 171.26089477539,-279.53948974609 171.26089477539,-279.53948974609 197.11349487305,-271.69720458984" /><polygon points="194.60220336914,-265.63418579102 197.11349487305,-271.69720458984 220.93949890137,-258.9619140625 217.29359436035,-253.50540161133" /><polygon points="169.9806060791,-273.10308837891 171.26089477539,-279.53948974609 197.11349487305,-271.69720458984 194.60220336914,-265.63418579102" /></g><g bzw:type="5" fill="#04CCFF" stroke-width="0"><polygon points="-169.9806060791,-273.1028137207 -194.60220336914,-265.63391113281 -194.60220336914,-265.63391113281 -169.9806060791,-273.1028137207" /><polygon points="-169.9806060791,-273.1028137207 -171.26089477539,-279.53921508789 -197.11360168457,-271.69680786133 -194.60220336914,-265.63391113281" /><polygon points="-169.9806060791,-273.1028137207 -171.26089477539,-279.53921508789 -171.26089477539,-279.53921508789 -169.9806060791,-273.1028137207" /><polygon points="-194.60220336914,-265.63391113281 -217.29359436035,-253.50509643555 -217.29359436035,-253.50509643555 -194.60220336914,-265.63391113281" /><polygon points="-194.60220336914,-265.63391113281 -197.11360168457,-271.69680786133 -220.93960571289,-258.96160888672 -217.29359436035,-253.50509643555" /><polygon points="-217.29359436035,-253.50509643555 -220.93960571289,-258.96160888672 -220.93960571289,-258.96160888672 -217.29359436035,-253.50509643555" /><polygon points="-171.26089477539,-279.53921508789 -197.11360168457,-271.69680786133 -197.11360168457,-271.69680786133 -171.26089477539,-279.53921508789" /><polygon points="-197.11360168457,-271.69680786133 -220.93960571289,-258.96160888672 -220.93960571289,-258.96160888672 -197.11360168457,-271.69680786133" /><polygon points="-194.60220336914,-265.63391113281 -197.11360168457,-271.69680786133 -171.26089477539,-279.53921508789 -169.9806060791,-273.1028137207" /><polygon points="-217.29359436035,-253.50509643555 -220.93960571289,-258.96160888672 -197.11360168457,-271.69680786133 -194.60220336914,-265.63391113281" /></g><g bzw:type="5" fill="#04CCFF" stroke-width="0"><polygon points="-253.50540161133,-217.29319763184 -265.63418579102,-194.60180664062 -265.63418579102,-194.60180664062 -253.50540161133,-217.29319763184" /><polygon points="-253.50540161133,-217.29319763184 -258.9619140625,-220.93919372559 -271.69720458984,-197.11320495605 -265.63418579102,-194.60180664062" /><polygon points="-253.50540161133,-217.29319763184 -258.9619140625,-220.93919372559 -258.9619140625,-220.93919372559 -253.50540161133,-217.29319763184" /><polygon points="-265.63418579102,-194.60180664062 -273.10308837891,-169.9801940918 -273.10308837891,-169.9801940918 -265.63418579102,-194.60180664062" /><polygon points="-265.63418579102,-194.60180664062 -271.69720458984,-197.11320495605 -279.53948974609,-171.26049804688 -273.10308837891,-169.9801940918" /><polygon points="-273.10308837891,-169.9801940918 -279.53948974609,-171.26049804688 -279.53948974609,-171.26049804688 -273.10308837891,-169.9801940918" /><polygon points="-258.9619140625,-220.93919372559 -271.69720458984,-197.11320495605 -271.69720458984,-197.11320495605 -258.9619140625,-220.93919372559" /><polygon points="-271.69720458984,-197.11320495605 -279.53948974609,-171.26049804688 -279.53948974609,-171.26049804688 -271.69720458984,-197.11320495605" /><polygon points="-265.63418579102,-194.60180664062 -271.69720458984,-197.11320495605 -258.9619140625,-220.93919372559 -253.50540161133,-217.29319763184" /><polygon points="-273.10308837891,-169.9801940918 -279.53948974609,-171.26049804688 -271.69720458984,-197.11320495605 -265.63418579102,-194.60180664062" /></g><g bzw:type="5" fill="#04CCFF" stroke-width="0"><polygon points="-273.10299682617,169.9801940918 -265.63409423828,194.60180664062 -265.63409423828,194.60180664062 -273.10299682617,169.9801940918" /><polygon points="-273.10299682617,169.9801940918 -279.53939819336,171.26049804688 -271.6969909668,197.11320495605 -265.63409423828,194.60180664062" /><polygon points="-273.10299682617,169.9801940918 -279.53939819336,171.26049804688 -279.53939819336,171.26049804688 -273.10299682617,169.9801940918" /><polygon points="-265.63409423828,194.60180664062 -253.5052947998,217.29319763184 -253.5052947998,217.29319763184 -265.63409423828,194.60180664062" /><polygon points="-265.63409423828,194.60180664062 -271.6969909668,197.11320495605 -258.96179199219,220.93919372559 -253.5052947998,217.29319763184" /><polygon points="-253.5052947998,217.29319763184 -258.96179199219,220.93919372559 -258.96179199219,220.93919372559 -253.5052947998,217.29319763184" /><polygon points="-279.53939819336,171.26049804688 -271.6969909668,197.11320495605 -271.6969909668,197.11320495605 -279.53939819336,171.26049804688" /><polygon points="-271.6969909668,197.11320495605 -258.96179199219,220.93919372559 -258.96179199219,220.93919372559 -271.6969909668,197.11320495605" /><polygon points="-265.63409423828,194.60180664062 -271.6969909668,197.11320495605 -279.53939819336,171.26049804688 -273.10299682617,169.9801940918" /><polygon points="-253.5052947998,217.29319763184 -258.96179199219,220.93919372559 -271.6969909668,197.11320495605 -265.63409423828,194.60180664062" /></g><g bzw:type="5" fill="#04CCFF" stroke-width="0"><polygon points="-217.29339599609,253.50500488281 -194.60200500488,265.6337890625 -194.60200500488,265.6337890625 -217.29339599609,253.50500488281" /><polygon points="-217.29339599609,253.50500488281 -220.93930053711,258.96148681641 -197.11329650879,271.69668579102 -194.60200500488,265.6337890625" /><polygon points="-217.29339599609,253.50500488281 -220.93930053711,258.96148681641 -220.93930053711,258.96148681641 -217.29339599609,253.50500488281" /><polygon points="-194.60200500488,265.6337890625 -169.98039245605,273.10260009766 -169.98039245605,273.10260009766 -194.60200500488,265.6337890625" /><polygon points="-194.60200500488,265.6337890625 -197.11329650879,271.69668579102 -171.26069641113,279.53900146484 -169.98039245605,273.10260009766" /><polygon points="-169.98039245605,273.10260009766 -171.26069641113,279.53900146484 -171.26069641113,279.53900146484 -169.98039245605,273.10260009766" /><polygon points="-220.93930053711,258.96148681641 -197.11329650879,271.69668579102 -197.11329650879,271.69668579102 -220.93930053711,258.96148681641" /><polygon points="-197.11329650879,271.69668579102 -171.26069641113,279.53900146484 -171.26069641113,279.53900146484 -197.11329650879,271.69668579102" /><polygon points="-194.60200500488,265.6337890625 -197.11329650879,271.69668579102 -220.93930053711,258.96148681641 -217.29339599609,253.50500488281" /><polygon points="-169.98039245605,273.10260009766 -171.26069641113,279.53900146484 -197.11329650879,271.69668579102 -194.60200500488,265.6337890625" /></g><g bzw:type="5" fill="#04CCFF" stroke-width="0"><polygon points="-84.854698181152,178.57369995117 -107.54609680176,166.4449005127 -107.54609680176,166.4449005127 -84.854698181152,178.57369995117" /><polygon points="-84.854698181152,178.57369995117 -81.208702087402,173.11709594727 -105.03469848633,160.38189697266 -107.54609680176,166.4449005127" /><polygon points="-84.854698181152,178.57369995117 -81.208702087402,173.11709594727 -81.208702087402,173.11709594727 -84.854698181152,178.57369995117" /><polygon points="-107.54609680176,166.4449005127 -132.1676940918,158.9759979248 -132.1676940918,158.9759979248 -107.54609680176,166.4449005127" /><polygon points="-107.54609680176,166.4449005127 -105.03469848633,160.38189697266 -130.88740539551,152.53959655762 -132.1676940918,158.9759979248" /><polygon points="-132.1676940918,158.9759979248 -130.88740539551,152.53959655762 -130.88740539551,152.53959655762 -132.1676940918,158.9759979248" /><polygon points="-81.208702087402,173.11709594727 -105.03469848633,160.38189697266 -105.03469848633,160.38189697266 -81.208702087402,173.11709594727" /><polygon points="-105.03469848633,160.38189697266 -130.88740539551,152.53959655762 -130.88740539551,152.53959655762 -105.03469848633,160.38189697266" /><polygon points="-107.54609680176,166.4449005127 -105.03469848633,160.38189697266 -81.208702087402,173.11709594727 -84.854698181152,178.57369995117" /><polygon points="-132.1676940918,158.9759979248 -130.88740539551,152.53959655762 -105.03469848633,160.38189697266 -107.54609680176,166.4449005127" /></g><g bzw:type="5" fill="#04CCFF" stroke-width="0"><polygon points="101.2958984375,164.12049865723 77.469902038574,176.85580444336 77.469902038574,176.85580444336 101.2958984375,164.12049865723" /><polygon points="101.2958984375,164.12049865723 127.14859771729,156.27810668945 127.14859771729,156.27810668945 101.2958984375,164.12049865723" /><polygon points="101.2958984375,164.12049865723 103.8071975708,170.18350219727 128.42880249023,162.71459960938 127.14859771729,156.27810668945" /><polygon points="101.2958984375,164.12049865723 77.469902038574,176.85580444336 81.115798950195,182.31230163574 103.8071975708,170.18350219727" /><polygon points="127.14859771729,156.27810668945 128.42880249023,162.71459960938 128.42880249023,162.71459960938 127.14859771729,156.27810668945" /><polygon points="81.115798950195,182.31230163574 103.8071975708,170.18350219727 103.8071975708,170.18350219727 81.115798950195,182.31230163574" /><polygon points="81.115798950195,182.31230163574 77.469902038574,176.85580444336 77.469902038574,176.85580444336 81.115798950195,182.31230163574" /><polygon points="103.8071975708,170.18350219727 128.42880249023,162.71459960938 128.42880249023,162.71459960938 103.8071975708,170.18350219727" /><polygon points="127.14859771729,156.27810668945 128.42880249023,162.71459960938 103.8071975708,170.18350219727 101.2958984375,164.12049865723" /><polygon points="103.8071975708,170.18350219727 81.115798950195,182.31230163574 77.469902038574,176.85580444336 101.2958984375,164.12049865723" /></g><g bzw:type="5" fill="#04CCFF" stroke-width="0"><polygon points="179.63999938965,162.71449279785 179.63999938965,162.71449279785 180.92030334473,156.27810668945 180.92030334473,156.27810668945" /><polygon points="180.92030334473,156.27810668945 206.77299499512,164.12030029297 206.77299499512,164.12030029297 180.92030334473,156.27810668945" /><polygon points="180.92030334473,156.27810668945 179.63999938965,162.71449279785 204.26159667969,170.18330383301 206.77299499512,164.12030029297" /><polygon points="206.77299499512,164.12030029297 230.5989074707,176.8556060791 230.5989074707,176.8556060791 206.77299499512,164.12030029297" /><polygon points="206.77299499512,164.12030029297 204.26159667969,170.18330383301 226.95300292969,182.31210327148 230.5989074707,176.8556060791" /><polygon points="226.95300292969,182.31210327148 226.95300292969,182.31210327148 204.26159667969,170.18330383301 204.26159667969,170.18330383301" /><polygon points="204.26159667969,170.18330383301 204.26159667969,170.18330383301 179.63999938965,162.71449279785 179.63999938965,162.71449279785" /><polygon points="230.5989074707,176.8556060791 230.5989074707,176.8556060791 226.95300292969,182.31210327148 226.95300292969,182.31210327148" /><polygon points="180.92030334473,156.27810668945 206.77299499512,164.12030029297 204.26159667969,170.18330383301 179.63999938965,162.71449279785" /><polygon points="206.77299499512,164.12030029297 230.5989074707,176.8556060791 226.95300292969,182.31210327148 204.26159667969,170.18330383301" /></g><g bzw:type="5" fill="#04CCFF" stroke-width="0"><polygon points="180.60780334473,-156.20500183105 205.22940063477,-163.67379760742 205.22940063477,-163.67379760742 180.60780334473,-156.20500183105" /><polygon points="180.60780334473,-156.20500183105 181.8881072998,-149.76860046387 207.7407989502,-157.61090087891 205.22940063477,-163.67379760742" /><polygon points="180.60780334473,-156.20500183105 181.8881072998,-149.76860046387 181.8881072998,-149.76860046387 180.60780334473,-156.20500183105" /><polygon points="205.22940063477,-163.67379760742 227.92070007324,-175.8025970459 227.92070007324,-175.8025970459 205.22940063477,-163.67379760742" /><polygon points="205.22940063477,-163.67379760742 207.7407989502,-157.61090087891 231.56669616699,-170.34609985352 227.92070007324,-175.8025970459" /><polygon points="227.92070007324,-175.8025970459 231.56669616699,-170.34609985352 231.56669616699,-170.34609985352 227.92070007324,-175.8025970459" /><polygon points="181.8881072998,-149.76860046387 207.7407989502,-157.61090087891 207.7407989502,-157.61090087891 181.8881072998,-149.76860046387" /><polygon points="207.7407989502,-157.61090087891 231.56669616699,-170.34609985352 231.56669616699,-170.34609985352 207.7407989502,-157.61090087891" /><polygon points="205.22940063477,-163.67379760742 207.7407989502,-157.61090087891 181.8881072998,-149.76860046387 180.60780334473,-156.20500183105" /><polygon points="227.92070007324,-175.8025970459 231.56669616699,-170.34609985352 207.7407989502,-157.61090087891 205.22940063477,-163.67379760742" /></g><g bzw:type="5" fill="#04CCFF" stroke-width="0"><polygon points="82.083702087402,-175.80270385742 104.77500152588,-163.67390441895 104.77500152588,-163.67390441895 82.083702087402,-175.80270385742" /><polygon points="82.083702087402,-175.80270385742 78.437698364258,-170.34609985352 102.26370239258,-157.61090087891 104.77500152588,-163.67390441895" /><polygon points="82.083702087402,-175.80270385742 78.437698364258,-170.34609985352 78.437698364258,-170.34609985352 82.083702087402,-175.80270385742" /><polygon points="104.77500152588,-163.67390441895 129.39660644531,-156.20500183105 129.39660644531,-156.20500183105 104.77500152588,-163.67390441895" /><polygon points="104.77500152588,-163.67390441895 102.26370239258,-157.61090087891 128.11630249023,-149.76860046387 129.39660644531,-156.20500183105" /><polygon points="129.39660644531,-156.20500183105 128.11630249023,-149.76860046387 128.11630249023,-149.76860046387 129.39660644531,-156.20500183105" /><polygon points="78.437698364258,-170.34609985352 102.26370239258,-157.61090087891 102.26370239258,-157.61090087891 78.437698364258,-170.34609985352" /><polygon points="102.26370239258,-157.61090087891 128.11630249023,-149.76860046387 128.11630249023,-149.76860046387 102.26370239258,-157.61090087891" /><polygon points="104.77500152588,-163.67390441895 102.26370239258,-157.61090087891 78.437698364258,-170.34609985352 82.083702087402,-175.80270385742" /><polygon points="129.39660644531,-156.20500183105 128.11630249023,-149.76860046387 102.26370239258,-157.61090087891 104.77500152588,-163.67390441895" /></g><g bzw:type="5" fill="#04CCFF" stroke-width="0"><polygon points="-227.92080688477,-175.80279541016 -205.22940063477,-163.67399597168 -205.22940063477,-163.67399597168 -227.92080688477,-175.80279541016" /><polygon points="-227.92080688477,-175.80279541016 -231.56669616699,-170.34629821777 -207.7407989502,-157.61099243164 -205.22940063477,-163.67399597168" /><polygon points="-227.92080688477,-175.80279541016 -231.56669616699,-170.34629821777 -231.56669616699,-170.34629821777 -227.92080688477,-175.80279541016" /><polygon points="-205.22940063477,-163.67399597168 -180.60789489746,-156.20509338379 -180.60789489746,-156.20509338379 -205.22940063477,-163.67399597168" /><polygon points="-205.22940063477,-163.67399597168 -207.7407989502,-157.61099243164 -181.88819885254,-149.76870727539 -180.60789489746,-156.20509338379" /><polygon points="-180.60789489746,-156.20509338379 -181.88819885254,-149.76870727539 -181.88819885254,-149.76870727539 -180.60789489746,-156.20509338379" /><polygon points="-231.56669616699,-170.34629821777 -207.7407989502,-157.61099243164 -207.7407989502,-157.61099243164 -231.56669616699,-170.34629821777" /><polygon points="-207.7407989502,-157.61099243164 -181.88819885254,-149.76870727539 -181.88819885254,-149.76870727539 -207.7407989502,-157.61099243164" /><polygon points="-205.22940063477,-163.67399597168 -207.7407989502,-157.61099243164 -231.56669616699,-170.34629821777 -227.92080688477,-175.80279541016" /><polygon points="-180.60789489746,-156.20509338379 -181.88819885254,-149.76870727539 -207.7407989502,-157.61099243164 -205.22940063477,-163.67399597168" /></g><g bzw:type="5" fill="#04CCFF" stroke-width="0"><polygon points="-129.39669799805,-156.20500183105 -104.77510070801,-163.67390441895 -104.77510070801,-163.67390441895 -129.39669799805,-156.20500183105" /><polygon points="-129.39669799805,-156.20500183105 -128.11639404297,-149.76870727539 -102.26370239258,-157.61099243164 -104.77510070801,-163.67390441895" /><polygon points="-129.39669799805,-156.20500183105 -128.11639404297,-149.76870727539 -128.11639404297,-149.76870727539 -129.39669799805,-156.20500183105" /><polygon points="-104.77510070801,-163.67390441895 -82.083702087402,-175.80270385742 -82.083702087402,-175.80270385742 -104.77510070801,-163.67390441895" /><polygon points="-104.77510070801,-163.67390441895 -102.26370239258,-157.61099243164 -78.437797546387,-170.34620666504 -82.083702087402,-175.80270385742" /><polygon points="-82.083702087402,-175.80270385742 -78.437797546387,-170.34620666504 -78.437797546387,-170.34620666504 -82.083702087402,-175.80270385742" /><polygon points="-128.11639404297,-149.76870727539 -102.26370239258,-157.61099243164 -102.26370239258,-157.61099243164 -128.11639404297,-149.76870727539" /><polygon points="-102.26370239258,-157.61099243164 -78.437797546387,-170.34620666504 -78.437797546387,-170.34620666504 -102.26370239258,-157.61099243164" /><polygon points="-104.77510070801,-163.67390441895 -102.26370239258,-157.61099243164 -128.11639404297,-149.76870727539 -129.39669799805,-156.20500183105" /><polygon points="-82.083702087402,-175.80270385742 -78.437797546387,-170.34620666504 -102.26370239258,-157.61099243164 -104.77510070801,-163.67390441895" /></g><g bzw:type="5" fill="#04CCFF" stroke-width="0"><polygon points="241.26780700684,109.13050079346 263.95919799805,121.25930023193 263.95919799805,121.25930023193 241.26780700684,109.13050079346" /><polygon points="241.26780700684,109.13050079346 237.62190246582,114.58699798584 261.44781494141,127.32219696045 263.95919799805,121.25930023193" /><polygon points="241.26780700684,109.13050079346 237.62190246582,114.58699798584 237.62190246582,114.58699798584 241.26780700684,109.13050079346" /><polygon points="263.95919799805,121.25930023193 288.58081054688,128.7281036377 288.58081054688,128.7281036377 263.95919799805,121.25930023193" /><polygon points="263.95919799805,121.25930023193 261.44781494141,127.32219696045 287.3005065918,135.16450500488 288.58081054688,128.7281036377" /><polygon points="288.58081054688,128.7281036377 287.3005065918,135.16450500488 287.3005065918,135.16450500488 288.58081054688,128.7281036377" /><polygon points="237.62190246582,114.58699798584 261.44781494141,127.32219696045 261.44781494141,127.32219696045 237.62190246582,114.58699798584" /><polygon points="261.44781494141,127.32219696045 287.3005065918,135.16450500488 287.3005065918,135.16450500488 261.44781494141,127.32219696045" /><polygon points="263.95919799805,121.25930023193 261.44781494141,127.32219696045 237.62190246582,114.58699798584 241.26780700684,109.13050079346" /><polygon points="288.58081054688,128.7281036377 287.3005065918,135.16450500488 261.44781494141,127.32219696045 263.95919799805,121.25930023193" /></g><g bzw:type="5" fill="#04CCFF" stroke-width="0"><polygon points="288.58059692383,-128.7281036377 263.95901489258,-121.2592010498 263.95901489258,-121.2592010498 288.58059692383,-128.7281036377" /><polygon points="288.58059692383,-128.7281036377 287.30029296875,-135.16450500488 261.44760131836,-127.32209777832 263.95901489258,-121.2592010498" /><polygon points="288.58059692383,-128.7281036377 287.30029296875,-135.16450500488 287.30029296875,-135.16450500488 288.58059692383,-128.7281036377" /><polygon points="263.95901489258,-121.2592010498 241.26759338379,-109.1303024292 241.26759338379,-109.1303024292 263.95901489258,-121.2592010498" /><polygon points="263.95901489258,-121.2592010498 261.44760131836,-127.32209777832 237.62159729004,-114.58689880371 241.26759338379,-109.1303024292" /><polygon points="241.26759338379,-109.1303024292 237.62159729004,-114.58689880371 237.62159729004,-114.58689880371 241.26759338379,-109.1303024292" /><polygon points="287.30029296875,-135.16450500488 261.44760131836,-127.32209777832 261.44760131836,-127.32209777832 287.30029296875,-135.16450500488" /><polygon points="261.44760131836,-127.32209777832 237.62159729004,-114.58689880371 237.62159729004,-114.58689880371 261.44760131836,-127.32209777832" /><polygon points="263.95901489258,-121.2592010498 261.44760131836,-127.32209777832 287.30029296875,-135.16450500488 288.58059692383,-128.7281036377" /><polygon points="241.26759338379,-109.1303024292 237.62159729004,-114.58689880371 261.44760131836,-127.32209777832 263.95901489258,-121.2592010498" /></g><g bzw:type="5" fill="#04CCFF" stroke-width="0"><polygon points="205.0558013916,-72.918502807617 192.92700195312,-50.227100372314 192.92700195312,-50.227100372314 205.0558013916,-72.918502807617" /><polygon points="205.0558013916,-72.918502807617 199.59930419922,-76.564399719238 186.86399841309,-52.738498687744 192.92700195312,-50.227100372314" /><polygon points="205.0558013916,-72.918502807617 199.59930419922,-76.564399719238 199.59930419922,-76.564399719238 205.0558013916,-72.918502807617" /><polygon points="192.92700195312,-50.227100372314 185.45809936523,-25.605499267578 185.45809936523,-25.605499267578 192.92700195312,-50.227100372314" /><polygon points="192.92700195312,-50.227100372314 186.86399841309,-52.738498687744 179.02169799805,-26.885799407959 185.45809936523,-25.605499267578" /><polygon points="185.45809936523,-25.605499267578 179.02169799805,-26.885799407959 179.02169799805,-26.885799407959 185.45809936523,-25.605499267578" /><polygon points="199.59930419922,-76.564399719238 186.86399841309,-52.738498687744 186.86399841309,-52.738498687744 199.59930419922,-76.564399719238" /><polygon points="186.86399841309,-52.738498687744 179.02169799805,-26.885799407959 179.02169799805,-26.885799407959 186.86399841309,-52.738498687744" /><polygon points="192.92700195312,-50.227100372314 186.86399841309,-52.738498687744 199.59930419922,-76.564399719238 205.0558013916,-72.918502807617" /><polygon points="185.45809936523,-25.605499267578 179.02169799805,-26.885799407959 186.86399841309,-52.738498687744 192.92700195312,-50.227100372314" /></g><g bzw:type="5" fill="#04CCFF" stroke-width="0"><polygon points="-288.58081054688,-128.7281036377 -287.30041503906,-135.16450500488 -287.30041503906,-135.16450500488 -288.58081054688,-128.7281036377" /><polygon points="-288.58081054688,-128.7281036377 -287.30041503906,-135.16450500488 -287.30041503906,-135.16450500488 -288.58081054688,-128.7281036377" /><polygon points="-241.26770019531,-109.13040161133 -263.95910644531,-121.2592010498 -263.95910644531,-121.2592010498 -241.26770019531,-109.13040161133" /><polygon points="-241.26770019531,-109.13040161133 -237.62170410156,-114.58689880371 -261.44781494141,-127.32219696045 -263.95910644531,-121.2592010498" /><polygon points="-241.26770019531,-109.13040161133 -237.62170410156,-114.58689880371 -237.62170410156,-114.58689880371 -241.26770019531,-109.13040161133" /><polygon points="-263.95910644531,-121.2592010498 -288.58081054688,-128.7281036377 -288.58081054688,-128.7281036377 -263.95910644531,-121.2592010498" /><polygon points="-263.95910644531,-121.2592010498 -261.44781494141,-127.32219696045 -287.30041503906,-135.16450500488 -288.58081054688,-128.7281036377" /><polygon points="-237.62170410156,-114.58689880371 -261.44781494141,-127.32219696045 -261.44781494141,-127.32219696045 -237.62170410156,-114.58689880371" /><polygon points="-261.44781494141,-127.32219696045 -287.30041503906,-135.16450500488 -287.30041503906,-135.16450500488 -261.44781494141,-127.32219696045" /><polygon points="-263.95910644531,-121.2592010498 -261.44781494141,-127.32219696045 -237.62170410156,-114.58689880371 -241.26770019531,-109.13040161133" /><polygon points="-288.58081054688,-128.7281036377 -287.30041503906,-135.16450500488 -261.44781494141,-127.32219696045 -263.95910644531,-121.2592010498" /></g><g bzw:type="5" fill="#04CCFF" stroke-width="0"><polygon points="-185.45820617676,-25.605600357056 -192.92700195312,-50.227199554443 -192.92700195312,-50.227199554443 -185.45820617676,-25.605600357056" /><polygon points="-185.45820617676,-25.605600357056 -179.02180480957,-26.885900497437 -186.86410522461,-52.738498687744 -192.92700195312,-50.227199554443" /><polygon points="-185.45820617676,-25.605600357056 -179.02180480957,-26.885900497437 -179.02180480957,-26.885900497437 -185.45820617676,-25.605600357056" /><polygon points="-192.92700195312,-50.227199554443 -205.05589294434,-72.918601989746 -205.05589294434,-72.918601989746 -192.92700195312,-50.227199554443" /><polygon points="-192.92700195312,-50.227199554443 -186.86410522461,-52.738498687744 -199.59930419922,-76.564498901367 -205.05589294434,-72.918601989746" /><polygon points="-205.05589294434,-72.918601989746 -199.59930419922,-76.564498901367 -199.59930419922,-76.564498901367 -205.05589294434,-72.918601989746" /><polygon points="-179.02180480957,-26.885900497437 -186.86410522461,-52.738498687744 -186.86410522461,-52.738498687744 -179.02180480957,-26.885900497437" /><polygon points="-186.86410522461,-52.738498687744 -199.59930419922,-76.564498901367 -199.59930419922,-76.564498901367 -186.86410522461,-52.738498687744" /><polygon points="-192.92700195312,-50.227199554443 -186.86410522461,-52.738498687744 -179.02180480957,-26.885900497437 -185.45820617676,-25.605600357056" /><polygon points="-205.05589294434,-72.918601989746 -199.59930419922,-76.564498901367 -186.86410522461,-52.738498687744 -192.92700195312,-50.227199554443" /></g><g bzw:type="5" fill="#04CCFF" stroke-width="0"><polygon points="-205.05589294434,72.918601989746 -192.92709350586,50.227199554443 -192.92709350586,50.227199554443 -205.05589294434,72.918601989746" /><polygon points="-205.05589294434,72.918601989746 -199.59930419922,76.564498901367 -186.86410522461,52.73860168457 -192.92709350586,50.227199554443" /><polygon points="-205.05589294434,72.918601989746 -199.59930419922,76.564498901367 -199.59930419922,76.564498901367 -205.05589294434,72.918601989746" /><polygon points="-192.92709350586,50.227199554443 -185.45820617676,25.605600357056 -185.45820617676,25.605600357056 -192.92709350586,50.227199554443" /><polygon points="-192.92709350586,50.227199554443 -186.86410522461,52.73860168457 -179.02180480957,26.885900497437 -185.45820617676,25.605600357056" /><polygon points="-185.45820617676,25.605600357056 -179.02180480957,26.885900497437 -179.02180480957,26.885900497437 -185.45820617676,25.605600357056" /><polygon points="-199.59930419922,76.564498901367 -186.86410522461,52.73860168457 -186.86410522461,52.73860168457 -199.59930419922,76.564498901367" /><polygon points="-186.86410522461,52.73860168457 -179.02180480957,26.885900497437 -179.02180480957,26.885900497437 -186.86410522461,52.73860168457" /><polygon points="-192.92709350586,50.227199554443 -186.86410522461,52.73860168457 -199.59930419922,76.564498901367 -205.05589294434,72.918601989746" /><polygon points="-185.45820617676,25.605600357056 -179.02180480957,26.885900497437 -186.86410522461,52.73860168457 -192.92709350586,50.227199554443" /></g><g bzw:type="5" fill="#04CCFF" stroke-width="0"><polygon points="-288.58068847656,128.7281036377 -263.95910644531,121.2592010498 -263.95910644531,121.2592010498 -288.58068847656,128.7281036377" /><polygon points="-288.58068847656,128.7281036377 -287.30041503906,135.16450500488 -261.44769287109,127.32209777832 -263.95910644531,121.2592010498" /><polygon points="-288.58068847656,128.7281036377 -287.30041503906,135.16450500488 -287.30041503906,135.16450500488 -288.58068847656,128.7281036377" /><polygon points="-263.95910644531,121.2592010498 -241.26770019531,109.13040161133 -241.26770019531,109.13040161133 -263.95910644531,121.2592010498" /><polygon points="-263.95910644531,121.2592010498 -261.44769287109,127.32209777832 -237.62170410156,114.58689880371 -241.26770019531,109.13040161133" /><polygon points="-241.26770019531,109.13040161133 -237.62170410156,114.58689880371 -237.62170410156,114.58689880371 -241.26770019531,109.13040161133" /><polygon points="-287.30041503906,135.16450500488 -261.44769287109,127.32209777832 -261.44769287109,127.32209777832 -287.30041503906,135.16450500488" /><polygon points="-261.44769287109,127.32209777832 -237.62170410156,114.58689880371 -237.62170410156,114.58689880371 -261.44769287109,127.32209777832" /><polygon points="-263.95910644531,121.2592010498 -261.44769287109,127.32209777832 -287.30041503906,135.16450500488 -288.58068847656,128.7281036377" /><polygon points="-241.26770019531,109.13040161133 -237.62170410156,114.58689880371 -261.44769287109,127.32209777832 -263.95910644531,121.2592010498" /></g><g bzw:type="5" fill="#04CCFF" stroke-width="0"><polygon points="-128.72799682617,25.605699539185 -121.25910186768,50.227298736572 -121.25910186768,50.227298736572 -128.72799682617,25.605699539185" /><polygon points="-128.72799682617,25.605699539185 -135.16439819336,26.885999679565 -127.32209777832,52.738700866699 -121.25910186768,50.227298736572" /><polygon points="-128.72799682617,25.605699539185 -135.16439819336,26.885999679565 -135.16439819336,26.885999679565 -128.72799682617,25.605699539185" /><polygon points="-121.25910186768,50.227298736572 -109.1303024292,72.918701171875 -109.1303024292,72.918701171875 -121.25910186768,50.227298736572" /><polygon points="-121.25910186768,50.227298736572 -127.32209777832,52.738700866699 -114.58679962158,76.564697265625 -109.1303024292,72.918701171875" /><polygon points="-109.1303024292,72.918701171875 -114.58679962158,76.564697265625 -114.58679962158,76.564697265625 -109.1303024292,72.918701171875" /><polygon points="-135.16439819336,26.885999679565 -127.32209777832,52.738700866699 -127.32209777832,52.738700866699 -135.16439819336,26.885999679565" /><polygon points="-127.32209777832,52.738700866699 -114.58679962158,76.564697265625 -114.58679962158,76.564697265625 -127.32209777832,52.738700866699" /><polygon points="-121.25910186768,50.227298736572 -127.32209777832,52.738700866699 -135.16439819336,26.885999679565 -128.72799682617,25.605699539185" /><polygon points="-109.1303024292,72.918701171875 -114.58679962158,76.564697265625 -127.32209777832,52.738700866699 -121.25910186768,50.227298736572" /></g><g bzw:type="5" fill="#04CCFF" stroke-width="0"><polygon points="-109.13040161133,-72.918502807617 -121.2592010498,-50.227100372314 -121.2592010498,-50.227100372314 -109.13040161133,-72.918502807617" /><polygon points="-109.13040161133,-72.918502807617 -114.58699798584,-76.564399719238 -127.32219696045,-52.738498687744 -121.2592010498,-50.227100372314" /><polygon points="-109.13040161133,-72.918502807617 -114.58699798584,-76.564399719238 -114.58699798584,-76.564399719238 -109.13040161133,-72.918502807617" /><polygon points="-121.2592010498,-50.227100372314 -128.7281036377,-25.605499267578 -128.7281036377,-25.605499267578 -121.2592010498,-50.227100372314" /><polygon points="-121.2592010498,-50.227100372314 -127.32219696045,-52.738498687744 -135.16450500488,-26.885799407959 -128.7281036377,-25.605499267578" /><polygon points="-128.7281036377,-25.605499267578 -135.16450500488,-26.885799407959 -135.16450500488,-26.885799407959 -128.7281036377,-25.605499267578" /><polygon points="-114.58699798584,-76.564399719238 -127.32219696045,-52.738498687744 -127.32219696045,-52.738498687744 -114.58699798584,-76.564399719238" /><polygon points="-127.32219696045,-52.738498687744 -135.16450500488,-26.885799407959 -135.16450500488,-26.885799407959 -127.32219696045,-52.738498687744" /><polygon points="-121.2592010498,-50.227100372314 -127.32219696045,-52.738498687744 -114.58699798584,-76.564399719238 -109.13040161133,-72.918502807617" /><polygon points="-128.7281036377,-25.605499267578 -135.16450500488,-26.885799407959 -127.32219696045,-52.738498687744 -121.2592010498,-50.227100372314" /></g><g bzw:type="5" fill="#04CCFF" stroke-width="0"><polygon points="-25.605699539185,-128.7281036377 -50.227298736572,-121.2592010498 -50.227298736572,-121.2592010498 -25.605699539185,-128.7281036377" /><polygon points="-25.605699539185,-128.7281036377 -26.885900497437,-135.16450500488 -52.73860168457,-127.32209777832 -50.227298736572,-121.2592010498" /><polygon points="-25.605699539185,-128.7281036377 -26.885900497437,-135.16450500488 -26.885900497437,-135.16450500488 -25.605699539185,-128.7281036377" /><polygon points="-50.227298736572,-121.2592010498 -72.918701171875,-109.1303024292 -72.918701171875,-109.1303024292 -50.227298736572,-121.2592010498" /><polygon points="-50.227298736572,-121.2592010498 -52.73860168457,-127.32209777832 -76.564598083496,-114.58689880371 -72.918701171875,-109.1303024292" /><polygon points="-72.918701171875,-109.1303024292 -76.564598083496,-114.58689880371 -76.564598083496,-114.58689880371 -72.918701171875,-109.1303024292" /><polygon points="-26.885900497437,-135.16450500488 -52.73860168457,-127.32209777832 -52.73860168457,-127.32209777832 -26.885900497437,-135.16450500488" /><polygon points="-52.73860168457,-127.32209777832 -76.564598083496,-114.58689880371 -76.564598083496,-114.58689880371 -52.73860168457,-127.32209777832" /><polygon points="-50.227298736572,-121.2592010498 -52.73860168457,-127.32209777832 -26.885900497437,-135.16450500488 -25.605699539185,-128.7281036377" /><polygon points="-72.918701171875,-109.1303024292 -76.564598083496,-114.58689880371 -52.73860168457,-127.32209777832 -50.227298736572,-121.2592010498" /></g><g bzw:type="5" fill="#04CCFF" stroke-width="0"><polygon points="25.605600357056,-128.7281036377 26.885900497437,-135.16450500488 26.885900497437,-135.16450500488 25.605600357056,-128.7281036377" /><polygon points="25.605600357056,-128.7281036377 26.885900497437,-135.16450500488 26.885900497437,-135.16450500488 25.605600357056,-128.7281036377" /><polygon points="72.918601989746,-109.13040161133 50.227199554443,-121.2592010498 50.227199554443,-121.2592010498 72.918601989746,-109.13040161133" /><polygon points="72.918601989746,-109.13040161133 76.564498901367,-114.58689880371 52.738498687744,-127.32219696045 50.227199554443,-121.2592010498" /><polygon points="72.918601989746,-109.13040161133 76.564498901367,-114.58689880371 76.564498901367,-114.58689880371 72.918601989746,-109.13040161133" /><polygon points="50.227199554443,-121.2592010498 25.605600357056,-128.7281036377 25.605600357056,-128.7281036377 50.227199554443,-121.2592010498" /><polygon points="50.227199554443,-121.2592010498 52.738498687744,-127.32219696045 26.885900497437,-135.16450500488 25.605600357056,-128.7281036377" /><polygon points="76.564498901367,-114.58689880371 52.738498687744,-127.32219696045 52.738498687744,-127.32219696045 76.564498901367,-114.58689880371" /><polygon points="52.738498687744,-127.32219696045 26.885900497437,-135.16450500488 26.885900497437,-135.16450500488 52.738498687744,-127.32219696045" /><polygon points="50.227199554443,-121.2592010498 52.738498687744,-127.32219696045 76.564498901367,-114.58689880371 72.918601989746,-109.13040161133" /><polygon points="25.605600357056,-128.7281036377 26.885900497437,-135.16450500488 52.738498687744,-127.32219696045 50.227199554443,-121.2592010498" /></g><g bzw:type="5" fill="#04CCFF" stroke-width="0"><polygon points="128.7281036377,-25.605499267578 121.2592010498,-50.227199554443 121.2592010498,-50.227199554443 128.7281036377,-25.605499267578" /><polygon points="128.7281036377,-25.605499267578 135.16450500488,-26.885799407959 127.32219696045,-52.738498687744 121.2592010498,-50.227199554443" /><polygon points="128.7281036377,-25.605499267578 135.16450500488,-26.885799407959 135.16450500488,-26.885799407959 128.7281036377,-25.605499267578" /><polygon points="121.2592010498,-50.227199554443 109.13040161133,-72.918601989746 109.13040161133,-72.918601989746 121.2592010498,-50.227199554443" /><polygon points="121.2592010498,-50.227199554443 127.32219696045,-52.738498687744 114.58689880371,-76.564498901367 109.13040161133,-72.918601989746" /><polygon points="109.13040161133,-72.918601989746 114.58689880371,-76.564498901367 114.58689880371,-76.564498901367 109.13040161133,-72.918601989746" /><polygon points="135.16450500488,-26.885799407959 127.32219696045,-52.738498687744 127.32219696045,-52.738498687744 135.16450500488,-26.885799407959" /><polygon points="127.32219696045,-52.738498687744 114.58689880371,-76.564498901367 114.58689880371,-76.564498901367 127.32219696045,-52.738498687744" /><polygon points="121.2592010498,-50.227199554443 127.32219696045,-52.738498687744 135.16450500488,-26.885799407959 128.7281036377,-25.605499267578" /><polygon points="109.13040161133,-72.918601989746 114.58689880371,-76.564498901367 127.32219696045,-52.738498687744 121.2592010498,-50.227199554443" /></g><g bzw:type="5" fill="#04CCFF" stroke-width="0"><polygon points="109.13040161133,72.918601989746 121.2592010498,50.227199554443 121.2592010498,50.227199554443 109.13040161133,72.918601989746" /><polygon points="109.13040161133,72.918601989746 114.58689880371,76.564498901367 127.32209777832,52.73860168457 121.2592010498,50.227199554443" /><polygon points="109.13040161133,72.918601989746 114.58689880371,76.564498901367 114.58689880371,76.564498901367 109.13040161133,72.918601989746" /><polygon points="121.2592010498,50.227199554443 128.7281036377,25.605600357056 128.7281036377,25.605600357056 121.2592010498,50.227199554443" /><polygon points="121.2592010498,50.227199554443 127.32209777832,52.73860168457 135.16450500488,26.885900497437 128.7281036377,25.605600357056" /><polygon points="128.7281036377,25.605600357056 135.16450500488,26.885900497437 135.16450500488,26.885900497437 128.7281036377,25.605600357056" /><polygon points="114.58689880371,76.564498901367 127.32209777832,52.73860168457 127.32209777832,52.73860168457 114.58689880371,76.564498901367" /><polygon points="127.32209777832,52.73860168457 135.16450500488,26.885900497437 135.16450500488,26.885900497437 127.32209777832,52.73860168457" /><polygon points="121.2592010498,50.227199554443 127.32209777832,52.73860168457 114.58689880371,76.564498901367 109.13040161133,72.918601989746" /><polygon points="128.7281036377,25.605600357056 135.16450500488,26.885900497437 127.32209777832,52.73860168457 121.2592010498,50.227199554443" /></g><g bzw:type="5" fill="#04CCFF" stroke-width="0"><polygon points="25.605600357056,128.7281036377 50.227199554443,121.2592010498 50.227199554443,121.2592010498 25.605600357056,128.7281036377" /><polygon points="25.605600357056,128.7281036377 26.885900497437,135.16450500488 52.73860168457,127.32209777832 50.227199554443,121.2592010498" /><polygon points="25.605600357056,128.7281036377 26.885900497437,135.16450500488 26.885900497437,135.16450500488 25.605600357056,128.7281036377" /><polygon points="50.227199554443,121.2592010498 72.918601989746,109.13040161133 72.918601989746,109.13040161133 50.227199554443,121.2592010498" /><polygon points="50.227199554443,121.2592010498 52.73860168457,127.32209777832 76.564498901367,114.58689880371 72.918601989746,109.13040161133" /><polygon points="72.918601989746,109.13040161133 76.564498901367,114.58689880371 76.564498901367,114.58689880371 72.918601989746,109.13040161133" /><polygon points="26.885900497437,135.16450500488 52.73860168457,127.32209777832 52.73860168457,127.32209777832 26.885900497437,135.16450500488" /><polygon points="52.73860168457,127.32209777832 76.564498901367,114.58689880371 76.564498901367,114.58689880371 52.73860168457,127.32209777832" /><polygon points="50.227199554443,121.2592010498 52.73860168457,127.32209777832 26.885900497437,135.16450500488 25.605600357056,128.7281036377" /><polygon points="72.918601989746,109.13040161133 76.564498901367,114.58689880371 52.73860168457,127.32209777832 50.227199554443,121.2592010498" /></g><g bzw:type="5" fill="#04CCFF" stroke-width="0"><polygon points="0,-126.5625 13.374199867249,-116.84559631348 13.374199867249,-116.84559631348 0,-126.5625" /><polygon points="0,-126.5625 -13.374199867249,-116.84559631348 -13.374199867249,-116.84559631348 0,-126.5625" /><polygon points="-13.374199867249,-116.84559631348 -8.265700340271,-101.12319946289 8.265700340271,-101.12319946289 13.374199867249,-116.84559631348 0,-126.5625" /><polygon points="-13.374199867249,-116.84559631348 -8.265700340271,-101.12319946289 -8.265700340271,-101.12319946289 -13.374199867249,-116.84559631348" /><polygon points="-8.265700340271,-101.12319946289 8.265700340271,-101.12319946289 8.265700340271,-101.12319946289 -8.265700340271,-101.12319946289" /><polygon points="8.265700340271,-101.12319946289 13.374199867249,-116.84559631348 13.374199867249,-116.84559631348 8.265700340271,-101.12319946289" /><polygon points="0,-126.5625 13.374199867249,-116.84559631348 8.265700340271,-101.12319946289 -8.265700340271,-101.12319946289 -13.374199867249,-116.84559631348" /></g><g bzw:type="5" fill="#04CCFF" stroke-width="0"><polygon points="-166.10369873047,222.28729248047 -162.66229248047,210.91020202637 -162.66229248047,210.91020202637 -166.10369873047,222.28729248047" /><polygon points="-166.10369873047,222.28729248047 -156.58979797363,215.16229248047 -156.58979797363,215.16229248047 -166.10369873047,222.28729248047" /><polygon points="-152.33770751953,209.08979797363 -148.89630126953,197.71270751953 -158.41020202637,204.83770751953" /><polygon points="-152.33770751953,209.08979797363 -158.41020202637,204.83770751953 -169.78729248047,201.39630126953" /><polygon points="-162.66229248047,210.91020202637 -166.10369873047,222.28729248047 -156.58979797363,215.16229248047" /><polygon points="-162.66229248047,210.91020202637 -156.58979797363,215.16229248047 -145.21270751953,218.60369873047" /><polygon points="-145.21270751953,218.60369873047 -152.33770751953,209.08979797363 -169.78729248047,201.39630126953" /><polygon points="-162.66229248047,210.91020202637 -145.21270751953,218.60369873047 -169.78729248047,201.39630126953" /><polygon points="-156.58979797363,215.16229248047 -145.21270751953,218.60369873047 -145.21270751953,218.60369873047 -156.58979797363,215.16229248047" /><polygon points="-145.21270751953,218.60369873047 -152.33770751953,209.08979797363 -152.33770751953,209.08979797363 -145.21270751953,218.60369873047" /><polygon points="-152.33770751953,209.08979797363 -148.89630126953,197.71270751953 -148.89630126953,197.71270751953 -152.33770751953,209.08979797363" /><polygon points="-148.89630126953,197.71270751953 -158.41020202637,204.83770751953 -158.41020202637,204.83770751953 -148.89630126953,197.71270751953" /><polygon points="-158.41020202637,204.83770751953 -169.78729248047,201.39630126953 -169.78729248047,201.39630126953 -158.41020202637,204.83770751953" /><polygon points="-169.78729248047,201.39630126953 -162.66229248047,210.91020202637 -162.66229248047,210.91020202637 -169.78729248047,201.39630126953" /><polygon points="-158.41020202637,204.83770751953 -148.89630126953,197.71270751953 -152.33770751953,209.08979797363" /><polygon points="-158.41020202637,204.83770751953 -152.33770751953,209.08979797363 -145.21270751953,218.60369873047" /><polygon points="-156.58979797363,215.16229248047 -166.10369873047,222.28729248047 -162.66229248047,210.91020202637" /><polygon points="-156.58979797363,215.16229248047 -162.66229248047,210.91020202637 -169.78729248047,201.39630126953" /><polygon points="-169.78729248047,201.39630126953 -158.41020202637,204.83770751953 -145.21270751953,218.60369873047" /><polygon points="-156.58979797363,215.16229248047 -169.78729248047,201.39630126953 -145.21270751953,218.60369873047" /></g><g bzw:type="5" fill="#04CCFF" stroke-width="0"><polygon points="-148.89630126953,-197.71270751953 -158.41020202637,-204.83770751953 -158.41020202637,-204.83770751953 -148.89630126953,-197.71270751953" /><polygon points="-148.89630126953,-197.71270751953 -152.33770751953,-209.08979797363 -152.33770751953,-209.08979797363 -148.89630126953,-197.71270751953" /><polygon points="-156.58979797363,-215.16229248047 -166.10369873047,-222.28729248047 -162.66229248047,-210.91020202637" /><polygon points="-156.58979797363,-215.16229248047 -162.66229248047,-210.91020202637 -169.78729248047,-201.39630126953" /><polygon points="-158.41020202637,-204.83770751953 -148.89630126953,-197.71270751953 -152.33770751953,-209.08979797363" /><polygon points="-158.41020202637,-204.83770751953 -152.33770751953,-209.08979797363 -145.21270751953,-218.60369873047" /><polygon points="-145.21270751953,-218.60369873047 -156.58979797363,-215.16229248047 -169.78729248047,-201.39630126953" /><polygon points="-158.41020202637,-204.83770751953 -145.21270751953,-218.60369873047 -169.78729248047,-201.39630126953" /><polygon points="-152.33770751953,-209.08979797363 -145.21270751953,-218.60369873047 -145.21270751953,-218.60369873047 -152.33770751953,-209.08979797363" /><polygon points="-145.21270751953,-218.60369873047 -156.58979797363,-215.16229248047 -156.58979797363,-215.16229248047 -145.21270751953,-218.60369873047" /><polygon points="-156.58979797363,-215.16229248047 -166.10369873047,-222.28729248047 -166.10369873047,-222.28729248047 -156.58979797363,-215.16229248047" /><polygon points="-166.10369873047,-222.28729248047 -162.66229248047,-210.91020202637 -162.66229248047,-210.91020202637 -166.10369873047,-222.28729248047" /><polygon points="-162.66229248047,-210.91020202637 -169.78729248047,-201.39630126953 -169.78729248047,-201.39630126953 -162.66229248047,-210.91020202637" /><polygon points="-169.78729248047,-201.39630126953 -158.41020202637,-204.83770751953 -158.41020202637,-204.83770751953 -169.78729248047,-201.39630126953" /><polygon points="-162.66229248047,-210.91020202637 -166.10369873047,-222.28729248047 -156.58979797363,-215.16229248047" /><polygon points="-162.66229248047,-210.91020202637 -156.58979797363,-215.16229248047 -145.21270751953,-218.60369873047" /><polygon points="-152.33770751953,-209.08979797363 -148.89630126953,-197.71270751953 -158.41020202637,-204.83770751953" /><polygon points="-152.33770751953,-209.08979797363 -158.41020202637,-204.83770751953 -169.78729248047,-201.39630126953" /><polygon points="-169.78729248047,-201.39630126953 -162.66229248047,-210.91020202637 -145.21270751953,-218.60369873047" /><polygon points="-152.33770751953,-209.08979797363 -169.78729248047,-201.39630126953 -145.21270751953,-218.60369873047" /></g><g bzw:type="5" fill="#04CCFF" stroke-width="0"><polygon points="-161.20660400391,-3.7065999507904 -172.5,0 -161.20660400391,3.7065999507904" /><polygon points="-161.20660400391,-3.7065999507904 -161.20660400391,3.7065999507904 -157.5,15" /><polygon points="-153.79339599609,3.7065999507904 -142.5,-0 -153.79339599609,-3.7065999507904" /><polygon points="-153.79339599609,3.7065999507904 -153.79339599609,-3.7065999507904 -157.5,-15" /><polygon points="-157.5,-15 -161.20660400391,-3.7065999507904 -157.5,15" /><polygon points="-153.79339599609,3.7065999507904 -157.5,-15 -157.5,15" /><polygon points="-142.5,-0 -153.79339599609,-3.7065999507904 -153.79339599609,-3.7065999507904 -142.5,-0" /><polygon points="-153.79339599609,-3.7065999507904 -157.5,-15 -157.5,-15 -153.79339599609,-3.7065999507904" /><polygon points="-157.5,-15 -161.20660400391,-3.7065999507904 -161.20660400391,-3.7065999507904 -157.5,-15" /><polygon points="-161.20660400391,-3.7065999507904 -172.5,0 -172.5,0 -161.20660400391,-3.7065999507904" /><polygon points="-157.5,15 -161.20660400391,3.7065999507904 -161.20660400391,3.7065999507904 -157.5,15" /><polygon points="-157.5,15 -153.79339599609,3.7065999507904 -153.79339599609,3.7065999507904 -157.5,15" /><polygon points="-153.79339599609,3.7065999507904 -142.5,-0 -142.5,-0 -153.79339599609,3.7065999507904" /><polygon points="-172.5,0 -161.20660400391,3.7065999507904 -161.20660400391,3.7065999507904 -172.5,0" /><polygon points="-153.79339599609,-3.7065999507904 -142.5,-0 -153.79339599609,3.7065999507904" /><polygon points="-153.79339599609,-3.7065999507904 -153.79339599609,3.7065999507904 -157.5,15" /><polygon points="-161.20660400391,3.7065999507904 -172.5,0 -161.20660400391,-3.7065999507904" /><polygon points="-161.20660400391,3.7065999507904 -161.20660400391,-3.7065999507904 -157.5,-15" /><polygon points="-157.5,-15 -153.79339599609,-3.7065999507904 -157.5,15" /><polygon points="-161.20660400391,3.7065999507904 -157.5,-15 -157.5,15" /></g><g bzw:type="5" fill="#04CCFF" stroke-width="0"><polygon points="148.89630126953,-197.71270751953 152.33770751953,-209.08979797363 152.33770751953,-209.08979797363 148.89630126953,-197.71270751953" /><polygon points="148.89630126953,-197.71270751953 158.41020202637,-204.83770751953 158.41020202637,-204.83770751953 148.89630126953,-197.71270751953" /><polygon points="162.66229248047,-210.91020202637 166.10369873047,-222.28729248047 156.58979797363,-215.16229248047" /><polygon points="162.66229248047,-210.91020202637 156.58979797363,-215.16229248047 145.21270751953,-218.60369873047" /><polygon points="152.33770751953,-209.08979797363 148.89630126953,-197.71270751953 158.41020202637,-204.83770751953" /><polygon points="152.33770751953,-209.08979797363 158.41020202637,-204.83770751953 169.78729248047,-201.39630126953" /><polygon points="169.78729248047,-201.39630126953 162.66229248047,-210.91020202637 145.21270751953,-218.60369873047" /><polygon points="152.33770751953,-209.08979797363 169.78729248047,-201.39630126953 145.21270751953,-218.60369873047" /><polygon points="158.41020202637,-204.83770751953 169.78729248047,-201.39630126953 169.78729248047,-201.39630126953 158.41020202637,-204.83770751953" /><polygon points="169.78729248047,-201.39630126953 162.66229248047,-210.91020202637 162.66229248047,-210.91020202637 169.78729248047,-201.39630126953" /><polygon points="162.66229248047,-210.91020202637 166.10369873047,-222.28729248047 166.10369873047,-222.28729248047 162.66229248047,-210.91020202637" /><polygon points="166.10369873047,-222.28729248047 156.58979797363,-215.16229248047 156.58979797363,-215.16229248047 166.10369873047,-222.28729248047" /><polygon points="156.58979797363,-215.16229248047 145.21270751953,-218.60369873047 145.21270751953,-218.60369873047 156.58979797363,-215.16229248047" /><polygon points="145.21270751953,-218.60369873047 152.33770751953,-209.08979797363 152.33770751953,-209.08979797363 145.21270751953,-218.60369873047" /><polygon points="156.58979797363,-215.16229248047 166.10369873047,-222.28729248047 162.66229248047,-210.91020202637" /><polygon points="156.58979797363,-215.16229248047 162.66229248047,-210.91020202637 169.78729248047,-201.39630126953" /><polygon points="158.41020202637,-204.83770751953 148.89630126953,-197.71270751953 152.33770751953,-209.08979797363" /><polygon points="158.41020202637,-204.83770751953 152.33770751953,-209.08979797363 145.21270751953,-218.60369873047" /><polygon points="145.21270751953,-218.60369873047 156.58979797363,-215.16229248047 169.78729248047,-201.39630126953" /><polygon points="158.41020202637,-204.83770751953 145.21270751953,-218.60369873047 169.78729248047,-201.39630126953" /></g><g bzw:type="5" fill="#04CCFF" stroke-width="0"><polygon points="166.10369873047,222.28729248047 156.58979797363,215.16229248047 156.58979797363,215.16229248047 166.10369873047,222.28729248047" /><polygon points="166.10369873047,222.28729248047 162.66229248047,210.91020202637 162.66229248047,210.91020202637 166.10369873047,222.28729248047" /><polygon points="158.41020202637,204.83770751953 148.89630126953,197.71270751953 152.33770751953,209.08979797363" /><polygon points="158.41020202637,204.83770751953 152.33770751953,209.08979797363 145.21270751953,218.60369873047" /><polygon points="156.58979797363,215.16229248047 166.10369873047,222.28729248047 162.66229248047,210.91020202637" /><polygon points="156.58979797363,215.16229248047 162.66229248047,210.91020202637 169.78729248047,201.39630126953" /><polygon points="169.78729248047,201.39630126953 158.41020202637,204.83770751953 145.21270751953,218.60369873047" /><polygon points="156.58979797363,215.16229248047 169.78729248047,201.39630126953 145.21270751953,218.60369873047" /><polygon points="162.66229248047,210.91020202637 169.78729248047,201.39630126953 169.78729248047,201.39630126953 162.66229248047,210.91020202637" /><polygon points="169.78729248047,201.39630126953 158.41020202637,204.83770751953 158.41020202637,204.83770751953 169.78729248047,201.39630126953" /><polygon points="158.41020202637,204.83770751953 148.89630126953,197.71270751953 148.89630126953,197.71270751953 158.41020202637,204.83770751953" /><polygon points="148.89630126953,197.71270751953 152.33770751953,209.08979797363 152.33770751953,209.08979797363 148.89630126953,197.71270751953" /><polygon points="152.33770751953,209.08979797363 145.21270751953,218.60369873047 145.21270751953,218.60369873047 152.33770751953,209.08979797363" /><polygon points="145.21270751953,218.60369873047 156.58979797363,215.16229248047 156.58979797363,215.16229248047 145.21270751953,218.60369873047" /><polygon points="152.33770751953,209.08979797363 148.89630126953,197.71270751953 158.41020202637,204.83770751953" /><polygon points="152.33770751953,209.08979797363 158.41020202637,204.83770751953 169.78729248047,201.39630126953" /><polygon points="162.66229248047,210.91020202637 166.10369873047,222.28729248047 156.58979797363,215.16229248047" /><polygon points="162.66229248047,210.91020202637 156.58979797363,215.16229248047 145.21270751953,218.60369873047" /><polygon points="145.21270751953,218.60369873047 152.33770751953,209.08979797363 169.78729248047,201.39630126953" /><polygon points="162.66229248047,210.91020202637 145.21270751953,218.60369873047 169.78729248047,201.39630126953" /></g><g bzw:type="5" fill="#04CCFF" stroke-width="0"><polygon points="262.5,-23.4375 250.32150268555,-30.468799591064 250.32150268555,-30.468799591064 262.5,-23.4375" /><polygon points="262.5,-23.4375 274.67849731445,-30.468799591064 274.67849731445,-30.468799591064 262.5,-23.4375" /><polygon points="274.67849731445,-30.468799591064 274.67849731445,-44.531299591064 262.5,-51.5625 250.32150268555,-44.531299591064 250.32150268555,-30.468799591064 262.5,-23.4375" /><polygon points="274.67849731445,-30.468799591064 274.67849731445,-44.531299591064 274.67849731445,-44.531299591064 274.67849731445,-30.468799591064" /><polygon points="274.67849731445,-44.531299591064 262.5,-51.5625 262.5,-51.5625 274.67849731445,-44.531299591064" /><polygon points="262.5,-51.5625 250.32150268555,-44.531299591064 250.32150268555,-44.531299591064 262.5,-51.5625" /><polygon points="250.32150268555,-44.531299591064 250.32150268555,-30.468799591064 250.32150268555,-30.468799591064 250.32150268555,-44.531299591064" /><polygon points="262.5,-23.4375 250.32150268555,-30.468799591064 250.32150268555,-44.531299591064 262.5,-51.5625 274.67849731445,-44.531299591064 274.67849731445,-30.468799591064" /></g><g bzw:type="5" fill="#04CCFF" stroke-width="0"><polygon points="-262.5,-23.4375 -274.67849731445,-30.468799591064 -274.67849731445,-30.468799591064 -262.5,-23.4375" /><polygon points="-262.5,-23.4375 -250.32150268555,-30.468799591064 -250.32150268555,-30.468799591064 -262.5,-23.4375" /><polygon points="-250.32150268555,-30.468799591064 -250.32150268555,-44.531299591064 -262.5,-51.5625 -274.67849731445,-44.531299591064 -274.67849731445,-30.468799591064 -262.5,-23.4375" /><polygon points="-250.32150268555,-30.468799591064 -250.32150268555,-44.531299591064 -250.32150268555,-44.531299591064 -250.32150268555,-30.468799591064" /><polygon points="-250.32150268555,-44.531299591064 -262.5,-51.5625 -262.5,-51.5625 -250.32150268555,-44.531299591064" /><polygon points="-262.5,-51.5625 -274.67849731445,-44.531299591064 -274.67849731445,-44.531299591064 -262.5,-51.5625" /><polygon points="-274.67849731445,-44.531299591064 -274.67849731445,-30.468799591064 -274.67849731445,-30.468799591064 -274.67849731445,-44.531299591064" /><polygon points="-262.5,-23.4375 -274.67849731445,-30.468799591064 -274.67849731445,-44.531299591064 -262.5,-51.5625 -250.32150268555,-44.531299591064 -250.32150268555,-30.468799591064" /></g><g bzw:type="5" fill="#04CCFF" stroke-width="0"><polygon points="-262.5,51.5625 -274.67849731445,44.531299591064 -274.67849731445,44.531299591064 -262.5,51.5625" /><polygon points="-262.5,51.5625 -250.32150268555,44.531299591064 -250.32150268555,44.531299591064 -262.5,51.5625" /><polygon points="-250.32150268555,44.531299591064 -250.32150268555,30.468799591064 -262.5,23.4375 -274.67849731445,30.468799591064 -274.67849731445,44.531299591064 -262.5,51.5625" /><polygon points="-250.32150268555,44.531299591064 -250.32150268555,30.468799591064 -250.32150268555,30.468799591064 -250.32150268555,44.531299591064" /><polygon points="-250.32150268555,30.468799591064 -262.5,23.4375 -262.5,23.4375 -250.32150268555,30.468799591064" /><polygon points="-262.5,23.4375 -274.67849731445,30.468799591064 -274.67849731445,30.468799591064 -262.5,23.4375" /><polygon points="-274.67849731445,30.468799591064 -274.67849731445,44.531299591064 -274.67849731445,44.531299591064 -274.67849731445,30.468799591064" /><polygon points="-262.5,51.5625 -274.67849731445,44.531299591064 -274.67849731445,30.468799591064 -262.5,23.4375 -250.32150268555,30.468799591064 -250.32150268555,44.531299591064" /></g><g bzw:type="5" fill="#04CCFF" stroke-width="0"><polygon points="262.5,51.5625 250.32150268555,44.531299591064 250.32150268555,44.531299591064 262.5,51.5625" /><polygon points="262.5,51.5625 274.67849731445,44.531299591064 274.67849731445,44.531299591064 262.5,51.5625" /><polygon points="274.67849731445,44.531299591064 274.67849731445,30.468799591064 262.5,23.4375 250.32150268555,30.468799591064 250.32150268555,44.531299591064 262.5,51.5625" /><polygon points="274.67849731445,44.531299591064 274.67849731445,30.468799591064 274.67849731445,30.468799591064 274.67849731445,44.531299591064" /><polygon points="274.67849731445,30.468799591064 262.5,23.4375 262.5,23.4375 274.67849731445,30.468799591064" /><polygon points="262.5,23.4375 250.32150268555,30.468799591064 250.32150268555,30.468799591064 262.5,23.4375" /><polygon points="250.32150268555,30.468799591064 250.32150268555,44.531299591064 250.32150268555,44.531299591064 250.32150268555,30.468799591064" /><polygon points="262.5,51.5625 250.32150268555,44.531299591064 250.32150268555,30.468799591064 262.5,23.4375 274.67849731445,30.468799591064 274.67849731445,44.531299591064" /></g><g bzw:type="5" fill="#04CCFF" stroke-width="0"><polygon points="-37.5,-23.4375 -49.67850112915,-30.468799591064 -49.67850112915,-30.468799591064 -37.5,-23.4375" /><polygon points="-37.5,-23.4375 -25.321500778198,-30.468799591064 -25.321500778198,-30.468799591064 -37.5,-23.4375" /><polygon points="-25.321500778198,-30.468799591064 -25.321500778198,-44.531299591064 -37.5,-51.5625 -49.67850112915,-44.531299591064 -49.67850112915,-30.468799591064 -37.5,-23.4375" /><polygon points="-25.321500778198,-30.468799591064 -25.321500778198,-44.531299591064 -25.321500778198,-44.531299591064 -25.321500778198,-30.468799591064" /><polygon points="-25.321500778198,-44.531299591064 -37.5,-51.5625 -37.5,-51.5625 -25.321500778198,-44.531299591064" /><polygon points="-37.5,-51.5625 -49.67850112915,-44.531299591064 -49.67850112915,-44.531299591064 -37.5,-51.5625" /><polygon points="-49.67850112915,-44.531299591064 -49.67850112915,-30.468799591064 -49.67850112915,-30.468799591064 -49.67850112915,-44.531299591064" /><polygon points="-37.5,-23.4375 -49.67850112915,-30.468799591064 -49.67850112915,-44.531299591064 -37.5,-51.5625 -25.321500778198,-44.531299591064 -25.321500778198,-30.468799591064" /></g><g bzw:type="5" fill="#04CCFF" stroke-width="0"><polygon points="37.5,-23.4375 25.321500778198,-30.468799591064 25.321500778198,-30.468799591064 37.5,-23.4375" /><polygon points="37.5,-23.4375 49.67850112915,-30.468799591064 49.67850112915,-30.468799591064 37.5,-23.4375" /><polygon points="49.67850112915,-30.468799591064 49.67850112915,-44.531299591064 37.5,-51.5625 25.321500778198,-44.531299591064 25.321500778198,-30.468799591064 37.5,-23.4375" /><polygon points="49.67850112915,-30.468799591064 49.67850112915,-44.531299591064 49.67850112915,-44.531299591064 49.67850112915,-30.468799591064" /><polygon points="49.67850112915,-44.531299591064 37.5,-51.5625 37.5,-51.5625 49.67850112915,-44.531299591064" /><polygon points="37.5,-51.5625 25.321500778198,-44.531299591064 25.321500778198,-44.531299591064 37.5,-51.5625" /><polygon points="25.321500778198,-44.531299591064 25.321500778198,-30.468799591064 25.321500778198,-30.468799591064 25.321500778198,-44.531299591064" /><polygon points="37.5,-23.4375 25.321500778198,-30.468799591064 25.321500778198,-44.531299591064 37.5,-51.5625 49.67850112915,-44.531299591064 49.67850112915,-30.468799591064" /></g><g bzw:type="5" fill="#04CCFF" stroke-width="0"><polygon points="37.5,51.5625 25.321500778198,44.531299591064 25.321500778198,44.531299591064 37.5,51.5625" /><polygon points="37.5,51.5625 49.67850112915,44.531299591064 49.67850112915,44.531299591064 37.5,51.5625" /><polygon points="49.67850112915,44.531299591064 49.67850112915,30.468799591064 37.5,23.4375 25.321500778198,30.468799591064 25.321500778198,44.531299591064 37.5,51.5625" /><polygon points="49.67850112915,44.531299591064 49.67850112915,30.468799591064 49.67850112915,30.468799591064 49.67850112915,44.531299591064" /><polygon points="49.67850112915,30.468799591064 37.5,23.4375 37.5,23.4375 49.67850112915,30.468799591064" /><polygon points="37.5,23.4375 25.321500778198,30.468799591064 25.321500778198,30.468799591064 37.5,23.4375" /><polygon points="25.321500778198,30.468799591064 25.321500778198,44.531299591064 25.321500778198,44.531299591064 25.321500778198,30.468799591064" /><polygon points="37.5,51.5625 25.321500778198,44.531299591064 25.321500778198,30.468799591064 37.5,23.4375 49.67850112915,30.468799591064 49.67850112915,44.531299591064" /></g><g bzw:type="5" fill="#04CCFF" stroke-width="0"><polygon points="-13.125,200.625 13.125,200.625 13.125,174.375 -13.125,174.375" /><polygon points="-13.125,174.375 13.125,174.375 13.125,174.375 -13.125,174.375" /><polygon points="-13.125,174.375 -13.125,200.625 -13.125,200.625 -13.125,174.375" /><polygon points="-13.125,200.625 13.125,200.625 13.125,200.625 -13.125,200.625" /><polygon points="13.125,174.375 13.125,200.625 13.125,200.625 13.125,174.375" /><polygon points="-13.125,174.375 13.125,174.375 13.125,200.625 -13.125,200.625" /></g><g bzw:type="5" fill="#04CCFF" stroke-width="0"><polygon points="0,126.5625 -13.374199867249,116.84559631348 -13.374199867249,116.84559631348 0,126.5625" /><polygon points="0,126.5625 13.374199867249,116.84559631348 13.374199867249,116.84559631348 0,126.5625" /><polygon points="13.374199867249,116.84559631348 8.265700340271,101.12319946289 -8.265700340271,101.12319946289 -13.374199867249,116.84559631348 0,126.5625" /><polygon points="13.374199867249,116.84559631348 8.265700340271,101.12319946289 8.265700340271,101.12319946289 13.374199867249,116.84559631348" /><polygon points="8.265700340271,101.12319946289 -8.265700340271,101.12319946289 -8.265700340271,101.12319946289 8.265700340271,101.12319946289" /><polygon points="-8.265700340271,101.12319946289 -13.374199867249,116.84559631348 -13.374199867249,116.84559631348 -8.265700340271,101.12319946289" /><polygon points="0,126.5625 -13.374199867249,116.84559631348 -8.265700340271,101.12319946289 8.265700340271,101.12319946289 13.374199867249,116.84559631348" /></g><g bzw:type="5" fill="#04CCFF" stroke-width="0"><polygon points="-13.125,-200.625 13.125,-200.625 13.125,-200.625 -13.125,-200.625" /><polygon points="-13.125,-200.625 -13.125,-174.375 -13.125,-174.375 -13.125,-200.625" /><polygon points="-13.125,-174.375 13.125,-174.375 13.125,-200.625 -13.125,-200.625" /><polygon points="-13.125,-174.375 13.125,-174.375 13.125,-174.375 -13.125,-174.375" /><polygon points="13.125,-200.625 13.125,-174.375 13.125,-174.375 13.125,-200.625" /><polygon points="-13.125,-200.625 13.125,-200.625 13.125,-174.375 -13.125,-174.375" /></g><g bzw:type="5" fill="#04CCFF" stroke-width="0"><polygon points="-37.5,51.5625 -49.67850112915,44.531299591064 -49.67850112915,44.531299591064 -37.5,51.5625" /><polygon points="-37.5,51.5625 -25.321500778198,44.531299591064 -25.321500778198,44.531299591064 -37.5,51.5625" /><polygon points="-25.321500778198,44.531299591064 -25.321500778198,30.468799591064 -37.5,23.4375 -49.67850112915,30.468799591064 -49.67850112915,44.531299591064 -37.5,51.5625" /><polygon points="-25.321500778198,44.531299591064 -25.321500778198,30.468799591064 -25.321500778198,30.468799591064 -25.321500778198,44.531299591064" /><polygon points="-25.321500778198,30.468799591064 -37.5,23.4375 -37.5,23.4375 -25.321500778198,30.468799591064" /><polygon points="-37.5,23.4375 -49.67850112915,30.468799591064 -49.67850112915,30.468799591064 -37.5,23.4375" /><polygon points="-49.67850112915,30.468799591064 -49.67850112915,44.531299591064 -49.67850112915,44.531299591064 -49.67850112915,30.468799591064" /><polygon points="-37.5,51.5625 -49.67850112915,44.531299591064 -49.67850112915,30.468799591064 -37.5,23.4375 -25.321500778198,30.468799591064 -25.321500778198,44.531299591064" /></g><g bzw:type="5" fill="#04CCFF" stroke-width="0"><polygon points="72.918601989746,-207.48010253906 50.227199554443,-219.60899353027 50.227199554443,-219.60899353027 72.918601989746,-207.48010253906" /><polygon points="72.918601989746,-207.48010253906 76.564498901367,-212.93670654297 52.738498687744,-225.67190551758 50.227199554443,-219.60899353027" /><polygon points="72.918601989746,-207.48010253906 76.564498901367,-212.93670654297 76.564498901367,-212.93670654297 72.918601989746,-207.48010253906" /><polygon points="50.227199554443,-219.60899353027 25.605600357056,-227.07789611816 25.605600357056,-227.07789611816 50.227199554443,-219.60899353027" /><polygon points="50.227199554443,-219.60899353027 52.738498687744,-225.67190551758 26.885900497437,-233.51429748535 25.605600357056,-227.07789611816" /><polygon points="25.605600357056,-227.07789611816 26.885900497437,-233.51429748535 26.885900497437,-233.51429748535 25.605600357056,-227.07789611816" /><polygon points="76.564498901367,-212.93670654297 52.738498687744,-225.67190551758 52.738498687744,-225.67190551758 76.564498901367,-212.93670654297" /><polygon points="52.738498687744,-225.67190551758 26.885900497437,-233.51429748535 26.885900497437,-233.51429748535 52.738498687744,-225.67190551758" /><polygon points="50.227199554443,-219.60899353027 52.738498687744,-225.67190551758 76.564498901367,-212.93670654297 72.918601989746,-207.48010253906" /><polygon points="25.605600357056,-227.07789611816 26.885900497437,-233.51429748535 52.738498687744,-225.67190551758 50.227199554443,-219.60899353027" /></g><g bzw:type="5" fill="#04CCFF" stroke-width="0"><polygon points="169.9806060791,273.10308837891 194.60220336914,265.63418579102 194.60220336914,265.63418579102 169.9806060791,273.10308837891" /><polygon points="169.9806060791,273.10308837891 171.26089477539,279.53948974609 197.11360168457,271.69720458984 194.60220336914,265.63418579102" /><polygon points="169.9806060791,273.10308837891 171.26089477539,279.53948974609 171.26089477539,279.53948974609 169.9806060791,273.10308837891" /><polygon points="194.60220336914,265.63418579102 217.29359436035,253.50540161133 217.29359436035,253.50540161133 194.60220336914,265.63418579102" /><polygon points="194.60220336914,265.63418579102 197.11360168457,271.69720458984 220.93960571289,258.9619140625 217.29359436035,253.50540161133" /><polygon points="217.29359436035,253.50540161133 220.93960571289,258.9619140625 220.93960571289,258.9619140625 217.29359436035,253.50540161133" /><polygon points="171.26089477539,279.53948974609 197.11360168457,271.69720458984 197.11360168457,271.69720458984 171.26089477539,279.53948974609" /><polygon points="197.11360168457,271.69720458984 220.93960571289,258.9619140625 220.93960571289,258.9619140625 197.11360168457,271.69720458984" /><polygon points="194.60220336914,265.63418579102 197.11360168457,271.69720458984 171.26089477539,279.53948974609 169.9806060791,273.10308837891" /><polygon points="217.29359436035,253.50540161133 220.93960571289,258.9619140625 197.11360168457,271.69720458984 194.60220336914,265.63418579102" /></g><g bzw:type="5" fill="#04CCFF" stroke-width="0"><polygon points="153.79339599609,-3.7065999507904 142.5,0 153.79339599609,3.7065999507904" /><polygon points="153.79339599609,-3.7065999507904 153.79339599609,3.7065999507904 157.5,15" /><polygon points="161.20660400391,3.7065999507904 172.5,-0 161.20660400391,-3.7065999507904" /><polygon points="161.20660400391,3.7065999507904 161.20660400391,-3.7065999507904 157.5,-15" /><polygon points="157.5,-15 153.79339599609,-3.7065999507904 157.5,15" /><polygon points="161.20660400391,3.7065999507904 157.5,-15 157.5,15" /><polygon points="172.5,-0 161.20660400391,-3.7065999507904 161.20660400391,-3.7065999507904 172.5,-0" /><polygon points="161.20660400391,-3.7065999507904 157.5,-15 157.5,-15 161.20660400391,-3.7065999507904" /><polygon points="157.5,-15 153.79339599609,-3.7065999507904 153.79339599609,-3.7065999507904 157.5,-15" /><polygon points="153.79339599609,-3.7065999507904 142.5,0 142.5,0 153.79339599609,-3.7065999507904" /><polygon points="157.5,15 153.79339599609,3.7065999507904 153.79339599609,3.7065999507904 157.5,15" /><polygon points="157.5,15 161.20660400391,3.7065999507904 161.20660400391,3.7065999507904 157.5,15" /><polygon points="161.20660400391,3.7065999507904 172.5,-0 172.5,-0 161.20660400391,3.7065999507904" /><polygon points="142.5,0 153.79339599609,3.7065999507904 153.79339599609,3.7065999507904 142.5,0" /><polygon points="161.20660400391,-3.7065999507904 172.5,-0 161.20660400391,3.7065999507904" /><polygon points="161.20660400391,-3.7065999507904 161.20660400391,3.7065999507904 157.5,15" /><polygon points="153.79339599609,3.7065999507904 142.5,0 153.79339599609,-3.7065999507904" /><polygon points="153.79339599609,3.7065999507904 153.79339599609,-3.7065999507904 157.5,-15" /><polygon points="157.5,-15 161.20660400391,-3.7065999507904 157.5,15" /><polygon points="153.79339599609,3.7065999507904 157.5,-15 157.5,15" /></g><g bzw:type="5" fill="#04CCFF" stroke-width="0"><polygon points="-183.37890625,158.9759979248 -208.00050354004,166.44500732422 -208.00050354004,166.44500732422 -183.37890625,158.9759979248" /><polygon points="-183.37890625,158.9759979248 -184.65919494629,152.53959655762 -210.51190185547,160.38200378418 -208.00050354004,166.44500732422" /><polygon points="-183.37890625,158.9759979248 -184.65919494629,152.53959655762 -184.65919494629,152.53959655762 -183.37890625,158.9759979248" /><polygon points="-208.00050354004,166.44500732422 -230.69189453125,178.5738067627 -230.69189453125,178.5738067627 -208.00050354004,166.44500732422" /><polygon points="-208.00050354004,166.44500732422 -210.51190185547,160.38200378418 -234.33790588379,173.11729431152 -230.69189453125,178.5738067627" /><polygon points="-230.69189453125,178.5738067627 -234.33790588379,173.11729431152 -234.33790588379,173.11729431152 -230.69189453125,178.5738067627" /><polygon points="-184.65919494629,152.53959655762 -210.51190185547,160.38200378418 -210.51190185547,160.38200378418 -184.65919494629,152.53959655762" /><polygon points="-210.51190185547,160.38200378418 -234.33790588379,173.11729431152 -234.33790588379,173.11729431152 -210.51190185547,160.38200378418" /><polygon points="-208.00050354004,166.44500732422 -210.51190185547,160.38200378418 -184.65919494629,152.53959655762 -183.37890625,158.9759979248" /><polygon points="-230.69189453125,178.5738067627 -234.33790588379,173.11729431152 -210.51190185547,160.38200378418 -208.00050354004,166.44500732422" /></g><g bzw:type="5" fill="#04CCFF" stroke-width="0"><polygon points="185.45820617676,25.605699539185 192.92709350586,50.227298736572 192.92709350586,50.227298736572 185.45820617676,25.605699539185" /><polygon points="185.45820617676,25.605699539185 179.02180480957,26.885999679565 186.86410522461,52.738700866699 192.92709350586,50.227298736572" /><polygon points="185.45820617676,25.605699539185 179.02180480957,26.885999679565 179.02180480957,26.885999679565 185.45820617676,25.605699539185" /><polygon points="192.92709350586,50.227298736572 205.05589294434,72.918701171875 205.05589294434,72.918701171875 192.92709350586,50.227298736572" /><polygon points="192.92709350586,50.227298736572 186.86410522461,52.738700866699 199.59939575195,76.564697265625 205.05589294434,72.918701171875" /><polygon points="205.05589294434,72.918701171875 199.59939575195,76.564697265625 199.59939575195,76.564697265625 205.05589294434,72.918701171875" /><polygon points="179.02180480957,26.885999679565 186.86410522461,52.738700866699 186.86410522461,52.738700866699 179.02180480957,26.885999679565" /><polygon points="186.86410522461,52.738700866699 199.59939575195,76.564697265625 199.59939575195,76.564697265625 186.86410522461,52.738700866699" /><polygon points="192.92709350586,50.227298736572 186.86410522461,52.738700866699 179.02180480957,26.885999679565 185.45820617676,25.605699539185" /><polygon points="205.05589294434,72.918701171875 199.59939575195,76.564697265625 186.86410522461,52.738700866699 192.92709350586,50.227298736572" /></g><g bzw:type="5" fill="#04CCFF" stroke-width="0"><polygon points="-72.918403625488,109.13050079346 -50.227001190186,121.25930023193 -50.227001190186,121.25930023193 -72.918403625488,109.13050079346" /><polygon points="-72.918403625488,109.13050079346 -76.564399719238,114.58699798584 -52.738399505615,127.32219696045 -50.227001190186,121.25930023193" /><polygon points="-72.918403625488,109.13050079346 -76.564399719238,114.58699798584 -76.564399719238,114.58699798584 -72.918403625488,109.13050079346" /><polygon points="-50.227001190186,121.25930023193 -25.605400085449,128.7281036377 -25.605400085449,128.7281036377 -50.227001190186,121.25930023193" /><polygon points="-50.227001190186,121.25930023193 -52.738399505615,127.32219696045 -26.88570022583,135.16450500488 -25.605400085449,128.7281036377" /><polygon points="-25.605400085449,128.7281036377 -26.88570022583,135.16450500488 -26.88570022583,135.16450500488 -25.605400085449,128.7281036377" /><polygon points="-76.564399719238,114.58699798584 -52.738399505615,127.32219696045 -52.738399505615,127.32219696045 -76.564399719238,114.58699798584" /><polygon points="-52.738399505615,127.32219696045 -26.88570022583,135.16450500488 -26.88570022583,135.16450500488 -52.738399505615,127.32219696045" /><polygon points="-50.227001190186,121.25930023193 -52.738399505615,127.32219696045 -76.564399719238,114.58699798584 -72.918403625488,109.13050079346" /><polygon points="-25.605400085449,128.7281036377 -26.88570022583,135.16450500488 -52.738399505615,127.32219696045 -50.227001190186,121.25930023193" /></g><g transform="scale(0.75 0.75)" bzw:scale="0.75 0.75 0.75" bzw:name="pyras"><rect x="-10" y="-10" width="20" height="20" transform="translate(0 0) rotate(45 0 0)" bzw:type="2" bzw:position="0 0 0" bzw:size="10 10 10" bzw:rotation="45.000001252239" fill="#04CCFF" stroke-width="0" bzw:zflip="" /><rect x="-10" y="-10" width="20" height="20" transform="translate(210 140) rotate(45 0 0)" bzw:type="2" bzw:position="210 140 0" bzw:size="10 10 10" bzw:rotation="45.000001252239" fill="#04CCFF" stroke-width="0" bzw:zflip="" /><rect x="-10" y="-10" width="20" height="20" transform="translate(210 -140) rotate(45 0 0)" bzw:type="2" bzw:position="210 -140 0" bzw:size="10 10 10" bzw:rotation="45.000001252239" fill="#04CCFF" stroke-width="0" bzw:zflip="" /><rect x="-10" y="-10" width="20" height="20" transform="translate(-210 140) rotate(45 0 0)" bzw:type="2" bzw:position="-210 140 0" bzw:size="10 10 10" bzw:rotation="45.000001252239" fill="#04CCFF" stroke-width="0" bzw:zflip="" /><rect x="-10" y="-10" width="20" height="20" transform="translate(-210 -140) rotate(45 0 0)" bzw:type="2" bzw:position="-210 -140 0" bzw:size="10 10 10" bzw:rotation="45.000001252239" fill="#04CCFF" stroke-width="0" bzw:zflip="" /><rect x="-10" y="-10" width="20" height="20" transform="translate(385 0) rotate(0 0 0)" bzw:type="2" bzw:position="385 0 0" bzw:size="10 10 10" bzw:rotation="0" fill="#04CCFF" stroke-width="0" bzw:zflip="" /><rect x="-10" y="-10" width="20" height="20" transform="translate(-385 0) rotate(0 0 0)" bzw:type="2" bzw:position="-385 0 0" bzw:size="10 10 10" bzw:rotation="0" fill="#04CCFF" stroke-width="0" bzw:zflip="" /><rect x="-10" y="-10" width="20" height="20" transform="translate(350 350) rotate(45 0 0)" bzw:type="2" bzw:position="350 350 0" bzw:size="10 10 10" bzw:rotation="45.000001252239" fill="#04CCFF" stroke-width="0" bzw:zflip="" /><rect x="-10" y="-10" width="20" height="20" transform="translate(100 350) rotate(0 0 0)" bzw:type="2" bzw:position="100 350 0" bzw:size="10 10 10" bzw:rotation="0" fill="#04CCFF" stroke-width="0" bzw:zflip="" /><rect x="-10" y="-10" width="20" height="20" transform="translate(-100 350) rotate(0 0 0)" bzw:type="2" bzw:position="-100 350 0" bzw:size="10 10 10" bzw:rotation="0" fill="#04CCFF" stroke-width="0" bzw:zflip="" /><rect x="-10" y="-10" width="20" height="20" transform="translate(-350 350) rotate(45 0 0)" bzw:type="2" bzw:position="-350 350 0" bzw:size="10 10 10" bzw:rotation="45.000001252239" fill="#04CCFF" stroke-width="0" bzw:zflip="" /><rect x="-10" y="-10" width="20" height="20" transform="translate(350 -350) rotate(45 0 0)" bzw:type="2" bzw:position="350 -350 0" bzw:size="10 10 10" bzw:rotation="45.000001252239" fill="#04CCFF" stroke-width="0" bzw:zflip="" /><rect x="-10" y="-10" width="20" height="20" transform="translate(100 -350) rotate(0 0 0)" bzw:type="2" bzw:position="100 -350 0" bzw:size="10 10 10" bzw:rotation="0" fill="#04CCFF" stroke-width="0" bzw:zflip="" /><rect x="-10" y="-10" width="20" height="20" transform="translate(-100 -350) rotate(0 0 0)" bzw:type="2" bzw:position="-100 -350 0" bzw:size="10 10 10" bzw:rotation="0" fill="#04CCFF" stroke-width="0" bzw:zflip="" /><rect x="-10" y="-10" width="20" height="20" transform="translate(-350 -350) rotate(45 0 0)" bzw:type="2" bzw:position="-350 -350 0" bzw:size="10 10 10" bzw:rotation="45.000001252239" fill="#04CCFF" stroke-width="0" bzw:zflip="" /></g></g></svg>